<svg xmlns="http://www.w3.org/2000/svg" xmlns:xlink="http://www.w3.org/1999/xlink" width="108.914" height="108.914" viewBox="0 0 108.914 108.914">
  <defs>
    <filter id="Trazado_874925" x="0" y="0" width="108.914" height="108.914" filterUnits="userSpaceOnUse">
      <feOffset dy="3" input="SourceAlpha"/>
      <feGaussianBlur stdDeviation="3" result="blur"/>
      <feFlood flood-opacity="0.161"/>
      <feComposite operator="in" in2="blur"/>
      <feComposite in="SourceGraphic"/>
    </filter>
    <clipPath id="clip-path">
      <path id="path2316" d="M0-682.665H55.69v55.69H0Z" transform="translate(0 682.665)"/>
    </clipPath>
  </defs>
  <g id="Grupo_1109997" data-name="Grupo 1109997" transform="translate(3057.354 9838.635)">
    <g transform="matrix(1, 0, 0, 1, -3057.35, -9838.63)" filter="url(#Trazado_874925)">
      <g id="Trazado_874925-2" data-name="Trazado 874925" transform="translate(9 6)" fill="#de93ea" opacity="0.859">
        <path d="M 45.45676803588867 89.41407012939453 C 39.52198028564453 89.41407012939453 33.76551818847656 88.25206756591797 28.34726715087891 85.96034240722656 C 23.11311721801758 83.74648284912109 18.41204261779785 80.57682800292969 14.37464332580566 76.5394287109375 C 10.33724308013916 72.50202941894531 7.167593002319336 67.80095672607422 4.953730583190918 62.56679534912109 C 2.662005424499512 57.14855575561523 1.500005483627319 51.39208221435547 1.500005483627319 45.45729446411133 C 1.500005483627319 39.52198028564453 2.662005424499512 33.76551818847656 4.953730583190918 28.34726905822754 C 7.167593002319336 23.11310577392578 10.33724308013916 18.41203117370605 14.37464332580566 14.37464332580566 C 18.41204261779785 10.33724403381348 23.11311721801758 7.167593955993652 28.34726715087891 4.953731060028076 C 33.76551818847656 2.662006139755249 39.52198028564453 1.500006198883057 45.45676803588867 1.500006198883057 C 51.39155578613281 1.500006198883057 57.14802932739258 2.662006139755249 62.56626892089844 4.953731060028076 C 67.80043029785156 7.167593955993652 72.50150299072266 10.33724403381348 76.53890228271484 14.37464332580566 C 80.57630920410156 18.41203117370605 83.74595642089844 23.11310577392578 85.95981597900391 28.34726905822754 C 88.25154113769531 33.76551818847656 89.41354370117188 39.52198028564453 89.41354370117188 45.45676803588867 C 89.41354370117188 51.39208221435547 88.25154113769531 57.14855575561523 85.95981597900391 62.56679534912109 C 83.74595642089844 67.80095672607422 80.57630920410156 72.50202941894531 76.53890228271484 76.5394287109375 C 72.50150299072266 80.57682800292969 67.80043029785156 83.74648284912109 62.56626892089844 85.96034240722656 C 57.14802932739258 88.25206756591797 51.39155578613281 89.41407012939453 45.45676803588867 89.41407012939453 Z" stroke="none"/>
        <path d="M 45.45676803588867 3 C 39.72381210327148 3 34.1639404296875 4.12213134765625 28.93159484863281 6.335227966308594 C 23.87622833251953 8.473472595214844 19.33542633056641 11.53517150878906 15.43529510498047 15.435302734375 C 11.53517150878906 19.33543395996094 8.473464965820312 23.87622833251953 6.335227966308594 28.93160247802734 C 4.122123718261719 34.16394424438477 3 39.72381591796875 3 45.4572868347168 C 3 51.19024658203125 4.122123718261719 56.75011825561523 6.335227966308594 61.98246002197266 C 8.473464965820312 67.03782653808594 11.53517150878906 71.57862854003906 15.43529510498047 75.478759765625 C 19.33542633056641 79.37889099121094 23.87622833251953 82.44058990478516 28.93159484863281 84.57883453369141 C 34.1639404296875 86.79193115234375 39.72381210327148 87.9140625 45.45676803588867 87.9140625 C 51.18972396850586 87.9140625 56.74959564208984 86.79193115234375 61.98194122314453 84.57883453369141 C 67.03730773925781 82.44058990478516 71.57810974121094 79.37889099121094 75.47824096679688 75.478759765625 C 79.37837219238281 71.57862854003906 82.44007110595703 67.03782653808594 84.57830810546875 61.98246002197266 C 86.79141235351562 56.75011825561523 87.91353607177734 51.19024658203125 87.91353607177734 45.4567756652832 C 87.91353607177734 39.72381591796875 86.79141235351562 34.16394424438477 84.57830810546875 28.93160247802734 C 82.44007110595703 23.87622833251953 79.37837219238281 19.33543395996094 75.47824096679688 15.435302734375 C 71.57810974121094 11.53517150878906 67.03730773925781 8.473472595214844 61.98194122314453 6.335227966308594 C 56.74959564208984 4.12213134765625 51.18972396850586 3 45.45676803588867 3 M 45.45676803588867 0 C 70.56185150146484 0 90.91353607177734 20.35169219970703 90.91353607177734 45.4567756652832 L 90.91353607177734 45.4572868347168 C 90.91353607177734 70.5623779296875 70.56185150146484 90.9140625 45.45676803588867 90.9140625 C 20.3516845703125 90.9140625 0 70.5623779296875 0 45.4572868347168 L 0 45.4567756652832 C 0 20.35169219970703 20.3516845703125 0 45.45676803588867 0 Z" stroke="none" fill="#fff"/>
      </g>
    </g>
    <g id="g2310" transform="translate(-3030.743 -9132.357)">
      <g id="g2312" transform="translate(0 -682.665)">
        <g id="g2314" clip-path="url(#clip-path)">
          <g id="g2320" transform="translate(22.86 6.477)">
            <path id="path2322" d="M-173.1,0a15.374,15.374,0,0,0-15.375,15.376A15.376,15.376,0,0,0-173.1,30.751a15.376,15.376,0,0,0,15.375-15.376A15.374,15.374,0,0,0-173.1,0" transform="translate(188.476)" fill="#ffda8f" fill-rule="evenodd"/>
          </g>
          <g id="g2324" transform="translate(34.671 13.917)">
            <path id="path2326" d="M-43.8-111.944v-.768c0-1.831,2.5-3.077,2.5-4.736v-1.243a3.206,3.206,0,0,0-3.2-3.2,3.206,3.206,0,0,0-3.2,3.2v1.243m3.9,11.429v0" transform="translate(47.695 121.888)" fill="none" stroke="#000" stroke-linecap="round" stroke-linejoin="round" stroke-miterlimit="10" stroke-width="2"/>
          </g>
          <g id="g2328" transform="translate(2.08 1.088)">
            <path id="path2330" d="M-308.194-375.333v-21.459a2.425,2.425,0,0,0-2.417-2.417,2.425,2.425,0,0,0-2.417,2.417v-7.091a2.769,2.769,0,0,0-2.759-2.763,2.77,2.77,0,0,0-2.763,2.763v-2.029a2.768,2.768,0,0,0-2.759-2.759,2.769,2.769,0,0,0-2.763,2.759v5.069a2.769,2.769,0,0,0-2.759-2.763,2.769,2.769,0,0,0-2.759,2.763V-388.4a3,3,0,0,0-2.984-2.772,3,3,0,0,0-2.994,2.994v6.385a13.706,13.706,0,0,0,3.324,9.53c2.648,3.478,3.018,3.666,3.089,5.849v2.448h17.54c-.049-2.9-.3-5.186,1.406-6.465,1.2-.9,2.016-3.311,2.016-4.905" transform="translate(335.569 408.671)" fill="#ffdcd5" fill-rule="evenodd"/>
          </g>
          <g id="g2332" transform="translate(27.709 6.477)">
            <path id="path2334" d="M-19.646-314.658v.046a15.3,15.3,0,0,0,8.781,2.756A15.377,15.377,0,0,0,4.51-327.231a15.375,15.375,0,0,0-15.375-15.376,15.324,15.324,0,0,0-10.526,4.168" transform="translate(21.391 342.607)" fill="none" stroke="#000" stroke-linecap="round" stroke-linejoin="round" stroke-miterlimit="10" stroke-width="2"/>
          </g>
          <g id="g2336" transform="translate(5.551 45.797)">
            <path id="path2338" d="M-263.8-25.686a2.287,2.287,0,0,0-2.278-2.282h-18.875a2.288,2.288,0,0,0-2.278,2.282v4.242a2.286,2.286,0,0,0,2.278,2.282h18.875a2.287,2.287,0,0,0,2.278-2.282Z" transform="translate(287.23 27.968)" fill="#ff7d97" fill-rule="evenodd"/>
          </g>
          <g id="g2340" transform="translate(8.058 6.153)">
            <path id="path2342" d="M-62.131-111.076v-7.1a2.769,2.769,0,0,0-2.759-2.763,2.769,2.769,0,0,0-2.759,2.763v19.526" transform="translate(67.649 120.942)" fill="none" stroke="#000" stroke-linecap="round" stroke-linejoin="round" stroke-miterlimit="10" stroke-width="2"/>
          </g>
          <g id="g2344" transform="translate(19.098 3.113)">
            <path id="path2346" d="M-62.166-147.419V-157.75a2.769,2.769,0,0,0-2.759-2.763,2.77,2.77,0,0,0-2.763,2.763" transform="translate(67.688 160.513)" fill="none" stroke="#000" stroke-linecap="round" stroke-linejoin="round" stroke-miterlimit="10" stroke-width="2"/>
          </g>
          <g id="g2348" transform="translate(13.576 1.088)">
            <path id="path2350" d="M0-216.008v-16.427a2.769,2.769,0,0,1,2.762-2.759,2.769,2.769,0,0,1,2.759,2.759v17" transform="translate(0 235.194)" fill="none" stroke="#000" stroke-linecap="round" stroke-linejoin="round" stroke-miterlimit="10" stroke-width="2"/>
          </g>
          <g id="g2352" transform="translate(8.058 28.996)">
            <path id="path2354" d="M0,0C3.8-.034,6.758,2.306,6.758,7.815" transform="translate(0 0.004)" fill="none" stroke="#000" stroke-linecap="round" stroke-linejoin="round" stroke-miterlimit="10" stroke-width="2"/>
          </g>
          <g id="g2356" transform="translate(5.551 45.797)">
            <path id="path2358" d="M-76.918-99.136h-4.554a2.286,2.286,0,0,1-2.278-2.282v-4.242a2.288,2.288,0,0,1,2.278-2.282H-62.6a2.287,2.287,0,0,1,2.278,2.282v4.242A2.287,2.287,0,0,1-62.6-99.136h-4.554" transform="translate(83.75 107.941)" fill="none" stroke="#000" stroke-linecap="round" stroke-linejoin="round" stroke-miterlimit="10" stroke-width="2"/>
          </g>
          <g id="g2360" transform="translate(2.08 18.591)">
            <path id="path2362" d="M-72.2-306.292v-2.448c-.071-2.183-.441-2.371-3.089-5.849a13.706,13.706,0,0,1-3.324-9.53V-330.5a3,3,0,0,1,2.994-2.994,3,3,0,0,1,2.991,2.994" transform="translate(78.61 333.498)" fill="none" stroke="#000" stroke-linecap="round" stroke-linejoin="round" stroke-miterlimit="10" stroke-width="2"/>
          </g>
          <g id="g2364" transform="translate(17.267 54.602)">
            <path id="path2366" d="M-.07,0H-.076" transform="translate(0.076)" fill="none" stroke="#000" stroke-linecap="round" stroke-linejoin="round" stroke-miterlimit="10" stroke-width="2"/>
          </g>
          <g id="g2368" transform="translate(25.99 17.373)">
            <path id="path2370" d="M-.471-320c-.049-2.9-.3-5.186,1.406-6.465,1.2-.9,2.016-3.311,2.016-4.905v-17.053" transform="translate(0.513 348.427)" fill="none" stroke="#000" stroke-linecap="round" stroke-linejoin="round" stroke-miterlimit="10" stroke-width="2"/>
          </g>
          <g id="g2372" transform="translate(24.62 10.55)">
            <path id="path2374" d="M-54.426-109.306V-116.6a2.425,2.425,0,0,0-2.417-2.417A2.425,2.425,0,0,0-59.26-116.6v8.479" transform="translate(59.26 119.014)" fill="none" stroke="#000" stroke-linecap="round" stroke-linejoin="round" stroke-miterlimit="10" stroke-width="2"/>
          </g>
          <g id="g2376" transform="translate(17.267 54.602)">
            <path id="path2378" d="M-.07,0H-.076" transform="translate(0.076)" fill="none" stroke="#000" stroke-linecap="round" stroke-linejoin="round" stroke-miterlimit="10" stroke-width="2"/>
          </g>
        </g>
      </g>
    </g>
  </g>
</svg>
