<svg xmlns="http://www.w3.org/2000/svg" width="84" height="84" viewBox="0 0 84 84">
  <g id="Grupo_1110048" data-name="Grupo 1110048" transform="translate(-1335.051 -655)">
    <rect id="Rectángulo_402373" data-name="Rectángulo 402373" width="84" height="84" transform="translate(1335.051 655)" fill="none"/>
    <g id="Grupo_1110047" data-name="Grupo 1110047" transform="translate(1333.985 653.956)">
      <g id="Grupo_1110044" data-name="Grupo 1110044" transform="translate(10.001 9.978)">
        <path id="Trazado_901334" data-name="Trazado 901334" d="M74.752,52.254l-.024.024A17.224,17.224,0,1,0,52.266,74.7l-.043.043a33.013,33.013,0,0,1-41.7-25.919l-.007-.039c-.032-.178-.063-.357-.092-.536A32.842,32.842,0,0,1,10.564,37a33.222,33.222,0,0,1,3.71-10.212,30.809,30.809,0,0,1,2.8-4.249c.215-.277.443-.557.68-.838a30.858,30.858,0,0,1,4.24-4.153A32.893,32.893,0,0,1,37.8,10.4a33.187,33.187,0,0,1,5.424-.423,33.059,33.059,0,0,1,31.018,22.2,33.174,33.174,0,0,1,.511,20.074Z" transform="translate(-10.004 -9.978)" fill="#c0dbff"/>
        <path id="Trazado_901335" data-name="Trazado 901335" d="M261.594,244.406a17.209,17.209,0,1,0,15.966,10.754A17.219,17.219,0,0,0,261.594,244.406Z" transform="translate(-212.835 -212.861)" fill="#ffea60"/>
        <path id="Trazado_901336" data-name="Trazado 901336" d="M308.532,307a.675.675,0,0,0-.973.214l-1.672,2.9-1.261,2.19a4.412,4.412,0,0,0-4.865.037l-1.318-2.228-1.638-2.837a.674.674,0,0,0-.978-.21,10.935,10.935,0,0,0-4.507,7.9.675.675,0,0,0,.671.737h5.83c-.007.1-.011.2-.011.3a4.41,4.41,0,0,0,2.41,3.932l-1.284,2.215-1.61,2.789a.674.674,0,0,0,.3.949,10.977,10.977,0,0,0,9.094.044.674.674,0,0,0,.3-.951l-1.634-2.831-1.255-2.17a4.412,4.412,0,0,0,2.5-3.976c0-.1,0-.2-.011-.3h5.83a.676.676,0,0,0,.671-.737A10.935,10.935,0,0,0,308.532,307Z" transform="translate(-253.464 -266.924)" fill="#60a4ff"/>
        <path id="Trazado_901337" data-name="Trazado 901337" d="M266.231,84.355l-.024.024a17.226,17.226,0,0,0-28.449-5.4l-5.883-3.776a1.344,1.344,0,0,1-.607-1.32l1.078-7.616a1.346,1.346,0,0,1,1.227-1.153l7.273-.566a1.341,1.341,0,0,0,1.064-.674l2.574-4.506a1.35,1.35,0,0,0,.148-.389l1.273-6.015a1.356,1.356,0,0,1,.409-.715l5.648-5.179a33.056,33.056,0,0,1,14.269,37.284Z" transform="translate(-201.482 -42.08)" fill="#89df8f"/>
        <path id="Trazado_901338" data-name="Trazado 901338" d="M165.679,354.212l-.043.043a32.936,32.936,0,0,1-24.584-2.5l1.175-8.086a1.351,1.351,0,0,1,.218-.553l4.535-6.649a1.354,1.354,0,0,1,.647-.5l8.161-3.007a17.246,17.246,0,0,0,9.892,21.261Z" transform="translate(-123.417 -289.491)" fill="#89df8f"/>
        <path id="Trazado_901339" data-name="Trazado 901339" d="M24.043,123.352a1.344,1.344,0,0,1-.515,1.079l-3.585,2.806a1.346,1.346,0,0,0-.421.565l-1.443,3.655a1.353,1.353,0,0,0,.062,1.125l2.863,5.4a1.346,1.346,0,0,1-.328,1.663L16.385,143.3a32.854,32.854,0,0,1-5.866-13.717l-.007-.039c-.032-.178-.063-.357-.092-.536a32.842,32.842,0,0,1,.143-11.251,33.222,33.222,0,0,1,3.71-10.212,30.81,30.81,0,0,1,2.8-4.249l3.846,6.031a1.348,1.348,0,0,1,.19,1l-.758,3.71a1.347,1.347,0,0,0,.311,1.161l2.987,3.372a1.346,1.346,0,0,1,.338.873Z" transform="translate(-10.004 -90.743)" fill="#89df8f"/>
        <path id="Trazado_901340" data-name="Trazado 901340" d="M242.427,10.986l-4.52,12.738a1.346,1.346,0,0,1-1.239.893l-3.756.077a1.345,1.345,0,0,1-1.366-1.206l-.5-4.751a1.324,1.324,0,0,1,.1-.661l3.369-8.1A32.7,32.7,0,0,1,242.427,10.986Z" transform="translate(-201.3 -9.981)" fill="#89df8f"/>
      </g>
      <g id="Grupo_1110046" data-name="Grupo 1110046" transform="translate(10 9.981)">
        <g id="Grupo_1110045" data-name="Grupo 1110045" transform="translate(37.855 39.948)">
          <path id="Trazado_901341" data-name="Trazado 901341" d="M392.919,311.662l.9-1.554,1.672-2.9a.675.675,0,0,1,.973-.214,10.937,10.937,0,0,1,4.593,7.962.676.676,0,0,1-.671.737h-5.139" transform="translate(-379.247 -306.875)" fill="none" stroke="#000" stroke-linecap="round" stroke-linejoin="round" stroke-miterlimit="10" stroke-width="1"/>
          <path id="Trazado_901342" data-name="Trazado 901342" d="M342.528,408.043l.933,1.618,1.634,2.831a.674.674,0,0,1-.305.951,10.977,10.977,0,0,1-9.094-.044.674.674,0,0,1-.3-.949l1.61-2.789.959-1.662" transform="translate(-329.387 -394.392)" fill="none" stroke="#000" stroke-linecap="round" stroke-linejoin="round" stroke-miterlimit="10" stroke-width="1"/>
          <path id="Trazado_901343" data-name="Trazado 901343" d="M297.131,316.073h-5.139a.675.675,0,0,1-.671-.737,10.935,10.935,0,0,1,4.507-7.9.674.674,0,0,1,.978.21l1.638,2.837.929,1.609" transform="translate(-291.318 -307.25)" fill="none" stroke="#000" stroke-linecap="round" stroke-linejoin="round" stroke-miterlimit="10" stroke-width="1"/>
          <circle id="Elipse_11559" data-name="Elipse 11559" cx="4.412" cy="4.412" r="4.412" transform="translate(6.493 4.711)" fill="none" stroke="#000" stroke-linecap="round" stroke-linejoin="round" stroke-miterlimit="10" stroke-width="1"/>
        </g>
        <circle id="Elipse_11560" data-name="Elipse 11560" cx="17.222" cy="17.222" r="17.222" transform="translate(31.538 31.542)" fill="none" stroke="#000" stroke-linecap="round" stroke-linejoin="round" stroke-miterlimit="10" stroke-width="1"/>
        <path id="Trazado_901344" data-name="Trazado 901344" d="M237.691,83.586l-5.8-3.7a1.346,1.346,0,0,1-.609-1.32l1.061-7.618a1.346,1.346,0,0,1,1.226-1.156l7.272-.581a1.346,1.346,0,0,0,1.063-.676l2.565-4.513a1.348,1.348,0,0,0,.147-.389l1.261-6.017a1.345,1.345,0,0,1,.407-.715l4.811-4.417" transform="translate(-201.495 -46.766)" fill="none" stroke="#000" stroke-linecap="round" stroke-linejoin="round" stroke-miterlimit="10" stroke-width="1"/>
        <path id="Trazado_901345" data-name="Trazado 901345" d="M142.481,350.471l1.031-6.786a1.345,1.345,0,0,1,.217-.554l4.521-6.658a1.345,1.345,0,0,1,.645-.506l8.129-3.017" transform="translate(-124.654 -289.494)" fill="none" stroke="#000" stroke-linecap="round" stroke-linejoin="round" stroke-miterlimit="10" stroke-width="1"/>
        <path id="Trazado_901346" data-name="Trazado 901346" d="M63.506,109.815l3.378,5.191a1.346,1.346,0,0,1,.191,1l-.749,3.711a1.346,1.346,0,0,0,.313,1.16l2.994,3.367a1.346,1.346,0,0,1,.34.872l.065,3.9a1.346,1.346,0,0,1-.514,1.08l-3.578,2.813a1.345,1.345,0,0,0-.421.567l-1.434,3.658a1.346,1.346,0,0,0,.065,1.124l2.874,5.4a1.346,1.346,0,0,1-.324,1.664L63.147,148.3" transform="translate(-55.995 -96.384)" fill="none" stroke="#000" stroke-linecap="round" stroke-linejoin="round" stroke-miterlimit="10" stroke-width="1"/>
        <path id="Trazado_901347" data-name="Trazado 901347" d="M233.762,17.481,230.8,24.564a1.346,1.346,0,0,0-.1.662l.505,4.75a1.346,1.346,0,0,0,1.369,1.2l3.756-.085a1.346,1.346,0,0,0,1.238-.9l4.13-11.64" transform="translate(-200.999 -16.474)" fill="none" stroke="#000" stroke-linecap="round" stroke-linejoin="round" stroke-miterlimit="10" stroke-width="1"/>
        <path id="Trazado_901348" data-name="Trazado 901348" d="M52.305,74.737A33.033,33.033,0,1,1,68.133,21.578" transform="translate(-10 -10)" fill="none" stroke="#000" stroke-linecap="round" stroke-linejoin="round" stroke-miterlimit="10" stroke-width="1"/>
        <path id="Trazado_901349" data-name="Trazado 901349" d="M486.851,173.461a32.877,32.877,0,0,1,1.294,17.3q-.3,1.54-.729,3.018" transform="translate(-422.685 -151.465)" fill="none" stroke="#000" stroke-linecap="round" stroke-linejoin="round" stroke-miterlimit="10" stroke-width="1"/>
        <line id="Línea_616" data-name="Línea 616" transform="translate(61.634 16.488)" fill="none" stroke="#000" stroke-linecap="round" stroke-linejoin="round" stroke-miterlimit="10" stroke-width="1"/>
      </g>
    </g>
  </g>
</svg>
