<svg xmlns="http://www.w3.org/2000/svg" width="85" height="85" viewBox="0 0 85 85">
  <g id="Grupo_1109973" data-name="Grupo 1109973" transform="translate(-743.051 -1747)">
    <rect id="Rectángulo_403131" data-name="Rectángulo 403131" width="85" height="85" transform="translate(743.051 1747)" fill="none"/>
    <g id="Grupo_1109967" data-name="Grupo 1109967" transform="translate(754.823 1762)">
      <g id="Grupo_1109966" data-name="Grupo 1109966" transform="translate(1.181 1.181)">
        <path id="Trazado_901122" data-name="Trazado 901122" d="M10,14.723H68.094V12.5a2.508,2.508,0,0,0-2.5-2.5H12.5A2.508,2.508,0,0,0,10,12.5Zm0,0" transform="translate(-10 -10)" fill="#cdd3e0" fill-rule="evenodd"/>
        <path id="Trazado_901123" data-name="Trazado 901123" d="M10,50H68.094V83.061H10Zm0,0" transform="translate(-10 -45.277)" fill="#99ebfb" fill-rule="evenodd"/>
        <path id="Trazado_901124" data-name="Trazado 901124" d="M68.094,330H10v2.223a2.508,2.508,0,0,0,2.5,2.5H65.593a2.508,2.508,0,0,0,2.5-2.5Zm0,0" transform="translate(-10 -292.215)" fill="#cdd3e0" fill-rule="evenodd"/>
        <path id="Trazado_901125" data-name="Trazado 901125" d="M216.627,370h-9.446L206,379.446h11.808Zm0,0" transform="translate(-182.857 -327.492)" fill="#8690af" fill-rule="evenodd"/>
        <path id="Trazado_901126" data-name="Trazado 901126" d="M50,90H98.648v23.615H50Zm0,0" transform="translate(-45.277 -80.557)" fill="#cfcdf5" fill-rule="evenodd"/>
        <path id="Trazado_901127" data-name="Trazado 901127" d="M233.085,163.542A3.542,3.542,0,1,1,229.542,160,3.542,3.542,0,0,1,233.085,163.542Zm0,0" transform="translate(-200.495 -142.288)" fill="#8481e2" fill-rule="evenodd"/>
        <path id="Trazado_901128" data-name="Trazado 901128" d="M167.875,137.085a3.542,3.542,0,1,1-3.542-3.542A3.542,3.542,0,0,1,167.875,137.085Zm8.731,0a14.173,14.173,0,0,0-24.546,0,14.173,14.173,0,0,0,24.546,0Zm0,0" transform="translate(-135.285 -115.831)" fill="#fbf7f6" fill-rule="evenodd"/>
      </g>
      <path id="Trazado_901129" data-name="Trazado 901129" d="M56.774,0h-40.1a1.181,1.181,0,0,0,0,2.362h40.1a1.321,1.321,0,0,1,1.32,1.32V4.723H2.361V3.681a1.321,1.321,0,0,1,1.32-1.32H6.043A1.181,1.181,0,0,0,6.043,0H3.681A3.685,3.685,0,0,0,0,3.681V41.188a3.685,3.685,0,0,0,3.681,3.681H24.167l-.886,7.085H19.6a1.181,1.181,0,1,0,0,2.362H40.854a1.181,1.181,0,0,0,0-2.362H37.174l-.886-7.085H56.774a3.685,3.685,0,0,0,3.681-3.681V3.681A3.685,3.685,0,0,0,56.774,0ZM34.794,51.954H25.661l.886-7.085h7.361Zm21.98-9.446H3.681a1.321,1.321,0,0,1-1.32-1.32V40.146H43.925a1.181,1.181,0,1,0,0-2.362H2.361V7.085H58.094v30.7H54.551a1.181,1.181,0,0,0,0,2.362h3.542v1.042a1.321,1.321,0,0,1-1.32,1.32Zm0,0"/>
      <path id="Trazado_901130" data-name="Trazado 901130" d="M87.357,2.362a1.181,1.181,0,1,0,0-2.362h0a1.181,1.181,0,1,0,0,2.362Zm0,0" transform="translate(-76.001)"/>
      <path id="Trazado_901131" data-name="Trazado 901131" d="M408.181,320h0a1.181,1.181,0,1,0,1.182,1.181A1.18,1.18,0,0,0,408.18,320Zm0,0" transform="translate(-358.943 -282.215)"/>
      <path id="Trazado_901132" data-name="Trazado 901132" d="M155.51,120a15.408,15.408,0,0,0-13.3,7.674,1.183,1.183,0,0,0,0,1.183,15.354,15.354,0,0,0,26.591,0,1.18,1.18,0,0,0,0-1.183A15.407,15.407,0,0,0,155.51,120Zm0,14.169a13.04,13.04,0,0,1-10.888-5.9,12.991,12.991,0,0,1,21.775,0A13.042,13.042,0,0,1,155.51,134.169Zm0,0" transform="translate(-125.283 -105.831)"/>
      <path id="Trazado_901133" data-name="Trazado 901133" d="M220.723,150a4.723,4.723,0,1,0,4.723,4.723A4.729,4.729,0,0,0,220.723,150Zm0,7.085a2.362,2.362,0,1,1,2.362-2.362A2.364,2.364,0,0,1,220.723,157.085Zm0,0" transform="translate(-190.496 -132.288)"/>
      <path id="Trazado_901134" data-name="Trazado 901134" d="M45.9,80H41.181A1.181,1.181,0,0,0,40,81.181V85.9a1.181,1.181,0,1,0,2.362,0V82.362H45.9A1.181,1.181,0,0,0,45.9,80Zm0,0" transform="translate(-35.277 -70.554)"/>
      <path id="Trazado_901135" data-name="Trazado 901135" d="M45.9,244.72H42.362v-3.543a1.181,1.181,0,1,0-2.362,0V245.9a1.181,1.181,0,0,0,1.181,1.181H45.9a1.181,1.181,0,0,0,0-2.362Zm0,0" transform="translate(-35.277 -211.658)"/>
      <path id="Trazado_901136" data-name="Trazado 901136" d="M413.177,82.362h3.542V85.9a1.181,1.181,0,1,0,2.362,0V81.181A1.181,1.181,0,0,0,417.9,80h-4.724a1.181,1.181,0,1,0,0,2.362Zm0,0" transform="translate(-363.349 -70.554)"/>
      <path id="Trazado_901137" data-name="Trazado 901137" d="M413.177,247.081H417.9a1.181,1.181,0,0,0,1.181-1.181v-4.724a1.181,1.181,0,1,0-2.362,0v3.543h-3.543a1.181,1.181,0,1,0,0,2.362Zm0,0" transform="translate(-363.349 -211.658)"/>
    </g>
  </g>
</svg>
