<svg xmlns="http://www.w3.org/2000/svg" width="85" height="85" viewBox="0 0 85 85">
  <g id="Grupo_1109972" data-name="Grupo 1109972" transform="translate(-1161.051 -1747)">
    <rect id="Rectángulo_403132" data-name="Rectángulo 403132" width="85" height="85" transform="translate(1161.051 1747)" fill="none"/>
    <g id="Grupo_1109971" data-name="Grupo 1109971" transform="translate(1171.985 1752.043)">
      <g id="Grupo_1109970" data-name="Grupo 1109970" transform="translate(1.781 20.207)">
        <path id="Trazado_901138" data-name="Trazado 901138" d="M262.07,131.57V115.147l.275.034a8.24,8.24,0,0,1,0,16.355Z" transform="translate(-231.697 -115.147)" fill="#03a9f4" fill-rule="evenodd"/>
        <path id="Trazado_901139" data-name="Trazado 901139" d="M73.346,355.428v2.435a2.432,2.432,0,0,1-2.43,2.429H16.5a2.432,2.432,0,0,1-2.429-2.429v-2.435Z" transform="translate(-14.07 -326)" fill="#03a9f4" fill-rule="evenodd"/>
        <path id="Trazado_901140" data-name="Trazado 901140" d="M208.913,464.5a.963.963,0,0,1,.963.961v2.29H194.89v-2.29a.963.963,0,0,1,.962-.961Z" transform="translate(-172.745 -421.714)" fill="#03a9f4" fill-rule="evenodd"/>
      </g>
      <path id="Trazado_901141" data-name="Trazado 901141" d="M39.31,40.126a.98.98,0,0,1-1.7.98l-.618-1.072a.98.98,0,0,1,1.7-.979l.619,1.071ZM23.528,16.711a.98.98,0,1,1,1.7-.98l.619,1.072a.98.98,0,1,1-1.7.98Zm-5.155,4.176a.979.979,0,0,1,1.339-.359l1.07.619a.98.98,0,0,1-.49,1.828,1,1,0,0,1-.49-.13l-1.071-.62a.98.98,0,0,1-.358-1.338ZM41.7,34.353a.98.98,0,0,1,1.339-.359l1.071.619a.98.98,0,0,1-.979,1.7l-1.072-.62a.98.98,0,0,1-.359-1.338ZM16.355,28.419a.98.98,0,0,1,.98-.98h1.239a.98.98,0,1,1,0,1.96H17.335a.98.98,0,0,1-.98-.98Zm27.909-.98H45.5a.98.98,0,1,1,0,1.96h-1.24a.98.98,0,1,1,0-1.96ZM41.7,22.485a.981.981,0,0,1,.359-1.338l1.072-.619a.98.98,0,0,1,.979,1.7l-1.071.62A.982.982,0,0,1,41.7,22.485ZM21.141,34.353a.979.979,0,0,1-.359,1.338l-1.07.62a.98.98,0,1,1-.98-1.7l1.07-.619a.98.98,0,0,1,1.339.359Zm4.7,5.681-.619,1.072a.98.98,0,0,1-1.7-.98l.619-1.071a.98.98,0,1,1,1.7.979ZM36.995,16.8l.618-1.072a.98.98,0,0,1,1.7.98l-.619,1.072a.98.98,0,1,1-1.7-.98ZM30.44,15.574V14.335a.98.98,0,1,1,1.96,0v1.239a.98.98,0,1,1-1.96,0Zm1.96,25.69V42.5a.98.98,0,1,1-1.96,0V41.264a.98.98,0,1,1,1.96,0Zm-1.96-20.78V36.353a7.994,7.994,0,0,1,0-15.869Zm8.976,7.935A8.006,8.006,0,0,1,32.4,36.353V20.484a8.007,8.007,0,0,1,7.017,7.935Zm-8,9.956a9.956,9.956,0,1,0-9.957-9.956A9.956,9.956,0,0,0,31.419,38.375ZM58.627,54.254H4.21A2.187,2.187,0,0,1,2.026,52.07V49.88H60.812v2.19a2.186,2.186,0,0,1-2.185,2.184Zm-24.72,7.025H28.932V56.213h4.974Zm4.76,2.676V66h-14.5V63.954a.718.718,0,0,1,.718-.716h13.06a.718.718,0,0,1,.718.716ZM4.21,8.916A2.187,2.187,0,0,0,2.026,11.1v36.82H60.812V11.1a2.186,2.186,0,0,0-2.185-2.184Zm54.417-1.96H4.21A4.148,4.148,0,0,0,.066,11.1V52.07A4.148,4.148,0,0,0,4.21,56.213H26.972v5.066H24.889a2.68,2.68,0,0,0-2.677,2.676v3.024a.98.98,0,0,0,.98.98H39.647a.981.981,0,0,0,.98-.98V63.954a2.68,2.68,0,0,0-2.677-2.676H35.867V56.213h22.76a4.148,4.148,0,0,0,4.145-4.143V11.1a4.149,4.149,0,0,0-4.145-4.143Z" fill-rule="evenodd"/>
    </g>
  </g>
</svg>
