<svg xmlns="http://www.w3.org/2000/svg" width="84.101" height="78.494" viewBox="0 0 84.101 78.494">
  <g id="Grupo_1109974" data-name="Grupo 1109974" transform="translate(0 -2)">
    <g id="Color" transform="translate(1.614 3.189)">
      <rect id="Rect치ngulo_403133" data-name="Rect치ngulo 403133" width="80" height="61" rx="6" transform="translate(0.437 0.058)" fill="#02a9f4"/>
      <path id="Trazado_901142" data-name="Trazado 901142" d="M54.205,3H50a8.41,8.41,0,0,1,8.41,8.41V54.862A8.41,8.41,0,0,1,50,63.272h4.205a8.41,8.41,0,0,0,8.41-8.41V11.41A8.41,8.41,0,0,0,54.205,3Z" transform="translate(18.47 -2.787)" fill="#0377bc"/>
      <path id="Trazado_901143" data-name="Trazado 901143" d="M44.5,55.812A10.035,10.035,0,0,1,40.292,46H26.166a10.035,10.035,0,0,1-4.205,9.812Z" transform="translate(7.208 14.485)" fill="#607d8b"/>
      <path id="Trazado_901144" data-name="Trazado 901144" d="M36.279,46H32.074a10.035,10.035,0,0,0,4.205,9.812h4.205A10.035,10.035,0,0,1,36.279,46Z" transform="translate(11.221 14.485)" fill="#37474f"/>
      <rect id="Rect치ngulo_403134" data-name="Rect치ngulo 403134" width="36" height="6" rx="2" transform="translate(22.437 70.058)" fill="#7f8e94"/>
      <path id="Trazado_901145" data-name="Trazado 901145" d="M42.205,53H38a2.8,2.8,0,0,1,0,5.607h4.205a2.8,2.8,0,1,0,0-5.607Z" transform="translate(13.65 17.297)" fill="#545c60"/>
      <ellipse id="Elipse_11544" data-name="Elipse 11544" cx="11" cy="10.5" rx="11" ry="10.5" transform="translate(29.437 19.058)" fill="#ffdf00"/>
      <path id="Trazado_901146" data-name="Trazado 901146" d="M30.6,16a11.292,11.292,0,0,0-2.1.2,11.213,11.213,0,0,1,0,22.02A11.213,11.213,0,1,0,30.6,16Z" transform="translate(9.834 2.434)" fill="#fec108"/>
    </g>
    <g id="Outline" transform="translate(0 2)">
      <path id="Trazado_901147" data-name="Trazado 901147" d="M74.289,2H9.812A9.823,9.823,0,0,0,0,11.812V55.264a9.823,9.823,0,0,0,9.812,9.812H33.7a8.315,8.315,0,0,1-3.374,7.008H26.632a4.205,4.205,0,0,0,0,8.41H57.469a4.205,4.205,0,0,0,0-8.41H53.776A8.315,8.315,0,0,1,50.4,65.076H74.289A9.823,9.823,0,0,0,84.1,55.264V11.812A9.823,9.823,0,0,0,74.289,2ZM58.871,76.289a1.4,1.4,0,0,1-1.4,1.4H26.632a1.4,1.4,0,1,1,0-2.8H57.469A1.4,1.4,0,0,1,58.871,76.289Zm-9.086-4.205H34.316A11.505,11.505,0,0,0,36.5,65.076H47.6A11.5,11.5,0,0,0,49.785,72.084ZM81.3,55.264a7.017,7.017,0,0,1-7.008,7.008H9.812A7.017,7.017,0,0,1,2.8,55.264V11.812A7.017,7.017,0,0,1,9.812,4.8H74.289A7.017,7.017,0,0,1,81.3,11.812Z" transform="translate(0 -2)"/>
      <path id="Trazado_901148" data-name="Trazado 901148" d="M33.615,15A12.615,12.615,0,1,0,46.23,27.615,12.615,12.615,0,0,0,33.615,15Zm0,22.427a9.812,9.812,0,1,1,9.812-9.812,9.812,9.812,0,0,1-9.812,9.812Z" transform="translate(8.435 3.222)"/>
      <path id="Trazado_901149" data-name="Trazado 901149" d="M30.4,14.607a1.4,1.4,0,0,0,1.4-1.4V10.4a1.4,1.4,0,1,0-2.8,0v2.8A1.4,1.4,0,0,0,30.4,14.607Z" transform="translate(11.649 0.812)"/>
      <path id="Trazado_901150" data-name="Trazado 901150" d="M30.4,35A1.4,1.4,0,0,0,29,36.4v2.8a1.4,1.4,0,0,0,2.8,0V36.4A1.4,1.4,0,0,0,30.4,35Z" transform="translate(11.649 11.256)"/>
      <path id="Trazado_901151" data-name="Trazado 901151" d="M23.59,15.407a1.4,1.4,0,1,0,2.428-1.4l-1.4-2.429a1.4,1.4,0,1,0-2.428,1.4Z" transform="translate(8.837 1.565)"/>
      <path id="Trazado_901152" data-name="Trazado 901152" d="M37.616,34.093a1.4,1.4,0,1,0-2.428,1.4l1.4,2.429a1.4,1.4,0,1,0,2.428-1.4Z" transform="translate(14.059 10.61)"/>
      <path id="Trazado_901153" data-name="Trazado 901153" d="M21.407,17.59l-2.429-1.4a1.4,1.4,0,1,0-1.4,2.428l2.429,1.4a1.4,1.4,0,1,0,1.4-2.428Z" transform="translate(6.778 3.624)"/>
      <path id="Trazado_901154" data-name="Trazado 901154" d="M43.924,30.59l-2.429-1.4a1.4,1.4,0,1,0-1.4,2.428l2.429,1.4a1.4,1.4,0,1,0,1.4-2.428Z" transform="translate(15.823 8.845)"/>
      <path id="Trazado_901155" data-name="Trazado 901155" d="M20.607,24.4a1.4,1.4,0,0,0-1.4-1.4H16.4a1.4,1.4,0,0,0,0,2.8h2.8A1.4,1.4,0,0,0,20.607,24.4Z" transform="translate(6.025 6.435)"/>
      <path id="Trazado_901156" data-name="Trazado 901156" d="M45.205,23H42.4a1.4,1.4,0,1,0,0,2.8h2.8a1.4,1.4,0,1,0,0-2.8Z" transform="translate(16.469 6.435)"/>
      <path id="Trazado_901157" data-name="Trazado 901157" d="M20.005,29.188l-2.429,1.4a1.4,1.4,0,1,0,1.4,2.428l2.429-1.4a1.4,1.4,0,1,0-1.4-2.428Z" transform="translate(6.778 8.845)"/>
      <path id="Trazado_901158" data-name="Trazado 901158" d="M40.795,20.205a1.4,1.4,0,0,0,.7-.188l2.429-1.4a1.4,1.4,0,1,0-1.4-2.428l-2.429,1.4a1.4,1.4,0,0,0,.7,2.616Z" transform="translate(15.823 3.624)"/>
      <path id="Trazado_901159" data-name="Trazado 901159" d="M25.5,33.58a1.4,1.4,0,0,0-1.915.513l-1.4,2.429a1.4,1.4,0,1,0,2.428,1.4l1.4-2.429A1.4,1.4,0,0,0,25.5,33.58Z" transform="translate(8.837 10.61)"/>
      <path id="Trazado_901160" data-name="Trazado 901160" d="M35.7,15.92a1.4,1.4,0,0,0,1.915-.513l1.4-2.429a1.4,1.4,0,1,0-2.428-1.4l-1.4,2.429A1.4,1.4,0,0,0,35.7,15.92Z" transform="translate(14.059 1.565)"/>
    </g>
  </g>
</svg>
