<svg xmlns="http://www.w3.org/2000/svg" width="85" height="85" viewBox="0 0 85 85">
  <g id="Grupo_1109980" data-name="Grupo 1109980" transform="translate(-1335.051 -384)">
    <g id="Layer_x0020_1" transform="translate(1344.051 393.995)">
      <path id="Trazado_901171" data-name="Trazado 901171" d="M30.692,51.791V43.314a.78.78,0,0,1,.217-1.526h4.4a.78.78,0,0,1,.217,1.526v8.476H37.2v-3.1a.776.776,0,0,1,.356-.652c6.85-4.418,3.714-15.126-4.449-15.126s-11.3,10.707-4.448,15.126a.776.776,0,0,1,.355.652v3.1h1.679ZM53.476,12.555c-.579,0-1.613.148-1.613-.776,0-1.092,2.389-1.092,2.389,0a.776.776,0,0,1-.776.776Zm-3.715,0H46.068a.776.776,0,0,1,0-1.552h3.693A.776.776,0,0,1,49.761,12.555Zm3.715-2.611H49.137a.776.776,0,0,1,0-1.552h4.339A.776.776,0,0,1,53.476,9.943Zm-6.571,0c-.579,0-1.613.148-1.613-.776,0-1.092,2.389-1.092,2.389,0A.776.776,0,0,1,46.905,9.943Zm6.571-2.611c-.579,0-1.613.148-1.613-.776,0-1.092,2.389-1.092,2.389,0a.776.776,0,0,1-.776.776Zm-3.069,0H46.068a.776.776,0,0,1,0-1.552h4.339a.776.776,0,0,1,0,1.552Zm3.069-2.611H49.137a.776.776,0,0,1,0-1.552h4.339A.776.776,0,0,1,53.476,4.721Zm-6.571,0c-.579,0-1.613.148-1.613-.776,0-1.092,2.389-1.092,2.389,0A.776.776,0,0,1,46.905,4.721Zm7.885,10.7H50.548V18h5.445a4.467,4.467,0,0,1,4.462,4.462V55.476h4.984a.777.777,0,0,1,.776.776v4.416a5.2,5.2,0,0,1-5.192,5.193H5.193A5.2,5.2,0,0,1,0,60.669V56.253a.776.776,0,0,1,.776-.776H5.76V22.462A4.467,4.467,0,0,1,10.222,18h5.447V15.38a7.707,7.707,0,1,1,1.552,0V18H49V15.419H44.754a1.677,1.677,0,0,1-1.675-1.675V1.98A1.677,1.677,0,0,1,44.754.305H54.79A1.677,1.677,0,0,1,56.465,1.98V13.743a1.677,1.677,0,0,1-1.675,1.675ZM44.754,1.857a.127.127,0,0,0-.123.123V13.744a.126.126,0,0,0,.123.123H54.79a.127.127,0,0,0,.123-.123V1.98a.126.126,0,0,0-.123-.123H44.754ZM16.445,12.605c-.487,0-.757-.479-.81-1.01-1.311-.481-2.012-2.01-.987-2.4s.829.988,1.789,1h.018a.851.851,0,0,0,.841-.851c0-1.555-3.253-.173-3.253-3.253a2.3,2.3,0,0,1,1.591-2.249c.051-.535.322-1.018.811-1.018s.753.472.81,1a2.286,2.286,0,0,1,1.49,1.57.776.776,0,0,1-1.485.451.852.852,0,0,0-1.665.247c0,1.555,3.252.173,3.253,3.253A2.4,2.4,0,0,1,17.255,11.6c-.055.529-.324,1.005-.81,1.005Zm0-11.049A6.155,6.155,0,1,0,22.6,7.712a6.162,6.162,0,0,0-6.155-6.156Zm4.332,38.919H16.445a.777.777,0,0,1-.776-.776V23.238H11V51.791H27.463V49.106c-7.72-5.465-3.854-17.742,5.645-17.742S46.472,43.64,38.752,49.106v2.685H55.218V23.238H50.548V39.7a.776.776,0,0,1-.776.776H45.44a.776.776,0,0,1,0-1.552H49V23.238H17.221V38.924h3.556a.776.776,0,0,1,0,1.552Zm-5.108-18.79V19.552H10.222a2.914,2.914,0,0,0-2.91,2.91V55.476H58.9V22.462a2.914,2.914,0,0,0-2.91-2.91H50.548v2.134H55.99a.784.784,0,0,1,.781.781l0,30.1a.776.776,0,0,1-.775.776H10.222a.777.777,0,0,1-.776-.776v-30.1a.78.78,0,0,1,.779-.779h5.445Zm1.552-2.134v2.134H49V19.552ZM56.657,63.442c-3.649,0-3.649-5.546,0-5.546S60.306,63.442,56.657,63.442Zm0-3.994a1.221,1.221,0,0,0,0,2.442A1.221,1.221,0,0,0,56.657,59.448Zm-7.736,3.994c-3.65,0-3.649-5.546,0-5.546S52.571,63.442,48.921,63.442Zm0-3.994a1.221,1.221,0,0,0,0,2.442A1.221,1.221,0,0,0,48.921,59.448ZM17.3,63.442c-3.649,0-3.65-5.546,0-5.546S20.945,63.442,17.3,63.442Zm0-3.994a1.221,1.221,0,0,0,0,2.442A1.221,1.221,0,0,0,17.3,59.448ZM9.559,63.442c-3.649,0-3.65-5.546,0-5.546S13.208,63.442,9.559,63.442Zm0-3.994a1.221,1.221,0,0,0,0,2.442A1.221,1.221,0,0,0,9.559,59.448ZM41.632,61.4H24.584a.776.776,0,0,1-.776-.776v-3.6H1.552v3.64a3.644,3.644,0,0,0,3.64,3.64h55.83a3.644,3.644,0,0,0,3.641-3.64V57.029H42.408v3.6a.777.777,0,0,1-.777.776ZM25.36,59.849h15.5v-2.82H25.36Zm8.612-8.059V43.34H32.244v8.45Zm-7.61-20.137a.776.776,0,0,1-.673-.388l-1.474-2.554a.776.776,0,0,1,1.344-.776l1.474,2.554a.777.777,0,0,1-.671,1.164Zm-4.941,4.939a17.767,17.767,0,0,1-2.941-1.578.776.776,0,0,1,.776-1.344l2.554,1.474a.777.777,0,0,1-.389,1.448ZM19.614,43.34H16.664a.776.776,0,0,1,0-1.552h2.949A.776.776,0,0,1,19.614,43.34Zm29.938,0H46.6a.776.776,0,0,1,0-1.552h2.949A.776.776,0,0,1,49.551,43.34Zm-4.757-6.748a.778.778,0,0,1-.389-1.449L46.96,33.67a.776.776,0,0,1,.776,1.344,17.684,17.684,0,0,1-2.942,1.579Zm-4.94-4.939a.777.777,0,0,1-.671-1.164l1.474-2.554A.776.776,0,0,1,42,28.711l-1.474,2.554a.776.776,0,0,1-.673.388Zm-6.747-1.808a.776.776,0,0,1-.776-.776V26.12a.776.776,0,0,1,1.552,0v2.949A.777.777,0,0,1,33.108,29.845Z" transform="translate(0 0)" fill="#000002" fill-rule="evenodd"/>
      <path id="Trazado_901172" data-name="Trazado 901172" d="M.265,6.2A6.155,6.155,0,1,0,6.42.045,6.162,6.162,0,0,0,.265,6.2Zm5.344,3.884C4.3,9.6,3.6,8.074,4.622,7.681s.829.988,1.789,1h.018a.851.851,0,0,0,.841-.851c0-1.555-3.253-.173-3.253-3.253A2.3,2.3,0,0,1,5.608,2.325c.051-.535.322-1.018.811-1.018s.753.472.81,1a2.286,2.286,0,0,1,1.49,1.57.776.776,0,0,1-1.485.451.852.852,0,0,0-1.665.247c0,1.555,3.252.173,3.253,3.253A2.4,2.4,0,0,1,7.23,10.089c-.055.529-.324,1.005-.81,1.005s-.757-.479-.81-1.01Z" transform="translate(10.025 1.512)" fill="#fedb41" fill-rule="evenodd"/>
      <path id="Trazado_901173" data-name="Trazado 901173" d="M6.28,9.2a.776.776,0,0,1,0,1.552H2.587a.776.776,0,0,1,0-1.552ZM1.15.176V11.939a.126.126,0,0,0,.123.123H11.309a.127.127,0,0,0,.123-.123V.176a.126.126,0,0,0-.123-.123H1.273A.127.127,0,0,0,1.15.176ZM10,10.75c-.579,0-1.613.148-1.613-.776,0-1.092,2.389-1.092,2.389,0A.776.776,0,0,1,10,10.75Zm0-2.611H5.656a.776.776,0,0,1,0-1.552H10A.776.776,0,0,1,10,8.139Zm-6.571,0c-.579,0-1.613.148-1.613-.776,0-1.092,2.389-1.092,2.389,0A.776.776,0,0,1,3.425,8.139ZM10,5.528c-.579,0-1.613.148-1.613-.776,0-1.092,2.389-1.092,2.389,0A.776.776,0,0,1,10,5.528Zm-3.069,0H2.587a.776.776,0,0,1,0-1.552H6.927a.776.776,0,0,1,0,1.552ZM10,2.917H5.656a.776.776,0,0,1,0-1.552H10A.776.776,0,0,1,10,2.917Zm-6.571,0c-.579,0-1.613.148-1.613-.776,0-1.092,2.389-1.092,2.389,0A.776.776,0,0,1,3.425,2.917Z" transform="translate(43.481 1.805)" fill="#5d536e" fill-rule="evenodd"/>
      <path id="Trazado_901174" data-name="Trazado 901174" d="M48.871.508H43.425V2.643h5.442a.784.784,0,0,1,.781.781l0,30.1a.776.776,0,0,1-.775.776H3.1a.777.777,0,0,1-.776-.776V3.422A.78.78,0,0,1,3.1,2.643H8.546V.508H3.1a2.914,2.914,0,0,0-2.91,2.91V36.433H51.781V3.419a2.914,2.914,0,0,0-2.91-2.91Z" transform="translate(7.123 19.043)" fill="#e6e6e6" fill-rule="evenodd"/>
      <path id="Trazado_901175" data-name="Trazado 901175" d="M38.282.6H6.507V16.289h3.556a.776.776,0,0,1,0,1.552H5.731a.777.777,0,0,1-.776-.776V.6H.284V29.156H16.748V26.471c-7.72-5.465-3.854-17.742,5.645-17.742s13.365,12.276,5.645,17.742v2.685H44.5V.6H39.834V17.065a.776.776,0,0,1-.776.776H34.725a.776.776,0,0,1,0-1.552h3.556V.6ZM23.169,3.486V6.435a.776.776,0,0,1-1.552,0V3.486a.776.776,0,0,1,1.552,0ZM14.843,5.3l1.474,2.554a.776.776,0,1,1-1.344.776L13.5,6.077A.776.776,0,0,1,14.843,5.3Zm-6.3,5.735,2.554,1.474a.777.777,0,0,1-.389,1.448A17.767,17.767,0,0,1,7.765,12.38a.776.776,0,0,1,.776-1.344ZM8.9,19.154a.776.776,0,0,1,0,1.552H5.95a.776.776,0,0,1,0-1.552Zm19.569-11.3L29.943,5.3a.776.776,0,0,1,1.344.776L29.813,8.631a.776.776,0,1,1-1.344-.776Zm7.419,11.3h2.949a.776.776,0,0,1,0,1.552H35.888A.776.776,0,0,1,35.888,19.154Zm.358-8.118a.776.776,0,0,1,.776,1.344,17.684,17.684,0,0,1-2.942,1.579.778.778,0,0,1-.389-1.449l2.554-1.474Z" transform="translate(10.714 22.635)" fill="#fff" fill-rule="evenodd"/>
      <path id="Trazado_901176" data-name="Trazado 901176" d="M13.295,15.979C20.145,11.561,17.009.853,8.846.853S-2.454,11.559,4.4,15.979a.776.776,0,0,1,.355.652v3.1H6.432V11.252a.78.78,0,0,1,.217-1.526h4.4a.78.78,0,0,1,.217,1.526v8.476h1.677v-3.1a.776.776,0,0,1,.356-.652Z" transform="translate(24.26 32.062)" fill="#fedb41" fill-rule="evenodd"/>
      <path id="Trazado_901177" data-name="Trazado 901177" d="M2.558,9.572V1.122H.831v8.45Z" transform="translate(31.413 42.219)" fill="#fedb41" fill-rule="evenodd"/>
      <path id="Trazado_901178" data-name="Trazado 901178" d="M.444,2.643H32.219V.508H.444Z" transform="translate(16.777 19.043)" fill="#e6e6e6" fill-rule="evenodd"/>
      <path id="Trazado_901179" data-name="Trazado 901179" d="M1.421,3.979a1.221,1.221,0,0,0,0-2.442A1.221,1.221,0,0,0,1.421,3.979Z" transform="translate(8.138 57.912)" fill="#f6e266" fill-rule="evenodd"/>
      <path id="Trazado_901180" data-name="Trazado 901180" d="M1.62,1.537a1.221,1.221,0,0,0,0,2.442A1.221,1.221,0,0,0,1.62,1.537Z" transform="translate(15.675 57.912)" fill="#dd636e" fill-rule="evenodd"/>
      <path id="Trazado_901181" data-name="Trazado 901181" d="M15.783,2.342c3.649,0,3.65,5.546,0,5.546S12.133,2.342,15.783,2.342ZM22.3,5.071v-3.6H.04v3.64a3.644,3.644,0,0,0,3.64,3.64h55.83a3.644,3.644,0,0,0,3.641-3.64V1.474H40.9v3.6a.777.777,0,0,1-.777.776H23.072a.776.776,0,0,1-.776-.776ZM47.409,7.888c-3.65,0-3.649-5.546,0-5.546S51.058,7.888,47.409,7.888Zm7.736,0c-3.649,0-3.649-5.546,0-5.546S58.794,7.888,55.145,7.888ZM8.047,2.342c3.649,0,3.65,5.546,0,5.546S4.4,2.342,8.047,2.342Z" transform="translate(1.512 55.555)" fill="silver" fill-rule="evenodd"/>
      <path id="Trazado_901182" data-name="Trazado 901182" d="M.654,1.474v2.82h15.5V1.474Z" transform="translate(24.706 55.555)" fill="#989898" fill-rule="evenodd"/>
      <path id="Trazado_901183" data-name="Trazado 901183" d="M2.435,1.537a1.221,1.221,0,0,0,0,2.442A1.221,1.221,0,0,0,2.435,1.537Z" transform="translate(46.486 57.912)" fill="#00c27a" stroke="#00c27a" stroke-width="0.003" fill-rule="evenodd"/>
      <path id="Trazado_901184" data-name="Trazado 901184" d="M2.634,1.537a1.221,1.221,0,0,0,0,2.442A1.221,1.221,0,0,0,2.634,1.537Z" transform="translate(54.023 57.912)" fill="#4073c8" fill-rule="evenodd"/>
    </g>
    <rect id="Rectángulo_403136" data-name="Rectángulo 403136" width="85" height="85" transform="translate(1335.051 384)" fill="none"/>
  </g>
</svg>
