<svg xmlns="http://www.w3.org/2000/svg" width="77" height="77" viewBox="0 0 77 77">
  <g id="Grupo_1109925" data-name="Grupo 1109925" transform="translate(-189 -871)">
    <rect id="Rectángulo_403130" data-name="Rectángulo 403130" width="77" height="77" transform="translate(189 871)" fill="none"/>
    <g id="Grupo_1109924" data-name="Grupo 1109924" transform="translate(197.741 876.746)">
      <path id="Trazado_901031" data-name="Trazado 901031" d="M70.784,148.537H48.321a4.346,4.346,0,0,1-4.328-3.961L40,104H79.105l-3.993,40.576a4.346,4.346,0,0,1-4.328,3.961Zm0,0" transform="translate(-34.568 -89.879)" fill="#85bc94"/>
      <path id="Trazado_901032" data-name="Trazado 901032" d="M114.07,165.035A13.035,13.035,0,1,1,101.035,152,13.035,13.035,0,0,1,114.07,165.035Zm0,0" transform="translate(-76.051 -131.361)" fill="#c2f9f9"/>
      <path id="Trazado_901033" data-name="Trazado 901033" d="M128.7,256.888h-7.6a1.086,1.086,0,0,1-.938-1.629l1.9-3.259,1.877,1.086-.948,1.629H128.7Zm0,0" transform="translate(-103.72 -217.783)" fill="#99d8aa"/>
      <path id="Trazado_901034" data-name="Trazado 901034" d="M209.83,236.147h-4.345v-2.173h2.454l-2.849-4.888L206.966,228l3.8,6.518a1.086,1.086,0,0,1-.938,1.629Zm0,0" transform="translate(-177.242 -197.042)" fill="#99d8aa"/>
      <path id="Trazado_901035" data-name="Trazado 901035" d="M146.966,185.322l-1.877-1.094,4.345-7.449a1.129,1.129,0,0,1,1.877,0l1.9,3.259-1.877,1.09-.963-1.647Zm0,0" transform="translate(-125.389 -152.342)" fill="#99d8aa"/>
      <path id="Trazado_901036" data-name="Trazado 901036" d="M81.278,62.518H40V56H81.278a1.086,1.086,0,0,1,1.086,1.086v4.345A1.086,1.086,0,0,1,81.278,62.518Zm0,0" transform="translate(-34.569 -48.396)" fill="#6b9777"/>
      <path id="Trazado_901037" data-name="Trazado 901037" d="M86.019,14.518H48l1.677-5.031A2.172,2.172,0,0,1,51.739,8H82.28a2.173,2.173,0,0,1,2.064,1.486Zm0,0" transform="translate(-41.482 -6.914)" fill="#85bc94"/>
      <path id="Trazado_901038" data-name="Trazado 901038" d="M295.9,307.949A11.949,11.949,0,1,1,283.949,296,11.949,11.949,0,0,1,295.9,307.949Zm0,0" transform="translate(-235.067 -255.808)" fill="#fbd699"/>
      <path id="Trazado_901039" data-name="Trazado 901039" d="M330.863,334.518h-5.431V328L320,337.776h5.431v5.431Zm0,0" transform="translate(-276.549 -283.463)" fill="#fbb540"/>
      <g id="Grupo_1109923" data-name="Grupo 1109923" transform="translate(46.709 27.157)">
        <path id="Trazado_901040" data-name="Trazado 901040" d="M344,200h2.172v2.173H344Zm0,0" transform="translate(-344 -200)" fill="#f7ba61"/>
        <path id="Trazado_901041" data-name="Trazado 901041" d="M376,200h2.173v2.173H376Zm0,0" transform="translate(-371.655 -200)" fill="#f7ba61"/>
        <path id="Trazado_901042" data-name="Trazado 901042" d="M408,200h2.173v2.173H408Zm0,0" transform="translate(-399.31 -200)" fill="#f7ba61"/>
        <path id="Trazado_901043" data-name="Trazado 901043" d="M408,232h2.173v2.172H408Zm0,0" transform="translate(-399.31 -227.655)" fill="#f7ba61"/>
        <path id="Trazado_901044" data-name="Trazado 901044" d="M408,264h2.173v2.173H408Zm0,0" transform="translate(-399.31 -255.31)" fill="#f7ba61"/>
      </g>
      <path id="Trazado_901045" data-name="Trazado 901045" d="M113.674,103.894H87.3c.012-.024-.042-.021-.147,0h-3.9L80,110.411h2.1a2.173,2.173,0,0,0,1.808-.968s1.111-1.738,2.117-3.377h27.436Zm0,0" transform="translate(-69.137 -89.772)" fill="#5e8569"/>
      <path id="Trazado_901046" data-name="Trazado 901046" d="M17.7,69.035H10.173A2.173,2.173,0,0,1,8,66.863v-8.69A2.173,2.173,0,0,1,10.173,56H23.208v5.859a2.172,2.172,0,0,1-.365,1.206l-3.335,5a2.173,2.173,0,0,1-1.808.968Zm0,0" transform="translate(-6.914 -48.396)" fill="#6b9777"/>
      <path id="Trazado_901047" data-name="Trazado 901047" d="M70.784,148.537H48.321a4.346,4.346,0,0,1-4.328-3.961L40,104H79.105l-3.993,40.576a4.346,4.346,0,0,1-4.328,3.961Zm0,0" transform="translate(-34.568 -89.879)" fill="#85bc94"/>
      <path id="Trazado_901048" data-name="Trazado 901048" d="M114.07,165.035A13.035,13.035,0,1,1,101.035,152,13.035,13.035,0,0,1,114.07,165.035Zm0,0" transform="translate(-76.051 -131.361)" fill="#c2f9f9"/>
      <path id="Trazado_901049" data-name="Trazado 901049" d="M128.7,256.888h-7.6a1.086,1.086,0,0,1-.938-1.629l1.9-3.259,1.877,1.086-.948,1.629H128.7Zm0,0" transform="translate(-103.72 -217.783)" fill="#99d8aa"/>
      <path id="Trazado_901050" data-name="Trazado 901050" d="M209.83,236.147h-4.345v-2.173h2.454l-2.849-4.888L206.966,228l3.8,6.518a1.086,1.086,0,0,1-.938,1.629Zm0,0" transform="translate(-177.242 -197.042)" fill="#99d8aa"/>
      <path id="Trazado_901051" data-name="Trazado 901051" d="M146.966,185.322l-1.877-1.094,4.345-7.449a1.129,1.129,0,0,1,1.877,0l1.9,3.259-1.877,1.09-.963-1.647Zm0,0" transform="translate(-125.389 -152.342)" fill="#99d8aa"/>
      <path id="Trazado_901052" data-name="Trazado 901052" d="M81.278,62.518H40V56H81.278a1.086,1.086,0,0,1,1.086,1.086v4.345A1.086,1.086,0,0,1,81.278,62.518Zm0,0" transform="translate(-34.569 -48.396)" fill="#6b9777"/>
      <path id="Trazado_901053" data-name="Trazado 901053" d="M86.019,14.518H48l1.677-5.031A2.172,2.172,0,0,1,51.739,8H82.28a2.173,2.173,0,0,1,2.064,1.486Zm0,0" transform="translate(-41.482 -6.914)" fill="#85bc94"/>
      <path id="Trazado_901054" data-name="Trazado 901054" d="M295.9,307.949A11.949,11.949,0,1,1,283.949,296,11.949,11.949,0,0,1,295.9,307.949Zm0,0" transform="translate(-235.067 -255.808)" fill="#fbd699"/>
      <path id="Trazado_901055" data-name="Trazado 901055" d="M330.863,334.518h-5.431V328L320,337.776h5.431v5.431Zm0,0" transform="translate(-276.549 -283.463)" fill="#fbb540"/>
      <path id="Trazado_901056" data-name="Trazado 901056" d="M344,200h2.172v2.173H344Zm0,0" transform="translate(-297.291 -172.843)" fill="#f7ba61"/>
      <path id="Trazado_901057" data-name="Trazado 901057" d="M376,200h2.173v2.173H376Zm0,0" transform="translate(-324.946 -172.843)" fill="#f7ba61"/>
      <path id="Trazado_901058" data-name="Trazado 901058" d="M408,200h2.173v2.173H408Zm0,0" transform="translate(-352.601 -172.843)" fill="#f7ba61"/>
      <path id="Trazado_901059" data-name="Trazado 901059" d="M408,232h2.173v2.172H408Zm0,0" transform="translate(-352.601 -200.498)" fill="#f7ba61"/>
      <path id="Trazado_901060" data-name="Trazado 901060" d="M408,264h2.173v2.173H408Zm0,0" transform="translate(-352.601 -228.153)" fill="#f7ba61"/>
      <path id="Trazado_901061" data-name="Trazado 901061" d="M113.674,103.894H87.3c.012-.024-.042-.021-.147,0h-3.9L80,110.411h2.1a2.173,2.173,0,0,0,1.808-.968s1.111-1.738,2.117-3.377h27.436Zm0,0" transform="translate(-69.137 -89.772)" fill="#5e8569"/>
      <path id="Trazado_901062" data-name="Trazado 901062" d="M17.7,69.035H10.173A2.173,2.173,0,0,1,8,66.863v-8.69A2.173,2.173,0,0,1,10.173,56H23.208v5.859a2.172,2.172,0,0,1-.365,1.206l-3.335,5a2.173,2.173,0,0,1-1.808.968Zm0,0" transform="translate(-6.914 -48.396)" fill="#6b9777"/>
      <path id="Trazado_901063" data-name="Trazado 901063" d="M94.121,144a14.121,14.121,0,1,0,14.121,14.121A14.121,14.121,0,0,0,94.121,144Zm0,26.07a11.949,11.949,0,1,1,11.949-11.949A11.949,11.949,0,0,1,94.121,170.07Zm0,0" transform="translate(-69.137 -124.447)"/>
      <path id="Trazado_901064" data-name="Trazado 901064" d="M123.94,253.086,122.063,252l-1.9,3.259a1.086,1.086,0,0,0,.938,1.629h7.6v-2.173h-5.712Zm0,0" transform="translate(-103.72 -217.783)"/>
      <path id="Trazado_901065" data-name="Trazado 901065" d="M210.768,234.518l-3.8-6.518-1.877,1.086,2.849,4.888h-2.454v2.173h4.345a1.086,1.086,0,0,0,.938-1.629Zm0,0" transform="translate(-177.242 -197.042)"/>
      <path id="Trazado_901066" data-name="Trazado 901066" d="M149.435,176.813l-4.345,7.449,1.877,1.094,3.407-5.846.963,1.651,1.877-1.091-1.9-3.259a1.13,1.13,0,0,0-1.877,0Zm0,0" transform="translate(-125.389 -152.372)"/>
      <path id="Trazado_901067" data-name="Trazado 901067" d="M48.882,39.105a12.937,12.937,0,0,0-5.851,1.4l2.49-25.3h1.189a2.173,2.173,0,0,0,2.173-2.173V8.69a2.173,2.173,0,0,0-2.173-2.173H45.32l-1.43-4.29A3.259,3.259,0,0,0,40.8,0H10.256A3.258,3.258,0,0,0,7.17,2.228L5.734,6.518H3.259A3.259,3.259,0,0,0,0,9.776v8.69a3.259,3.259,0,0,0,3.259,3.259H5.088L8.347,54.794a5.4,5.4,0,0,0,5.405,4.95H36.216a5.409,5.409,0,0,0,1.847-.338,13.035,13.035,0,1,0,10.819-20.3ZM44.537,8.69h2.173v4.345H17.38V8.69ZM9.226,2.916a1.086,1.086,0,0,1,1.03-.743H40.8a1.086,1.086,0,0,1,1.03.743l1.2,3.6H8.024ZM3.259,19.553a1.086,1.086,0,0,1-1.086-1.086V9.776A1.086,1.086,0,0,1,3.259,8.69H15.208v4.779a1.081,1.081,0,0,1-.182.6l-3.335,5a1.089,1.089,0,0,1-.9.478ZM36.216,57.572H13.752a3.245,3.245,0,0,1-3.247-2.98L7.27,21.725h3.517A3.253,3.253,0,0,0,13.5,20.274l3.335-5c.013-.022.023-.045.036-.065H43.342L40.7,42.006A12.975,12.975,0,0,0,37,57.471a3.281,3.281,0,0,1-.783.1ZM48.882,63A10.863,10.863,0,1,1,59.745,52.141,10.862,10.862,0,0,1,48.882,63Zm0,0" transform="translate(0 0)"/>
      <path id="Trazado_901068" data-name="Trazado 901068" d="M323.952,326.523h-4.345v-5.431a1.086,1.086,0,0,0-2.036-.527l-5.431,9.776a1.086,1.086,0,0,0,.949,1.613h4.345V336.3a1.086,1.086,0,0,0,2.008.575l5.431-8.69a1.086,1.086,0,0,0-.921-1.662Zm-4.345,5.99v-1.645a1.086,1.086,0,0,0-1.086-1.086h-3.584l2.5-4.5v2.326a1.086,1.086,0,0,0,1.086,1.086H322Zm0,0" transform="translate(-269.639 -276.555)"/>
      <path id="Trazado_901069" data-name="Trazado 901069" d="M344,200h2.172v2.173H344Zm0,0" transform="translate(-297.291 -172.843)"/>
      <path id="Trazado_901070" data-name="Trazado 901070" d="M376,200h2.173v2.173H376Zm0,0" transform="translate(-324.946 -172.843)"/>
      <path id="Trazado_901071" data-name="Trazado 901071" d="M408,200h2.173v2.173H408Zm0,0" transform="translate(-352.601 -172.843)"/>
      <path id="Trazado_901072" data-name="Trazado 901072" d="M408,232h2.173v2.172H408Zm0,0" transform="translate(-352.601 -200.498)"/>
      <path id="Trazado_901073" data-name="Trazado 901073" d="M408,264h2.173v2.173H408Zm0,0" transform="translate(-352.601 -228.153)"/>
    </g>
  </g>
</svg>
