<svg xmlns="http://www.w3.org/2000/svg" xmlns:xlink="http://www.w3.org/1999/xlink" width="108.914" height="108.914" viewBox="0 0 108.914 108.914">
  <defs>
    <filter id="Trazado_874925" x="0" y="0" width="108.914" height="108.914" filterUnits="userSpaceOnUse">
      <feOffset dy="3" input="SourceAlpha"/>
      <feGaussianBlur stdDeviation="3" result="blur"/>
      <feFlood flood-opacity="0.161"/>
      <feComposite operator="in" in2="blur"/>
      <feComposite in="SourceGraphic"/>
    </filter>
  </defs>
  <g id="Grupo_1109989" data-name="Grupo 1109989" transform="translate(-817.696 -1769.365)">
    <g transform="matrix(1, 0, 0, 1, 817.7, 1769.37)" filter="url(#Trazado_874925)">
      <g id="Trazado_874925-2" data-name="Trazado 874925" transform="translate(9 6)" fill="#de93ea" opacity="0.859">
        <path d="M 45.45676803588867 89.41407012939453 C 39.52198028564453 89.41407012939453 33.76551818847656 88.25206756591797 28.34726715087891 85.96034240722656 C 23.11311721801758 83.74648284912109 18.41204261779785 80.57682800292969 14.37464332580566 76.5394287109375 C 10.33724308013916 72.50202941894531 7.167593002319336 67.80095672607422 4.953730583190918 62.56679534912109 C 2.662005424499512 57.14855575561523 1.500005483627319 51.39208221435547 1.500005483627319 45.45729446411133 C 1.500005483627319 39.52198028564453 2.662005424499512 33.76551818847656 4.953730583190918 28.34726905822754 C 7.167593002319336 23.11310577392578 10.33724308013916 18.41203117370605 14.37464332580566 14.37464332580566 C 18.41204261779785 10.33724403381348 23.11311721801758 7.167593955993652 28.34726715087891 4.953731060028076 C 33.76551818847656 2.662006139755249 39.52198028564453 1.500006198883057 45.45676803588867 1.500006198883057 C 51.39155578613281 1.500006198883057 57.14802932739258 2.662006139755249 62.56626892089844 4.953731060028076 C 67.80043029785156 7.167593955993652 72.50150299072266 10.33724403381348 76.53890228271484 14.37464332580566 C 80.57630920410156 18.41203117370605 83.74595642089844 23.11310577392578 85.95981597900391 28.34726905822754 C 88.25154113769531 33.76551818847656 89.41354370117188 39.52198028564453 89.41354370117188 45.45676803588867 C 89.41354370117188 51.39208221435547 88.25154113769531 57.14855575561523 85.95981597900391 62.56679534912109 C 83.74595642089844 67.80095672607422 80.57630920410156 72.50202941894531 76.53890228271484 76.5394287109375 C 72.50150299072266 80.57682800292969 67.80043029785156 83.74648284912109 62.56626892089844 85.96034240722656 C 57.14802932739258 88.25206756591797 51.39155578613281 89.41407012939453 45.45676803588867 89.41407012939453 Z" stroke="none"/>
        <path d="M 45.45676803588867 3 C 39.72381210327148 3 34.1639404296875 4.12213134765625 28.93159484863281 6.335227966308594 C 23.87622833251953 8.473472595214844 19.33542633056641 11.53517150878906 15.43529510498047 15.435302734375 C 11.53517150878906 19.33543395996094 8.473464965820312 23.87622833251953 6.335227966308594 28.93160247802734 C 4.122123718261719 34.16394424438477 3 39.72381591796875 3 45.4572868347168 C 3 51.19024658203125 4.122123718261719 56.75011825561523 6.335227966308594 61.98246002197266 C 8.473464965820312 67.03782653808594 11.53517150878906 71.57862854003906 15.43529510498047 75.478759765625 C 19.33542633056641 79.37889099121094 23.87622833251953 82.44058990478516 28.93159484863281 84.57883453369141 C 34.1639404296875 86.79193115234375 39.72381210327148 87.9140625 45.45676803588867 87.9140625 C 51.18972396850586 87.9140625 56.74959564208984 86.79193115234375 61.98194122314453 84.57883453369141 C 67.03730773925781 82.44058990478516 71.57810974121094 79.37889099121094 75.47824096679688 75.478759765625 C 79.37837219238281 71.57862854003906 82.44007110595703 67.03782653808594 84.57830810546875 61.98246002197266 C 86.79141235351562 56.75011825561523 87.91353607177734 51.19024658203125 87.91353607177734 45.4567756652832 C 87.91353607177734 39.72381591796875 86.79141235351562 34.16394424438477 84.57830810546875 28.93160247802734 C 82.44007110595703 23.87622833251953 79.37837219238281 19.33543395996094 75.47824096679688 15.435302734375 C 71.57810974121094 11.53517150878906 67.03730773925781 8.473472595214844 61.98194122314453 6.335227966308594 C 56.74959564208984 4.12213134765625 51.18972396850586 3 45.45676803588867 3 M 45.45676803588867 0 C 70.56185150146484 0 90.91353607177734 20.35169219970703 90.91353607177734 45.4567756652832 L 90.91353607177734 45.4572868347168 C 90.91353607177734 70.5623779296875 70.56185150146484 90.9140625 45.45676803588867 90.9140625 C 20.3516845703125 90.9140625 0 70.5623779296875 0 45.4572868347168 L 0 45.4567756652832 C 0 20.35169219970703 20.3516845703125 0 45.45676803588867 0 Z" stroke="none" fill="#fff"/>
      </g>
    </g>
    <g id="Grupo_1109988" data-name="Grupo 1109988" transform="translate(822.227 1789.822)">
      <circle id="Elipse_11546" data-name="Elipse 11546" cx="15.782" cy="15.782" r="15.782" transform="translate(31.321 15.218)" fill="#57a4ff"/>
      <circle id="Elipse_11547" data-name="Elipse 11547" cx="15.782" cy="15.782" r="15.782" transform="translate(31.321 15.218)" fill="#fff"/>
      <path id="Trazado_901185" data-name="Trazado 901185" d="M184.08,199.165l-7.9-9.8,3.868-3.1,4.359,5.4,9.647-10.026,3.576,3.448Z" transform="translate(-136.173 -159.642)" fill="#e0e0e2"/>
      <path id="Trazado_901186" data-name="Trazado 901186" d="M264.842,44.039V31.145h-9.309A21.618,21.618,0,0,0,254,27.457l6.584-6.584-9.117-9.117-6.579,6.579a21.653,21.653,0,0,0-3.694-1.525V7.5H234.75V21.809a15.783,15.783,0,1,1,0,31.565V67.684H241.2v-9.3a21.641,21.641,0,0,0,3.688-1.536l6.584,6.584,6.638-6.638h0l2.479-2.479L254,47.727a21.617,21.617,0,0,0,1.531-3.688Z" transform="translate(-187.646 -6.592)" fill="#ffb655"/>
      <path id="Trazado_901187" data-name="Trazado 901187" d="M37.913,74.945A15.783,15.783,0,0,1,53.7,59.163V50a24.945,24.945,0,0,0,0,49.891V90.728A15.783,15.783,0,0,1,37.913,74.945Z" transform="translate(-6.592 -43.945)" fill="#57a4ff"/>
      <path id="Trazado_901188" data-name="Trazado 901188" d="M154.08,199.165l-7.9-9.8,3.868-3.1,4.359,5.4,9.647-10.026,3.576,3.448Z" transform="translate(-109.806 -159.642)" fill="#c2fb3b"/>
      <path id="Trazado_901189" data-name="Trazado 901189" d="M108.05,141.45a15.785,15.785,0,0,1,13.966-15.679,15.95,15.95,0,0,0-1.816-.1,15.783,15.783,0,0,0,0,31.565,15.95,15.95,0,0,0,1.816-.1A15.785,15.785,0,0,1,108.05,141.45Z" transform="translate(-73.096 -110.45)" fill="#e0e0e2"/>
      <g id="Grupo_1109983" data-name="Grupo 1109983" transform="translate(47.104 0.908)">
        <path id="Trazado_901190" data-name="Trazado 901190" d="M254.165,37.592a15.783,15.783,0,0,0-15.783-15.783V7.5H234.75V21.809a15.783,15.783,0,1,1,0,31.565V67.684h3.633V53.374A15.783,15.783,0,0,0,254.165,37.592Z" transform="translate(-234.75 -7.5)" fill="#ff7956"/>
        <path id="Trazado_901191" data-name="Trazado 901191" d="M330.268,49.217l4.763-4.762-1.816-1.816-5.457,5.457A21.335,21.335,0,0,1,330.268,49.217Z" transform="translate(-316.494 -38.383)" fill="#ff7956"/>
        <path id="Trazado_901192" data-name="Trazado 901192" d="M330.275,414.988a21.994,21.994,0,0,1-2.5,1.129l5.455,5.455,1.816-1.816Z" transform="translate(-316.507 -365.644)" fill="#ff7956"/>
      </g>
      <path id="Trazado_901193" data-name="Trazado 901193" d="M32.383,74.945A24.951,24.951,0,0,1,53.7,50.263V50a24.945,24.945,0,0,0,0,49.891v-.263A24.951,24.951,0,0,1,32.383,74.945Z" transform="translate(-6.592 -43.945)" fill="#006df0"/>
      <g id="Grupo_1109984" data-name="Grupo 1109984" transform="translate(36.379 21.995)">
        <path id="Trazado_901194" data-name="Trazado 901194" d="M149.818,222.907l1.662-1.333-1.427-1.769-3.868,3.1,7.9,9.8,1.978-2.055Z" transform="translate(-146.185 -215.182)" fill="#91dc5a"/>
        <path id="Trazado_901195" data-name="Trazado 901195" d="M232.1,191.663l7.9-8.209-1.885-1.817-7.67,7.972Z" transform="translate(-220.238 -181.637)" fill="#91dc5a"/>
      </g>
      <rect id="Rectángulo_403137" data-name="Rectángulo 403137" width="1.816" height="1.816" transform="translate(51.561 37.721)"/>
      <rect id="Rectángulo_403138" data-name="Rectángulo 403138" width="1.816" height="1.816" transform="translate(54.588 37.721)"/>
      <rect id="Rectángulo_403139" data-name="Rectángulo 403139" width="1.816" height="1.816" transform="translate(48.534 37.721)"/>
      <rect id="Rectángulo_403140" data-name="Rectángulo 403140" width="2.785" height="1.816" transform="translate(48.799 3.027)"/>
      <rect id="Rectángulo_403141" data-name="Rectángulo 403141" width="1.816" height="1.816" transform="translate(73.26 27.05)"/>
      <rect id="Rectángulo_403142" data-name="Rectángulo 403142" width="1.816" height="1.816" transform="translate(73.26 30.077)"/>
      <rect id="Rectángulo_403143" data-name="Rectángulo 403143" width="1.816" height="1.816" transform="translate(73.26 33.105)"/>
      <rect id="Rectángulo_403144" data-name="Rectángulo 403144" width="1.816" height="6.216" transform="translate(49.615 52.352)"/>
      <g id="Grupo_1109985" data-name="Grupo 1109985" transform="translate(62.9 8.198)">
        <rect id="Rectángulo_403145" data-name="Rectángulo 403145" width="1.816" height="1.816" transform="translate(2.569 1.284) rotate(135)" fill="#fff"/>
        <rect id="Rectángulo_403146" data-name="Rectángulo 403146" width="1.816" height="1.816" transform="translate(4.71 3.425) rotate(135)" fill="#fff"/>
        <path id="Trazado_901196" data-name="Trazado 901196" d="M378.856,109.637l4.684-4.684-1.9-1.9-1.284,1.284.617.616-3.4,3.4Z" transform="translate(-376.073 -98.771)" fill="#fff"/>
      </g>
      <path id="Trazado_901197" data-name="Trazado 901197" d="M310.218,318.055l.93,1.56a19.882,19.882,0,0,0,8.334-9.865l-1.694-.654A18.057,18.057,0,0,1,310.218,318.055Z" transform="translate(-253.976 -271.666)"/>
      <g id="Grupo_1109986" data-name="Grupo 1109986" transform="translate(52.952 12.363)">
        <path id="Trazado_901198" data-name="Trazado 901198" d="M325.846,126.9l-1.108,1.439a17.794,17.794,0,0,1,7,14.194h1.816A19.6,19.6,0,0,0,325.846,126.9Z" transform="translate(-319.689 -123.895)" fill="#fff"/>
        <path id="Trazado_901199" data-name="Trazado 901199" d="M283.64,102.093l-.595,1.716c.542.188,1.081.4,1.6.645l.759-1.65C284.832,102.539,284.237,102.3,283.64,102.093Z" transform="translate(-283.045 -102.093)" fill="#fff"/>
        <path id="Trazado_901200" data-name="Trazado 901200" d="M304.8,114.243c.5.273,1,.574,1.479.894l1.013-1.507c-.525-.353-1.073-.684-1.629-.985Z" transform="translate(-302.163 -111.367)" fill="#fff"/>
      </g>
      <path id="Trazado_901201" data-name="Trazado 901201" d="M96.917,134.858a16.691,16.691,0,1,0,16.691-16.691A16.71,16.71,0,0,0,96.917,134.858Zm29.09-8.208-1.151.664.908,1.573,1.153-.666a14.766,14.766,0,0,1,1.537,5.728h-2.511v1.816h2.511a14.764,14.764,0,0,1-1.537,5.728l-1.153-.666-.908,1.573,1.151.664a15,15,0,0,1-4.192,4.192l-.664-1.151-1.573.908.666,1.153a14.766,14.766,0,0,1-5.728,1.537v-2.632H112.7V149.7a14.764,14.764,0,0,1-5.728-1.537l.666-1.153-1.573-.908-.664,1.151a15,15,0,0,1-4.192-4.192l1.151-.664-.908-1.573-1.153.666a14.766,14.766,0,0,1-1.537-5.728h2.511V133.95H98.761a14.764,14.764,0,0,1,1.537-5.728l1.153.666.908-1.573-1.151-.664a15,15,0,0,1,4.192-4.192l.664,1.151,1.573-.908-.666-1.153a14.766,14.766,0,0,1,5.728-1.537v2.511h1.816v-2.511a14.764,14.764,0,0,1,5.728,1.537l-.666,1.153,1.573.908.664-1.151A15,15,0,0,1,126.007,126.65Z" transform="translate(-66.504 -103.858)"/>
      <path id="Trazado_901202" data-name="Trazado 901202" d="M259.158,38.355V23.645H249.6a22.63,22.63,0,0,0-1.081-2.6l6.76-6.76-10.4-10.4-6.755,6.755a22.649,22.649,0,0,0-2.609-1.076V0H227.25V12.8h1.816V1.816H233.7v9.07l.639.2a20.791,20.791,0,0,1,3.539,1.461l.592.312,6.41-6.41,7.833,7.833L246.295,20.7l.313.592a20.769,20.769,0,0,1,1.466,3.533l.2.639h9.07V36.539h-9.07l-.2.639a20.77,20.77,0,0,1-1.466,3.533l-.313.592,6.416,6.416-7.833,7.833-6.416-6.416-.592.313a20.783,20.783,0,0,1-3.533,1.472l-.639.2v9.065h-4.631V49.2H227.25V62h8.263V52.446a22.655,22.655,0,0,0,2.6-1.085l6.76,6.76,10.4-10.4-6.76-6.76a22.617,22.617,0,0,0,1.081-2.6h9.558Z" transform="translate(-181.055)"/>
      <g id="Grupo_1109987" data-name="Grupo 1109987" transform="translate(25.588 9.081)">
        <path id="Trazado_901203" data-name="Trazado 901203" d="M57.075,180.266l1.712.608c.194-.544.413-1.088.651-1.614l-1.655-.749C57.524,179.084,57.285,179.674,57.075,180.266Z" transform="translate(-57.075 -165.976)" fill="#fff"/>
        <path id="Trazado_901204" data-name="Trazado 901204" d="M93.8,76.737l-.508-1.744a22.974,22.974,0,0,0-12.23,8.715l1.48,1.053A21.15,21.15,0,0,1,93.8,76.737Z" transform="translate(-78.158 -74.993)" fill="#fff"/>
        <path id="Trazado_901205" data-name="Trazado 901205" d="M69.954,156.578l-1.536-.97c-.336.531-.653,1.083-.943,1.64l1.611.84C69.353,157.575,69.645,157.067,69.954,156.578Z" transform="translate(-66.216 -145.846)" fill="#fff"/>
      </g>
      <path id="Trazado_901206" data-name="Trazado 901206" d="M195.211,427.395l.25-1.8c-.573-.08-1.149-.184-1.712-.311l-.4,1.772C193.962,427.195,194.588,427.308,195.211,427.395Z" transform="translate(-151.26 -373.786)"/>
      <path id="Trazado_901207" data-name="Trazado 901207" d="M170.212,420.711l.5-1.747c-.556-.158-1.111-.341-1.652-.545l-.641,1.7C169,420.339,169.608,420.539,170.212,420.711Z" transform="translate(-129.345 -367.75)"/>
      <path id="Trazado_901208" data-name="Trazado 901208" d="M125.361,396.523c-.491-.3-.976-.633-1.441-.977l-1.081,1.46c.505.374,1.032.731,1.565,1.061Z" transform="translate(-89.288 -347.648)"/>
      <path id="Trazado_901209" data-name="Trazado 901209" d="M146.46,410.866l.734-1.661c-.528-.233-1.053-.492-1.561-.769l-.87,1.595C145.315,410.331,145.886,410.612,146.46,410.866Z" transform="translate(-108.556 -358.976)"/>
      <path id="Trazado_901210" data-name="Trazado 901210" d="M103.044,381.31c.449.439.922.865,1.4,1.265l1.159-1.4c-.445-.369-.88-.761-1.294-1.165Z" transform="translate(-71.889 -333.994)"/>
      <path id="Trazado_901211" data-name="Trazado 901211" d="M145.195,180.965l-4.281-5.308L135.63,179.9l9.113,11.315,14.9-15.476-4.884-4.709Zm11.879-5.182-12.21,12.683-6.678-8.292,2.451-1.966,4.437,5.5,9.731-10.114Z" transform="translate(-100.529 -150.316)"/>
      <path id="Trazado_901212" data-name="Trazado 901212" d="M23.066,69.236a23.93,23.93,0,0,1,21.7-23.924L44.595,43.5a25.854,25.854,0,0,0,0,51.464l.174-1.808A23.93,23.93,0,0,1,23.066,69.236Z" transform="translate(0 -38.236)"/>
    </g>
  </g>
</svg>
