<svg xmlns="http://www.w3.org/2000/svg" xmlns:xlink="http://www.w3.org/1999/xlink" width="108.914" height="108.914" viewBox="0 0 108.914 108.914">
  <defs>
    <filter id="Trazado_874925" x="0" y="0" width="108.914" height="108.914" filterUnits="userSpaceOnUse">
      <feOffset dy="3" input="SourceAlpha"/>
      <feGaussianBlur stdDeviation="3" result="blur"/>
      <feFlood flood-opacity="0.161"/>
      <feComposite operator="in" in2="blur"/>
      <feComposite in="SourceGraphic"/>
    </filter>
  </defs>
  <g id="Grupo_1109991" data-name="Grupo 1109991" transform="translate(-1132.696 -1769.365)">
    <g transform="matrix(1, 0, 0, 1, 1132.7, 1769.37)" filter="url(#Trazado_874925)">
      <g id="Trazado_874925-2" data-name="Trazado 874925" transform="translate(9 6)" fill="#de93ea" opacity="0.859">
        <path d="M 45.45676803588867 89.41407012939453 C 39.52198028564453 89.41407012939453 33.76551818847656 88.25206756591797 28.34726715087891 85.96034240722656 C 23.11311721801758 83.74648284912109 18.41204261779785 80.57682800292969 14.37464332580566 76.5394287109375 C 10.33724308013916 72.50202941894531 7.167593002319336 67.80095672607422 4.953730583190918 62.56679534912109 C 2.662005424499512 57.14855575561523 1.500005483627319 51.39208221435547 1.500005483627319 45.45729446411133 C 1.500005483627319 39.52198028564453 2.662005424499512 33.76551818847656 4.953730583190918 28.34726905822754 C 7.167593002319336 23.11310577392578 10.33724308013916 18.41203117370605 14.37464332580566 14.37464332580566 C 18.41204261779785 10.33724403381348 23.11311721801758 7.167593955993652 28.34726715087891 4.953731060028076 C 33.76551818847656 2.662006139755249 39.52198028564453 1.500006198883057 45.45676803588867 1.500006198883057 C 51.39155578613281 1.500006198883057 57.14802932739258 2.662006139755249 62.56626892089844 4.953731060028076 C 67.80043029785156 7.167593955993652 72.50150299072266 10.33724403381348 76.53890228271484 14.37464332580566 C 80.57630920410156 18.41203117370605 83.74595642089844 23.11310577392578 85.95981597900391 28.34726905822754 C 88.25154113769531 33.76551818847656 89.41354370117188 39.52198028564453 89.41354370117188 45.45676803588867 C 89.41354370117188 51.39208221435547 88.25154113769531 57.14855575561523 85.95981597900391 62.56679534912109 C 83.74595642089844 67.80095672607422 80.57630920410156 72.50202941894531 76.53890228271484 76.5394287109375 C 72.50150299072266 80.57682800292969 67.80043029785156 83.74648284912109 62.56626892089844 85.96034240722656 C 57.14802932739258 88.25206756591797 51.39155578613281 89.41407012939453 45.45676803588867 89.41407012939453 Z" stroke="none"/>
        <path d="M 45.45676803588867 3 C 39.72381210327148 3 34.1639404296875 4.12213134765625 28.93159484863281 6.335227966308594 C 23.87622833251953 8.473472595214844 19.33542633056641 11.53517150878906 15.43529510498047 15.435302734375 C 11.53517150878906 19.33543395996094 8.473464965820312 23.87622833251953 6.335227966308594 28.93160247802734 C 4.122123718261719 34.16394424438477 3 39.72381591796875 3 45.4572868347168 C 3 51.19024658203125 4.122123718261719 56.75011825561523 6.335227966308594 61.98246002197266 C 8.473464965820312 67.03782653808594 11.53517150878906 71.57862854003906 15.43529510498047 75.478759765625 C 19.33542633056641 79.37889099121094 23.87622833251953 82.44058990478516 28.93159484863281 84.57883453369141 C 34.1639404296875 86.79193115234375 39.72381210327148 87.9140625 45.45676803588867 87.9140625 C 51.18972396850586 87.9140625 56.74959564208984 86.79193115234375 61.98194122314453 84.57883453369141 C 67.03730773925781 82.44058990478516 71.57810974121094 79.37889099121094 75.47824096679688 75.478759765625 C 79.37837219238281 71.57862854003906 82.44007110595703 67.03782653808594 84.57830810546875 61.98246002197266 C 86.79141235351562 56.75011825561523 87.91353607177734 51.19024658203125 87.91353607177734 45.4567756652832 C 87.91353607177734 39.72381591796875 86.79141235351562 34.16394424438477 84.57830810546875 28.93160247802734 C 82.44007110595703 23.87622833251953 79.37837219238281 19.33543395996094 75.47824096679688 15.435302734375 C 71.57810974121094 11.53517150878906 67.03730773925781 8.473472595214844 61.98194122314453 6.335227966308594 C 56.74959564208984 4.12213134765625 51.18972396850586 3 45.45676803588867 3 M 45.45676803588867 0 C 70.56185150146484 0 90.91353607177734 20.35169219970703 90.91353607177734 45.4567756652832 L 90.91353607177734 45.4572868347168 C 90.91353607177734 70.5623779296875 70.56185150146484 90.9140625 45.45676803588867 90.9140625 C 20.3516845703125 90.9140625 0 70.5623779296875 0 45.4572868347168 L 0 45.4567756652832 C 0 20.35169219970703 20.3516845703125 0 45.45676803588867 0 Z" stroke="none" fill="#fff"/>
      </g>
    </g>
    <g id="Grupo_1109990" data-name="Grupo 1109990" transform="translate(1158.629 1792.254)">
      <path id="Trazado_901213" data-name="Trazado 901213" d="M5.707,37.784l4.24.766.079.261a23.3,23.3,0,0,0,1.729,4.176l.128.241L9.426,46.76a2.125,2.125,0,0,0,.241,2.713l5.061,5.061a2.123,2.123,0,0,0,2.708.244l3.541-2.469.242.131a22.5,22.5,0,0,0,4.17,1.735l.261.079.763,4.238A2.115,2.115,0,0,0,28.5,60.239h7.157a2.116,2.116,0,0,0,2.086-1.745l.763-4.238.261-.079a22.559,22.559,0,0,0,4.171-1.735l.242-.131,3.541,2.469a2.123,2.123,0,0,0,2.708-.244l5.061-5.061a2.125,2.125,0,0,0,.242-2.713l-2.46-3.532.129-.241a22.95,22.95,0,0,0,1.728-4.175l.079-.261,4.241-.766A2.12,2.12,0,0,0,60.2,35.7V28.539a2.112,2.112,0,0,0-1.745-2.08l-4.242-.766-.079-.262A22.75,22.75,0,0,0,52.4,21.257l-.129-.241,2.46-3.54a2.117,2.117,0,0,0-.242-2.706L49.43,9.709a2.122,2.122,0,0,0-2.708-.244l-3.54,2.459-.241-.129a23.071,23.071,0,0,0-4.173-1.728l-.261-.079L37.744,5.75A2.116,2.116,0,0,0,35.658,4H28.5A2.115,2.115,0,0,0,26.414,5.75l-.763,4.238-.261.079A23.071,23.071,0,0,0,21.217,11.8l-.241.129L17.437,9.465a2.122,2.122,0,0,0-2.709.244L9.667,14.77a2.118,2.118,0,0,0-.241,2.706l2.459,3.54-.129.241a22.816,22.816,0,0,0-1.729,4.175l-.079.262-4.241.766a2.113,2.113,0,0,0-1.745,2.08V35.7a2.121,2.121,0,0,0,1.745,2.088ZM21.179,51.4a.51.51,0,0,0-.228-.058.459.459,0,0,0-.254.08l-3.774,2.625a1.227,1.227,0,0,1-1.566-.141l-5.065-5.066a1.226,1.226,0,0,1-.135-1.57l2.62-3.77a.444.444,0,0,0,.021-.474,22.093,22.093,0,0,1-2.066-4.987.44.44,0,0,0-.346-.316L5.86,36.908A1.22,1.22,0,0,1,4.855,35.7V28.539a1.218,1.218,0,0,1,1.005-1.2l4.522-.814a.447.447,0,0,0,.352-.317A22.1,22.1,0,0,1,12.8,21.217a.444.444,0,0,0-.021-.474l-2.62-3.77A1.226,1.226,0,0,1,10.3,15.4l5.06-5.061a1.227,1.227,0,0,1,1.566-.141L20.7,12.821a.44.44,0,0,0,.474.018,21.794,21.794,0,0,1,4.988-2.067.439.439,0,0,0,.32-.35l.813-4.511A1.217,1.217,0,0,1,28.5,4.9h7.157A1.216,1.216,0,0,1,36.865,5.91l.814,4.512a.44.44,0,0,0,.319.35,21.806,21.806,0,0,1,4.988,2.067.436.436,0,0,0,.471-.016L47.233,10.2a1.227,1.227,0,0,1,1.566.141L53.86,15.4A1.225,1.225,0,0,1,54,16.973l-2.62,3.77a.444.444,0,0,0-.021.474A22.09,22.09,0,0,1,53.424,26.2a.447.447,0,0,0,.352.317l4.521.814a1.218,1.218,0,0,1,1.005,1.2V35.7A1.22,1.22,0,0,1,58.3,36.909l-4.528.814a.44.44,0,0,0-.346.316,22.088,22.088,0,0,1-2.066,4.987.445.445,0,0,0,.021.474L54,47.271a1.226,1.226,0,0,1-.135,1.57L48.8,53.907a1.227,1.227,0,0,1-1.566.141l-3.777-2.627a.44.44,0,0,0-.471-.024A22.119,22.119,0,0,1,38,53.464a.45.45,0,0,0-.321.359l-.814,4.511a1.216,1.216,0,0,1-1.207,1.012H28.5a1.217,1.217,0,0,1-1.208-1.013l-.813-4.511a.45.45,0,0,0-.321-.359A21.955,21.955,0,0,1,21.179,51.4ZM47.113,32.564l-.024.421A15.055,15.055,0,0,1,32.946,47.128l-.421.024v4.534a.446.446,0,1,1-.893,0V47.152l-.421-.024A15.055,15.055,0,0,1,17.069,32.985l-.024-.421H12.514a.445.445,0,0,1-.446-.446.451.451,0,0,1,.446-.446h4.531l.024-.421A15.055,15.055,0,0,1,31.211,17.108l.421-.024V12.558a.446.446,0,1,1,.893,0v4.527l.421.024A15.055,15.055,0,0,1,47.089,31.251l.024.421h4.532a.45.45,0,0,1,.446.446.445.445,0,0,1-.446.446Z" transform="translate(-3.555 -3.554)" fill="#ffcd00" fill-rule="evenodd"/>
      <path id="Trazado_901214" data-name="Trazado 901214" d="M1.745,24.985a.772.772,0,0,1,.642-.765L6.9,23.407a.9.9,0,0,0,.7-.638,21.5,21.5,0,0,1,2.025-4.886.889.889,0,0,0-.043-.948l-2.62-3.77a.778.778,0,0,1,.088-1L12.119,7.1a.778.778,0,0,1,1-.088l3.77,2.622a.873.873,0,0,0,.949.04,21.744,21.744,0,0,1,4.886-2.025.878.878,0,0,0,.641-.7l.812-4.511a.77.77,0,0,1,.768-.646H32.1a.769.769,0,0,1,.768.646l.814,4.511a.877.877,0,0,0,.64.7A21.744,21.744,0,0,1,39.21,9.674a.873.873,0,0,0,.949-.04l3.77-2.622a.778.778,0,0,1,1,.088l5.061,5.061a.778.778,0,0,1,.088,1l-2.62,3.77a.888.888,0,0,0-.043.948,21.505,21.505,0,0,1,2.025,4.886.9.9,0,0,0,.7.638l4.517.813a.772.772,0,0,1,.642.765v7.158a.774.774,0,0,1-.642.773l-4.517.813a.889.889,0,0,0-.7.638,21.5,21.5,0,0,1-2.025,4.886.888.888,0,0,0,.043.948l2.62,3.77a.779.779,0,0,1-.088,1l-5.061,5.061a.778.778,0,0,1-1,.088L40.16,47.5a.889.889,0,0,0-.949-.048,21.4,21.4,0,0,1-4.886,2.025.9.9,0,0,0-.64.709L32.87,54.7a.769.769,0,0,1-.768.646H24.945a.77.77,0,0,1-.769-.646l-.813-4.511a.9.9,0,0,0-.641-.709,21.339,21.339,0,0,1-4.886-2.025.957.957,0,0,0-.441-.112.908.908,0,0,0-.509.159l-3.77,2.622a.778.778,0,0,1-1-.088l-5.06-5.061a.779.779,0,0,1-.088-1l2.62-3.77a.889.889,0,0,0,.043-.948,21.5,21.5,0,0,1-2.025-4.886.889.889,0,0,0-.7-.638l-4.517-.813a.774.774,0,0,1-.642-.773V24.985Zm.327,9.685,3.972.717a23.737,23.737,0,0,0,1.763,4.256L5.5,42.951A2.569,2.569,0,0,0,5.8,46.235L10.857,51.3a2.567,2.567,0,0,0,3.279.295l3.315-2.312A22.945,22.945,0,0,0,21.7,51.05l.715,3.969a2.56,2.56,0,0,0,2.526,2.112H32.1a2.561,2.561,0,0,0,2.526-2.112l.715-3.969A22.99,22.99,0,0,0,39.6,49.28l3.315,2.312A2.567,2.567,0,0,0,46.19,51.3l5.061-5.062a2.568,2.568,0,0,0,.292-3.284l-2.3-3.308A23.433,23.433,0,0,0,51,35.387l3.973-.717a2.561,2.561,0,0,0,2.112-2.527V24.985a2.553,2.553,0,0,0-2.112-2.519L51,21.749a23.2,23.2,0,0,0-1.763-4.256l2.3-3.316a2.558,2.558,0,0,0-.292-3.276L46.19,5.84a2.567,2.567,0,0,0-3.279-.295L39.6,7.848a23.522,23.522,0,0,0-4.253-1.762l-.715-3.969A2.561,2.561,0,0,0,32.1,0H24.945a2.56,2.56,0,0,0-2.526,2.112L21.7,6.087a23.522,23.522,0,0,0-4.253,1.762l-3.315-2.3a2.567,2.567,0,0,0-3.279.3L5.8,10.9A2.559,2.559,0,0,0,5.5,14.177l2.3,3.316a23.26,23.26,0,0,0-1.763,4.256l-3.972.717A2.554,2.554,0,0,0-.04,24.985v7.158A2.562,2.562,0,0,0,2.072,34.67ZM27.63,14.9A13.711,13.711,0,0,0,14.856,27.671H19.29a9.292,9.292,0,0,1,8.341-8.337ZM42.191,27.671A13.711,13.711,0,0,0,29.416,14.9v4.432a9.292,9.292,0,0,1,8.341,8.337ZM29.416,42.234A13.712,13.712,0,0,0,42.191,29.457H37.757A9.292,9.292,0,0,1,29.416,37.8v4.432ZM27.631,29.457H21.087a7.517,7.517,0,0,0,6.544,6.552Zm0-1.785V21.127a7.509,7.509,0,0,0-6.544,6.544Zm1.785,0h6.546a7.51,7.51,0,0,0-6.546-6.544Zm0,1.785v6.552a7.519,7.519,0,0,0,6.546-6.552Zm-14.559,0A13.713,13.713,0,0,0,27.63,42.234V37.8a9.292,9.292,0,0,1-8.341-8.346Zm-5.9,0h4.11A15.5,15.5,0,0,0,27.63,44.019v4.113a.893.893,0,1,0,1.785,0V44.019A15.5,15.5,0,0,0,43.979,29.457H48.09a.893.893,0,1,0,0-1.785H43.979A15.5,15.5,0,0,0,29.416,13.109V9a.893.893,0,1,0-1.785,0v4.1A15.5,15.5,0,0,0,13.068,27.671H8.958a.893.893,0,1,0,0,1.785Z" transform="translate(0 0)" fill-rule="evenodd"/>
    </g>
  </g>
</svg>
