<svg xmlns="http://www.w3.org/2000/svg" xmlns:xlink="http://www.w3.org/1999/xlink" width="108.914" height="108.914" viewBox="0 0 108.914 108.914">
  <defs>
    <filter id="Trazado_874925" x="0" y="0" width="108.914" height="108.914" filterUnits="userSpaceOnUse">
      <feOffset dy="3" input="SourceAlpha"/>
      <feGaussianBlur stdDeviation="3" result="blur"/>
      <feFlood flood-opacity="0.161"/>
      <feComposite operator="in" in2="blur"/>
      <feComposite in="SourceGraphic"/>
    </filter>
  </defs>
  <g id="Grupo_1109993" data-name="Grupo 1109993" transform="translate(3687.354 9838.635)">
    <g transform="matrix(1, 0, 0, 1, -3687.35, -9838.63)" filter="url(#Trazado_874925)">
      <g id="Trazado_874925-2" data-name="Trazado 874925" transform="translate(9 6)" fill="#de93ea" opacity="0.859">
        <path d="M 45.45676803588867 89.41407012939453 C 39.52198028564453 89.41407012939453 33.76551818847656 88.25206756591797 28.34726715087891 85.96034240722656 C 23.11311721801758 83.74648284912109 18.41204261779785 80.57682800292969 14.37464332580566 76.5394287109375 C 10.33724308013916 72.50202941894531 7.167593002319336 67.80095672607422 4.953730583190918 62.56679534912109 C 2.662005424499512 57.14855575561523 1.500005483627319 51.39208221435547 1.500005483627319 45.45729446411133 C 1.500005483627319 39.52198028564453 2.662005424499512 33.76551818847656 4.953730583190918 28.34726905822754 C 7.167593002319336 23.11310577392578 10.33724308013916 18.41203117370605 14.37464332580566 14.37464332580566 C 18.41204261779785 10.33724403381348 23.11311721801758 7.167593955993652 28.34726715087891 4.953731060028076 C 33.76551818847656 2.662006139755249 39.52198028564453 1.500006198883057 45.45676803588867 1.500006198883057 C 51.39155578613281 1.500006198883057 57.14802932739258 2.662006139755249 62.56626892089844 4.953731060028076 C 67.80043029785156 7.167593955993652 72.50150299072266 10.33724403381348 76.53890228271484 14.37464332580566 C 80.57630920410156 18.41203117370605 83.74595642089844 23.11310577392578 85.95981597900391 28.34726905822754 C 88.25154113769531 33.76551818847656 89.41354370117188 39.52198028564453 89.41354370117188 45.45676803588867 C 89.41354370117188 51.39208221435547 88.25154113769531 57.14855575561523 85.95981597900391 62.56679534912109 C 83.74595642089844 67.80095672607422 80.57630920410156 72.50202941894531 76.53890228271484 76.5394287109375 C 72.50150299072266 80.57682800292969 67.80043029785156 83.74648284912109 62.56626892089844 85.96034240722656 C 57.14802932739258 88.25206756591797 51.39155578613281 89.41407012939453 45.45676803588867 89.41407012939453 Z" stroke="none"/>
        <path d="M 45.45676803588867 3 C 39.72381210327148 3 34.1639404296875 4.12213134765625 28.93159484863281 6.335227966308594 C 23.87622833251953 8.473472595214844 19.33542633056641 11.53517150878906 15.43529510498047 15.435302734375 C 11.53517150878906 19.33543395996094 8.473464965820312 23.87622833251953 6.335227966308594 28.93160247802734 C 4.122123718261719 34.16394424438477 3 39.72381591796875 3 45.4572868347168 C 3 51.19024658203125 4.122123718261719 56.75011825561523 6.335227966308594 61.98246002197266 C 8.473464965820312 67.03782653808594 11.53517150878906 71.57862854003906 15.43529510498047 75.478759765625 C 19.33542633056641 79.37889099121094 23.87622833251953 82.44058990478516 28.93159484863281 84.57883453369141 C 34.1639404296875 86.79193115234375 39.72381210327148 87.9140625 45.45676803588867 87.9140625 C 51.18972396850586 87.9140625 56.74959564208984 86.79193115234375 61.98194122314453 84.57883453369141 C 67.03730773925781 82.44058990478516 71.57810974121094 79.37889099121094 75.47824096679688 75.478759765625 C 79.37837219238281 71.57862854003906 82.44007110595703 67.03782653808594 84.57830810546875 61.98246002197266 C 86.79141235351562 56.75011825561523 87.91353607177734 51.19024658203125 87.91353607177734 45.4567756652832 C 87.91353607177734 39.72381591796875 86.79141235351562 34.16394424438477 84.57830810546875 28.93160247802734 C 82.44007110595703 23.87622833251953 79.37837219238281 19.33543395996094 75.47824096679688 15.435302734375 C 71.57810974121094 11.53517150878906 67.03730773925781 8.473472595214844 61.98194122314453 6.335227966308594 C 56.74959564208984 4.12213134765625 51.18972396850586 3 45.45676803588867 3 M 45.45676803588867 0 C 70.56185150146484 0 90.91353607177734 20.35169219970703 90.91353607177734 45.4567756652832 L 90.91353607177734 45.4572868347168 C 90.91353607177734 70.5623779296875 70.56185150146484 90.9140625 45.45676803588867 90.9140625 C 20.3516845703125 90.9140625 0 70.5623779296875 0 45.4572868347168 L 0 45.4567756652832 C 0 20.35169219970703 20.3516845703125 0 45.45676803588867 0 Z" stroke="none" fill="#fff"/>
      </g>
    </g>
    <g id="Grupo_1109992" data-name="Grupo 1109992" transform="translate(-3662.321 -9816.577)">
      <path id="Trazado_901215" data-name="Trazado 901215" d="M23.013,48.544v-6.4h6.4V12H2V48.544Z" transform="translate(-0.086 -0.864)" fill="#e6e6e6"/>
      <path id="Trazado_901216" data-name="Trazado 901216" d="M22.914,43a.914.914,0,0,0-.914.914v7.309h2.741v-6.4h6.4V43Z" transform="translate(-1.815 -3.543)" fill="#ccc"/>
      <path id="Trazado_901217" data-name="Trazado 901217" d="M31.4,45,25,51.4V45Z" transform="translate(-2.074 -3.716)" fill="#f2f2f2"/>
      <path id="Trazado_901218" data-name="Trazado 901218" d="M7,25h3.654V35.049H7Z" transform="translate(-0.518 -1.987)" fill="#4184d9"/>
      <path id="Trazado_901219" data-name="Trazado 901219" d="M15,19h3.654V34.531H15Z" transform="translate(-1.21 -1.469)" fill="#458be6"/>
      <path id="Trazado_901220" data-name="Trazado 901220" d="M23,29h3.654v6.4H23Z" transform="translate(-1.901 -2.333)" fill="#4993f2"/>
      <circle id="Elipse_11548" data-name="Elipse 11548" cx="7.309" cy="7.309" r="7.309" transform="translate(42.111 2.914)" fill="#24b396"/>
      <circle id="Elipse_11549" data-name="Elipse 11549" cx="7.309" cy="7.309" r="7.309" transform="translate(42.111 41.284)" fill="#e65c5e"/>
      <path id="Trazado_901221" data-name="Trazado 901221" d="M1.914,49.371H22.926a.908.908,0,0,0,.647-.269l6.4-6.4a.908.908,0,0,0,.267-.645V11.914A.914.914,0,0,0,29.321,11H1.914A.914.914,0,0,0,1,11.914V48.457A.914.914,0,0,0,1.914,49.371ZM23.84,46.252V42.976h3.276ZM2.827,12.827h25.58V41.148H22.926a.914.914,0,0,0-.914.914v5.482H2.827Z" transform="translate(0 -0.778)"/>
      <path id="Trazado_901222" data-name="Trazado 901222" d="M6.914,35.877h3.654a.914.914,0,0,0,.914-.914V24.914A.914.914,0,0,0,10.568,24H6.914A.914.914,0,0,0,6,24.914V34.963A.914.914,0,0,0,6.914,35.877Zm.914-10.049H9.654v8.222H7.827Z" transform="translate(-0.432 -1.901)"/>
      <path id="Trazado_901223" data-name="Trazado 901223" d="M14.914,35.358h3.654a.914.914,0,0,0,.914-.914V18.914A.914.914,0,0,0,18.568,18H14.914a.914.914,0,0,0-.914.914V34.445A.914.914,0,0,0,14.914,35.358Zm.914-15.531h1.827v13.7H15.827Z" transform="translate(-1.123 -1.383)"/>
      <path id="Trazado_901224" data-name="Trazado 901224" d="M22.914,36.222h3.654a.914.914,0,0,0,.914-.914v-6.4A.914.914,0,0,0,26.568,28H22.914a.914.914,0,0,0-.914.914v6.4A.914.914,0,0,0,22.914,36.222Zm.914-6.4h1.827V34.4H23.827Z" transform="translate(-1.815 -2.247)"/>
      <path id="Trazado_901225" data-name="Trazado 901225" d="M5,39H26.926v1.827H5Z" transform="translate(-0.346 -3.197)"/>
      <path id="Trazado_901226" data-name="Trazado 901226" d="M52.392,2a8.2,8.2,0,0,0-7,12.516l-10,7.775,1.122,1.443,10-7.777A8.222,8.222,0,1,0,52.392,2Zm0,14.617a6.4,6.4,0,1,1,6.4-6.4A6.4,6.4,0,0,1,52.392,16.617Z" transform="translate(-2.971)"/>
      <path id="Trazado_901227" data-name="Trazado 901227" d="M52.392,43.5a8.2,8.2,0,0,0-5.882,2.488l-10-7.778-1.122,1.443,10,7.775a8.214,8.214,0,1,0,7-3.928Zm0,14.617a6.4,6.4,0,1,1,6.4-6.4,6.4,6.4,0,0,1-6.4,6.4Z" transform="translate(-2.971 -3.129)"/>
      <path id="Trazado_901228" data-name="Trazado 901228" d="M52.342,11.547,51.05,10.256l-1.292,1.292L51.7,13.485a.914.914,0,0,0,1.292,0l4.521-4.522L56.217,7.671Z" transform="translate(-4.213 -0.49)"/>
      <path id="Trazado_901229" data-name="Trazado 901229" d="M55.925,49.111l-2.261,2.261L51.4,49.111,50.111,50.4l2.261,2.261-2.261,2.261L51.4,56.217l2.261-2.261,2.261,2.261,1.292-1.292-2.261-2.261L57.217,50.4Z" transform="translate(-4.244 -4.071)"/>
    </g>
  </g>
</svg>
