<svg xmlns="http://www.w3.org/2000/svg" xmlns:xlink="http://www.w3.org/1999/xlink" width="108.914" height="108.914" viewBox="0 0 108.914 108.914">
  <defs>
    <filter id="Trazado_874925" x="0" y="0" width="108.914" height="108.914" filterUnits="userSpaceOnUse">
      <feOffset dy="3" input="SourceAlpha"/>
      <feGaussianBlur stdDeviation="3" result="blur"/>
      <feFlood flood-opacity="0.161"/>
      <feComposite operator="in" in2="blur"/>
      <feComposite in="SourceGraphic"/>
    </filter>
  </defs>
  <g id="Grupo_1109996" data-name="Grupo 1109996" transform="translate(3372.354 9838.635)">
    <g transform="matrix(1, 0, 0, 1, -3372.35, -9838.63)" filter="url(#Trazado_874925)">
      <g id="Trazado_874925-2" data-name="Trazado 874925" transform="translate(9 6)" fill="#de93ea" opacity="0.859">
        <path d="M 45.45676803588867 89.41407012939453 C 39.52198028564453 89.41407012939453 33.76551818847656 88.25206756591797 28.34726715087891 85.96034240722656 C 23.11311721801758 83.74648284912109 18.41204261779785 80.57682800292969 14.37464332580566 76.5394287109375 C 10.33724308013916 72.50202941894531 7.167593002319336 67.80095672607422 4.953730583190918 62.56679534912109 C 2.662005424499512 57.14855575561523 1.500005483627319 51.39208221435547 1.500005483627319 45.45729446411133 C 1.500005483627319 39.52198028564453 2.662005424499512 33.76551818847656 4.953730583190918 28.34726905822754 C 7.167593002319336 23.11310577392578 10.33724308013916 18.41203117370605 14.37464332580566 14.37464332580566 C 18.41204261779785 10.33724403381348 23.11311721801758 7.167593955993652 28.34726715087891 4.953731060028076 C 33.76551818847656 2.662006139755249 39.52198028564453 1.500006198883057 45.45676803588867 1.500006198883057 C 51.39155578613281 1.500006198883057 57.14802932739258 2.662006139755249 62.56626892089844 4.953731060028076 C 67.80043029785156 7.167593955993652 72.50150299072266 10.33724403381348 76.53890228271484 14.37464332580566 C 80.57630920410156 18.41203117370605 83.74595642089844 23.11310577392578 85.95981597900391 28.34726905822754 C 88.25154113769531 33.76551818847656 89.41354370117188 39.52198028564453 89.41354370117188 45.45676803588867 C 89.41354370117188 51.39208221435547 88.25154113769531 57.14855575561523 85.95981597900391 62.56679534912109 C 83.74595642089844 67.80095672607422 80.57630920410156 72.50202941894531 76.53890228271484 76.5394287109375 C 72.50150299072266 80.57682800292969 67.80043029785156 83.74648284912109 62.56626892089844 85.96034240722656 C 57.14802932739258 88.25206756591797 51.39155578613281 89.41407012939453 45.45676803588867 89.41407012939453 Z" stroke="none"/>
        <path d="M 45.45676803588867 3 C 39.72381210327148 3 34.1639404296875 4.12213134765625 28.93159484863281 6.335227966308594 C 23.87622833251953 8.473472595214844 19.33542633056641 11.53517150878906 15.43529510498047 15.435302734375 C 11.53517150878906 19.33543395996094 8.473464965820312 23.87622833251953 6.335227966308594 28.93160247802734 C 4.122123718261719 34.16394424438477 3 39.72381591796875 3 45.4572868347168 C 3 51.19024658203125 4.122123718261719 56.75011825561523 6.335227966308594 61.98246002197266 C 8.473464965820312 67.03782653808594 11.53517150878906 71.57862854003906 15.43529510498047 75.478759765625 C 19.33542633056641 79.37889099121094 23.87622833251953 82.44058990478516 28.93159484863281 84.57883453369141 C 34.1639404296875 86.79193115234375 39.72381210327148 87.9140625 45.45676803588867 87.9140625 C 51.18972396850586 87.9140625 56.74959564208984 86.79193115234375 61.98194122314453 84.57883453369141 C 67.03730773925781 82.44058990478516 71.57810974121094 79.37889099121094 75.47824096679688 75.478759765625 C 79.37837219238281 71.57862854003906 82.44007110595703 67.03782653808594 84.57830810546875 61.98246002197266 C 86.79141235351562 56.75011825561523 87.91353607177734 51.19024658203125 87.91353607177734 45.4567756652832 C 87.91353607177734 39.72381591796875 86.79141235351562 34.16394424438477 84.57830810546875 28.93160247802734 C 82.44007110595703 23.87622833251953 79.37837219238281 19.33543395996094 75.47824096679688 15.435302734375 C 71.57810974121094 11.53517150878906 67.03730773925781 8.473472595214844 61.98194122314453 6.335227966308594 C 56.74959564208984 4.12213134765625 51.18972396850586 3 45.45676803588867 3 M 45.45676803588867 0 C 70.56185150146484 0 90.91353607177734 20.35169219970703 90.91353607177734 45.4567756652832 L 90.91353607177734 45.4572868347168 C 90.91353607177734 70.5623779296875 70.56185150146484 90.9140625 45.45676803588867 90.9140625 C 20.3516845703125 90.9140625 0 70.5623779296875 0 45.4572868347168 L 0 45.4567756652832 C 0 20.35169219970703 20.3516845703125 0 45.45676803588867 0 Z" stroke="none" fill="#fff"/>
      </g>
    </g>
    <g id="Grupo_1109995" data-name="Grupo 1109995" transform="translate(-3370.922 -9845.977)">
      <path id="Trazado_901230" data-name="Trazado 901230" d="M227.985,212.868a2.214,2.214,0,0,1,4.28-1.13l.967,3.656,5.71,1.116a2.212,2.212,0,0,1-.857,4.34l-6.975-1.363a2.211,2.211,0,0,1-1.8-1.622Z" transform="translate(-178.62 -157.261)" fill="#81479a"/>
      <path id="Trazado_901231" data-name="Trazado 901231" d="M52.682,331.507a2.125,2.125,0,1,1,4,1.45l-2.813,7.716a2.1,2.1,0,0,1-1.081,1.194l-9.523,5.09a2.122,2.122,0,1,1-2-3.744l8.885-4.75Z" transform="translate(-14.313 -262.274)" fill="#81479a"/>
      <g id="Grupo_1109994" data-name="Grupo 1109994" transform="translate(52.717 58.172)">
        <path id="Trazado_901232" data-name="Trazado 901232" d="M269.409,252.83a14.087,14.087,0,1,1-14.089,14.086A14.088,14.088,0,0,1,269.409,252.83Z" transform="translate(-255.32 -252.83)" fill="#90c845" fill-rule="evenodd"/>
        <path id="Trazado_901233" data-name="Trazado 901233" d="M315.146,252.83a14.092,14.092,0,0,1,12.721,20.147,14.093,14.093,0,0,1-18.91-18.719A14.04,14.04,0,0,1,315.146,252.83Z" transform="translate(-301.057 -252.83)" fill="#d9e14b" fill-rule="evenodd"/>
        <path id="Trazado_901234" data-name="Trazado 901234" d="M308.942,305.37l-1.052,1.052a.681.681,0,0,1-.964,0l-.815-.815a7.757,7.757,0,0,1-2.972,1.23v1.155a.682.682,0,0,1-.68.68h-1.488a.685.685,0,0,1-.68-.68v-1.155a7.7,7.7,0,0,1-2.972-1.23l-.815.815a.681.681,0,0,1-.964,0l-1.052-1.052a.688.688,0,0,1,0-.964l.819-.815a7.685,7.685,0,0,1-1.232-2.972h-1.151a.684.684,0,0,1-.684-.68v-1.488a.685.685,0,0,1,.684-.68h1.151a7.723,7.723,0,0,1,1.232-2.972l-.819-.815a.688.688,0,0,1,0-.964l1.052-1.052a.688.688,0,0,1,.964,0l.815.819a7.685,7.685,0,0,1,2.972-1.232V290.4a.686.686,0,0,1,.68-.684h1.488a.684.684,0,0,1,.68.684v1.151a7.724,7.724,0,0,1,2.972,1.232l.815-.819a.688.688,0,0,1,.964,0l1.052,1.052a.681.681,0,0,1,0,.964l-.815.815a7.758,7.758,0,0,1,1.23,2.972h1.155a.685.685,0,0,1,.68.68v1.488a.683.683,0,0,1-.68.68h-1.155a7.758,7.758,0,0,1-1.23,2.972l.815.815A.681.681,0,0,1,308.942,305.37Z" transform="translate(-287.626 -285.11)" fill="#333" fill-rule="evenodd"/>
        <path id="Trazado_901235" data-name="Trazado 901235" d="M308.9,296.2a7.863,7.863,0,0,1,.765-1.4l-.819-.815a.688.688,0,0,1,0-.964l1.052-1.052a.688.688,0,0,1,.964,0l.815.819a7.684,7.684,0,0,1,2.972-1.232V290.4a.686.686,0,0,1,.68-.684h1.488a.684.684,0,0,1,.68.684v1.151a7.722,7.722,0,0,1,2.972,1.232l.815-.819a.688.688,0,0,1,.964,0l1.052,1.052a.681.681,0,0,1,0,.964l-.815.815a7.757,7.757,0,0,1,1.23,2.972h1.155a.685.685,0,0,1,.68.68v1.488a.683.683,0,0,1-.68.68H323.71a7.675,7.675,0,0,1-.889,2.427,13.621,13.621,0,0,1-2.168.177A13.352,13.352,0,0,1,308.9,296.2Z" transform="translate(-301.981 -285.11)" fill="#474748" fill-rule="evenodd"/>
        <path id="Trazado_901236" data-name="Trazado 901236" d="M336.925,329.96a4.445,4.445,0,1,1-4.445,4.445A4.446,4.446,0,0,1,336.925,329.96Z" transform="translate(-322.837 -320.321)" fill="#b3b4b4" fill-rule="evenodd"/>
        <path id="Trazado_901237" data-name="Trazado 901237" d="M353.367,329.96a1.624,1.624,0,1,1-1.728.35A4.4,4.4,0,0,1,353.367,329.96Z" transform="translate(-339.279 -320.321)" fill="#c2c2c1" fill-rule="evenodd"/>
      </g>
      <path id="Trazado_901238" data-name="Trazado 901238" d="M131.987,208.873l3.826,5.343a2.131,2.131,0,0,1,.489,2.564l-3.366,7.407a2.128,2.128,0,1,1-3.879-1.751l2.756-6.069-7.539-7.322a4.557,4.557,0,0,1-1.251-6.316c2.664-5.175,8.775-16.491,15.517-12.6,3.476,2.327.6,7.882-.442,10.925l4.12,3.95a1.9,1.9,0,1,1-2.628,2.736c-1.406-1.346-2.806-2.711-4.219-4.053Z" transform="translate(-86.167 -139.096)" fill="#81479a"/>
      <path id="Trazado_901239" data-name="Trazado 901239" d="M234.651,126.75a5.383,5.383,0,1,1-5.381,5.385A5.384,5.384,0,0,1,234.651,126.75Z" transform="translate(-179.809 -84.335)" fill="#eaa377" fill-rule="evenodd"/>
      <path id="Trazado_901240" data-name="Trazado 901240" d="M260.79,127.3a5.384,5.384,0,0,1,2.516,7.185,5.325,5.325,0,0,1-1.311,1.722,5.381,5.381,0,0,1-4.985-7.716,5.325,5.325,0,0,1,1.311-1.722A5.322,5.322,0,0,1,260.79,127.3Z" transform="translate(-203.612 -84.347)" fill="#eeb491" fill-rule="evenodd"/>
      <path id="Trazado_901241" data-name="Trazado 901241" d="M40.944,37.37A10.166,10.166,0,1,1,30.78,47.534,10.167,10.167,0,0,1,40.944,37.37Z" transform="translate(-6.125 -6.125)" fill="#ed1e24" fill-rule="evenodd"/>
      <path id="Trazado_901242" data-name="Trazado 901242" d="M56.843,55.54a7.895,7.895,0,1,1-7.893,7.893A7.894,7.894,0,0,1,56.843,55.54Z" transform="translate(-22.024 -22.024)" fill="#a1b4b8" fill-rule="evenodd"/>
      <path id="Trazado_901243" data-name="Trazado 901243" d="M78.947,55.54a7.9,7.9,0,0,1,6.48,12.406,7.894,7.894,0,0,1-9.8-11.674A7.843,7.843,0,0,1,78.947,55.54Z" transform="translate(-44.127 -22.024)" fill="#b3c3c5" fill-rule="evenodd"/>
      <path id="Trazado_901244" data-name="Trazado 901244" d="M102.835,108.09a1.327,1.327,0,1,1-1.325,1.325A1.328,1.328,0,0,1,102.835,108.09Z" transform="translate(-68.016 -68.007)" fill="#d9e14b" fill-rule="evenodd"/>
      <path id="Trazado_901245" data-name="Trazado 901245" d="M33.944,39.393V36.269a.875.875,0,1,1,1.75,0v3.124a2.2,2.2,0,1,1-1.948,3.939l-.921.921a.875.875,0,1,1-1.236-1.24l1.091-1.091A2.2,2.2,0,0,1,33.944,39.393Zm1.194,1.7a.451.451,0,0,0-.637.637A.451.451,0,0,0,35.138,41.093Zm-.319-8.448a8.768,8.768,0,1,1-8.768,8.768A8.768,8.768,0,0,1,34.819,32.645Zm4.964,3.8a7.019,7.019,0,1,0,0,9.927A7.018,7.018,0,0,0,39.783,36.449ZM34.819,30.37A11.041,11.041,0,1,1,23.78,41.413,11.043,11.043,0,0,1,34.819,30.37Zm6.572,4.47a9.291,9.291,0,1,0,0,13.14A9.292,9.292,0,0,0,41.392,34.84Zm13.451,6.7A6.256,6.256,0,0,1,54.9,54.055a8.477,8.477,0,0,1-.06,1.523l.475,1.8,5.175,1.01a3.171,3.171,0,0,1,.417.117A14.963,14.963,0,1,1,52.26,68.749l-2.9-2.8-2.483,3.8,3.418,4.775a3,3,0,0,1,.634,3.518l-3.341,7.359a3,3,0,0,1-5.519-2.36c.014-.035.032-.075.05-.11l2.48-5.463L41.8,74.764,40.373,78.7a2.986,2.986,0,0,1-1.555,1.7l-9.462,5.054a2.993,2.993,0,1,1-2.817-5.281l8.591-4.592,1.938-5.324A5.411,5.411,0,0,1,36.1,63.2a52.813,52.813,0,0,1,5.385-8.73c2.1-2.622,4.58-4.729,7.309-5.063a6.262,6.262,0,0,1,6.048-7.868ZM53.124,53.818a6.267,6.267,0,0,1-3.592-2.707c-5.175.018-10.012,9.261-11.9,12.924a.632.632,0,0,1-.05.085,3.687,3.687,0,0,0,.989,5.09c.255.17,7.021,6.826,7.652,7.407a.875.875,0,0,1,.22,1.017L43.687,83.7a1.254,1.254,0,0,0,2.286,1.031l3.366-7.407h0a1.259,1.259,0,0,0-.272-1.551.922.922,0,0,1-.135-.152l-3.752-5.239-1.86-1.448A.872.872,0,0,1,44.4,67.562l1.215.946,2.54-3.889a3.672,3.672,0,0,1-1.006-1.236,2.4,2.4,0,0,1-.226-1.232h0l1.435-6.716a.875.875,0,1,1,1.712.365l-1.41,6.589a1.048,1.048,0,0,0,.3.581C50.5,64.407,52.5,66.6,54.038,68.035a1.025,1.025,0,0,0,1.261.11l.187-.162,0,0a1.016,1.016,0,0,0-.056-1.448h0l-4.067-3.9a.877.877,0,0,1-.266-.954c.127-.365.336-.907.56-1.488.645-1.7,1.732-4.418,1.46-6.378Zm4.907-9.207a4.509,4.509,0,1,0,0,6.376A4.508,4.508,0,0,0,58.031,44.611ZM56.759,65.388a2.77,2.77,0,0,1-2.653,4.59l-.3-.089A13.219,13.219,0,1,0,56,64.655Zm-2.724-6.6c-.326.956-.655,1.765-.989,2.653l2.869.564a15.1,15.1,0,0,1,2.622-2.215l-4.1-.8A.826.826,0,0,1,54.034,58.788Zm1.7,11.078c-.017.007-.039.014-.06.021Zm-15.3,3.564-1.97-1.913-1.81,4.967a.868.868,0,0,1-.407.471l-8.888,4.75a1.252,1.252,0,0,0,.226,2.3,1.231,1.231,0,0,0,.954-.092L38,78.857a1.321,1.321,0,0,0,.737-.755Zm26.371-6.494a5.321,5.321,0,1,1-5.321,5.321A5.324,5.324,0,0,1,66.805,66.937Zm2.526,2.8a3.571,3.571,0,1,0,0,5.048A3.574,3.574,0,0,0,69.331,69.735Zm5.318,9.318-1.12,1.116A1.549,1.549,0,0,1,71.4,80.1v0l-.326-.326a8.572,8.572,0,0,1-1.97.815,1.831,1.831,0,0,1-.461,1.558,1.536,1.536,0,0,1-1.095.457H66.062a1.564,1.564,0,0,1-1.555-1.555v-.461a8.316,8.316,0,0,1-1.966-.815,1.862,1.862,0,0,1-1.427.78,1.541,1.541,0,0,1-1.1-.457l0,0L58.9,78.982a1.549,1.549,0,0,1,.064-2.13l.326-.326a8.42,8.42,0,0,1-.819-1.97,1.838,1.838,0,0,1-1.558-.46A1.543,1.543,0,0,1,56.455,73V71.517a1.565,1.565,0,0,1,1.558-1.558h.457a8.586,8.586,0,0,1,.815-1.966,1.873,1.873,0,0,1-.78-1.427,1.543,1.543,0,0,1,.457-1.1l1.049-1.052a1.551,1.551,0,0,1,2.2,0l0,0,.326.326a8.338,8.338,0,0,1,1.966-.815,1.844,1.844,0,0,1,.457-1.558v0a1.551,1.551,0,0,1,1.1-.454h1.488a1.561,1.561,0,0,1,1.555,1.555v.461a8.409,8.409,0,0,1,1.97.815,1.838,1.838,0,0,1,1.425-.78,1.554,1.554,0,0,1,1.1.454l1.116,1.126a1.547,1.547,0,0,1-.067,2.126l-.326.326a8.46,8.46,0,0,1,.819,1.966,1.847,1.847,0,0,1,1.562.464,1.555,1.555,0,0,1,.454,1.095V73a1.564,1.564,0,0,1-1.555,1.555h-.461a8.421,8.421,0,0,1-.819,1.97,1.858,1.858,0,0,1,.782,1.425A1.558,1.558,0,0,1,74.649,79.053Zm-2.15-.322.78-.78-.68-.676,0,0a.873.873,0,0,1-.1-1.109,7.065,7.065,0,0,0,1.081-2.572.871.871,0,0,1,.867-.78h.96v-1.1h-.96v0a.87.87,0,0,1-.857-.712,7.018,7.018,0,0,0-.407-1.375,6.933,6.933,0,0,0-.637-1.194.876.876,0,0,1,.054-1.18l.68-.68-.78-.776-.676.676h0a.873.873,0,0,1-1.109.1,7.036,7.036,0,0,0-2.572-1.077.876.876,0,0,1-.782-.871v-.956h-1.1v.956h0a.869.869,0,0,1-.716.857,6.982,6.982,0,0,0-1.371.407,7.18,7.18,0,0,0-1.194.637.87.87,0,0,1-1.18-.054l-.68-.676-.776.776.676.68a.873.873,0,0,1,.1,1.109,6.936,6.936,0,0,0-.687,1.269,6.781,6.781,0,0,0-.4,1.307.872.872,0,0,1-.867.78h-.96v1.1h.96a.871.871,0,0,1,.857.716,6.983,6.983,0,0,0,.407,1.371,7.091,7.091,0,0,0,.637,1.2.876.876,0,0,1-.054,1.18l-.676.676.776.78.68-.68,0,0a.868.868,0,0,1,1.1-.1,7.093,7.093,0,0,0,2.572,1.081.876.876,0,0,1,.782.871v.956h1.1V79.9h0a.876.876,0,0,1,.716-.861,6.583,6.583,0,0,0,1.371-.407A6.9,6.9,0,0,0,70.641,78a.878.878,0,0,1,1.184.05Z" transform="translate(0)"/>
    </g>
  </g>
</svg>
