<svg xmlns="http://www.w3.org/2000/svg" xmlns:xlink="http://www.w3.org/1999/xlink" width="108.914" height="108.914" viewBox="0 0 108.914 108.914">
  <defs>
    <filter id="Trazado_874925" x="0" y="0" width="108.914" height="108.914" filterUnits="userSpaceOnUse">
      <feOffset dy="3" input="SourceAlpha"/>
      <feGaussianBlur stdDeviation="3" result="blur"/>
      <feFlood flood-opacity="0.161"/>
      <feComposite operator="in" in2="blur"/>
      <feComposite in="SourceGraphic"/>
    </filter>
  </defs>
  <g id="Grupo_1110043" data-name="Grupo 1110043" transform="translate(3687.354 9511.635)">
    <g transform="matrix(1, 0, 0, 1, -3687.35, -9511.63)" filter="url(#Trazado_874925)">
      <g id="Trazado_874925-2" data-name="Trazado 874925" transform="translate(9 6)" fill="#de93ea" opacity="0.859">
        <path d="M 45.45676803588867 89.41407012939453 C 39.52198028564453 89.41407012939453 33.76551818847656 88.25206756591797 28.34726715087891 85.96034240722656 C 23.11311721801758 83.74648284912109 18.41204261779785 80.57682800292969 14.37464332580566 76.5394287109375 C 10.33724308013916 72.50202941894531 7.167593002319336 67.80095672607422 4.953730583190918 62.56679534912109 C 2.662005424499512 57.14855575561523 1.500005483627319 51.39208221435547 1.500005483627319 45.45729446411133 C 1.500005483627319 39.52198028564453 2.662005424499512 33.76551818847656 4.953730583190918 28.34726905822754 C 7.167593002319336 23.11310577392578 10.33724308013916 18.41203117370605 14.37464332580566 14.37464332580566 C 18.41204261779785 10.33724403381348 23.11311721801758 7.167593955993652 28.34726715087891 4.953731060028076 C 33.76551818847656 2.662006139755249 39.52198028564453 1.500006198883057 45.45676803588867 1.500006198883057 C 51.39155578613281 1.500006198883057 57.14802932739258 2.662006139755249 62.56626892089844 4.953731060028076 C 67.80043029785156 7.167593955993652 72.50150299072266 10.33724403381348 76.53890228271484 14.37464332580566 C 80.57630920410156 18.41203117370605 83.74595642089844 23.11310577392578 85.95981597900391 28.34726905822754 C 88.25154113769531 33.76551818847656 89.41354370117188 39.52198028564453 89.41354370117188 45.45676803588867 C 89.41354370117188 51.39208221435547 88.25154113769531 57.14855575561523 85.95981597900391 62.56679534912109 C 83.74595642089844 67.80095672607422 80.57630920410156 72.50202941894531 76.53890228271484 76.5394287109375 C 72.50150299072266 80.57682800292969 67.80043029785156 83.74648284912109 62.56626892089844 85.96034240722656 C 57.14802932739258 88.25206756591797 51.39155578613281 89.41407012939453 45.45676803588867 89.41407012939453 Z" stroke="none"/>
        <path d="M 45.45676803588867 3 C 39.72381210327148 3 34.1639404296875 4.12213134765625 28.93159484863281 6.335227966308594 C 23.87622833251953 8.473472595214844 19.33542633056641 11.53517150878906 15.43529510498047 15.435302734375 C 11.53517150878906 19.33543395996094 8.473464965820312 23.87622833251953 6.335227966308594 28.93160247802734 C 4.122123718261719 34.16394424438477 3 39.72381591796875 3 45.4572868347168 C 3 51.19024658203125 4.122123718261719 56.75011825561523 6.335227966308594 61.98246002197266 C 8.473464965820312 67.03782653808594 11.53517150878906 71.57862854003906 15.43529510498047 75.478759765625 C 19.33542633056641 79.37889099121094 23.87622833251953 82.44058990478516 28.93159484863281 84.57883453369141 C 34.1639404296875 86.79193115234375 39.72381210327148 87.9140625 45.45676803588867 87.9140625 C 51.18972396850586 87.9140625 56.74959564208984 86.79193115234375 61.98194122314453 84.57883453369141 C 67.03730773925781 82.44058990478516 71.57810974121094 79.37889099121094 75.47824096679688 75.478759765625 C 79.37837219238281 71.57862854003906 82.44007110595703 67.03782653808594 84.57830810546875 61.98246002197266 C 86.79141235351562 56.75011825561523 87.91353607177734 51.19024658203125 87.91353607177734 45.4567756652832 C 87.91353607177734 39.72381591796875 86.79141235351562 34.16394424438477 84.57830810546875 28.93160247802734 C 82.44007110595703 23.87622833251953 79.37837219238281 19.33543395996094 75.47824096679688 15.435302734375 C 71.57810974121094 11.53517150878906 67.03730773925781 8.473472595214844 61.98194122314453 6.335227966308594 C 56.74959564208984 4.12213134765625 51.18972396850586 3 45.45676803588867 3 M 45.45676803588867 0 C 70.56185150146484 0 90.91353607177734 20.35169219970703 90.91353607177734 45.4567756652832 L 90.91353607177734 45.4572868347168 C 90.91353607177734 70.5623779296875 70.56185150146484 90.9140625 45.45676803588867 90.9140625 C 20.3516845703125 90.9140625 0 70.5623779296875 0 45.4572868347168 L 0 45.4567756652832 C 0 20.35169219970703 20.3516845703125 0 45.45676803588867 0 Z" stroke="none" fill="#fff"/>
      </g>
    </g>
    <g id="Grupo_1110042" data-name="Grupo 1110042" transform="translate(-3726.283 -9493.82)">
      <g id="Grupo_1110027" data-name="Grupo 1110027" transform="translate(73.988 7.5)">
        <g id="Grupo_1110023" data-name="Grupo 1110023" transform="translate(0 0)">
          <g id="Grupo_1110022" data-name="Grupo 1110022">
            <g id="Grupo_1110018" data-name="Grupo 1110018">
              <g id="Grupo_1110017" data-name="Grupo 1110017">
                <g id="Grupo_1110011" data-name="Grupo 1110011" transform="translate(3.529 42.436)">
                  <path id="Trazado_901311" data-name="Trazado 901311" d="M140.837,417.157h0a2.142,2.142,0,0,1-2.142-2.142v-1.983a2.142,2.142,0,0,1,2.142-2.142H110.67a3.133,3.133,0,0,0-3.133,3.133h0a3.133,3.133,0,0,0,3.133,3.133Z" transform="translate(-107.537 -410.891)" fill="#d9e7eb"/>
                  <path id="Trazado_901312" data-name="Trazado 901312" d="M371.395,417.159h-4.053a2.142,2.142,0,0,1-2.142-2.142v-1.982a2.142,2.142,0,0,1,2.142-2.142h4.053a2.142,2.142,0,0,0-2.142,2.142v1.983A2.142,2.142,0,0,0,371.395,417.159Z" transform="translate(-338.094 -410.893)" fill="#c5d3dd"/>
                </g>
                <path id="Trazado_901313" data-name="Trazado 901313" d="M73.988,52.34v.645l3.888-.645A2.924,2.924,0,0,1,80.7,50.15H111.27a1.013,1.013,0,0,0,1.013-1.013V8.513A1.013,1.013,0,0,0,111.27,7.5H80.709a6.721,6.721,0,0,0-6.721,6.771Z" transform="translate(-73.988 -7.5)" fill="#5591d6"/>
                <g id="Grupo_1110012" data-name="Grupo 1110012" transform="translate(6.784 3.38)">
                  <path id="Trazado_901314" data-name="Trazado 901314" d="M145.279,50.413l-2.8-1.348a.525.525,0,0,0-.456,0l-2.8,1.348a.525.525,0,0,1-.753-.473V39.625h7.556V49.94A.525.525,0,0,1,145.279,50.413Z" transform="translate(-138.476 -39.625)" fill="#1475cb"/>
                </g>
                <path id="Trazado_901315" data-name="Trazado 901315" d="M393.65,8.514V49.139a1.012,1.012,0,0,1-1.012,1.012h-4.2a1.013,1.013,0,0,0,1.012-1.012V8.514A1.012,1.012,0,0,0,388.435,7.5h4.2A1.011,1.011,0,0,1,393.65,8.514Z" transform="translate(-355.356 -7.502)" fill="#1475cb"/>
                <g id="Grupo_1110014" data-name="Grupo 1110014" transform="translate(0 38.855)">
                  <g id="Grupo_1110013" data-name="Grupo 1110013">
                    <path id="Trazado_901316" data-name="Trazado 901316" d="M111.271,386.48H80.765a2.96,2.96,0,0,1-2.98-2.831,2.923,2.923,0,0,1,2.918-3.008h30.568a1.013,1.013,0,0,0,1.013-1.013v-1.77a1.013,1.013,0,0,0-1.013-1.013H80.8a6.715,6.715,0,1,0-.1,13.429h30.568a1.013,1.013,0,0,0,1.013-1.013v-1.77A1.013,1.013,0,0,0,111.271,386.48Z" transform="translate(-73.988 -376.846)" fill="#1475cb"/>
                  </g>
                </g>
                <g id="Grupo_1110016" data-name="Grupo 1110016" transform="translate(33.229 38.855)">
                  <g id="Grupo_1110015" data-name="Grupo 1110015">
                    <path id="Trazado_901317" data-name="Trazado 901317" d="M394.926,377.862v1.77a1.013,1.013,0,0,1-1.013,1.013H389.86a1.012,1.012,0,0,0,1.013-1.013v-1.77a1.012,1.012,0,0,0-1.013-1.013h4.053A1.012,1.012,0,0,1,394.926,377.862Z" transform="translate(-389.86 -376.849)" fill="#0857a0"/>
                    <path id="Trazado_901318" data-name="Trazado 901318" d="M394.926,469.444v1.769a1.012,1.012,0,0,1-1.013,1.013H389.86a1.012,1.012,0,0,0,1.013-1.013v-1.769a1.012,1.012,0,0,0-1.013-1.013h4.053A1.012,1.012,0,0,1,394.926,469.444Z" transform="translate(-389.86 -458.797)" fill="#0857a0"/>
                  </g>
                </g>
              </g>
            </g>
            <g id="Grupo_1110021" data-name="Grupo 1110021" transform="translate(9.596 4.618)">
              <g id="Grupo_1110020" data-name="Grupo 1110020">
                <g id="Grupo_1110019" data-name="Grupo 1110019">
                  <circle id="Elipse_11558" data-name="Elipse 11558" cx="10.519" cy="10.519" r="10.519" fill="#fddd45"/>
                  <path id="Trazado_901319" data-name="Trazado 901319" d="M167.131,74.545l.535-.258a.525.525,0,0,1,.456,0l2.8,1.348a.525.525,0,0,0,.753-.473v-7.35A10.527,10.527,0,0,0,167.131,74.545Z" transform="translate(-166.929 -66.085)" fill="#f8c52d"/>
                  <path id="Trazado_901320" data-name="Trazado 901320" d="M257.852,61.916a10.528,10.528,0,0,1-12.62,10.31,10.522,10.522,0,0,0,0-20.619,10.528,10.528,0,0,1,12.62,10.309Z" transform="translate(-236.814 -51.397)" fill="#f8c52d"/>
                  <path id="Trazado_901321" data-name="Trazado 901321" d="M215.642,245.638h-5.253a2.625,2.625,0,0,1-2.605-2.3l-.9-7.209a.525.525,0,0,1,.521-.59h11.221a.525.525,0,0,1,.521.59l-.9,7.209A2.625,2.625,0,0,1,215.642,245.638Z" transform="translate(-202.496 -216.167)" fill="#a0acb9"/>
                  <path id="Trazado_901322" data-name="Trazado 901322" d="M257.923,236.13l-.9,7.209a2.626,2.626,0,0,1-2.605,2.3h-4.2a2.625,2.625,0,0,0,2.605-2.3l.9-7.209a.525.525,0,0,0-.521-.59h4.2A.526.526,0,0,1,257.923,236.13Z" transform="translate(-241.272 -216.168)" fill="#7a8d98"/>
                </g>
              </g>
            </g>
          </g>
        </g>
        <g id="Grupo_1110026" data-name="Grupo 1110026" transform="translate(6.784 0)">
          <g id="Grupo_1110024" data-name="Grupo 1110024">
            <path id="Trazado_901323" data-name="Trazado 901323" d="M145.279,18.288l-2.8-1.348a.525.525,0,0,0-.456,0l-2.8,1.348a.525.525,0,0,1-.753-.473V7.5h7.556V17.815A.525.525,0,0,1,145.279,18.288Z" transform="translate(-138.476 -7.5)" fill="#f17d7e"/>
          </g>
          <g id="Grupo_1110025" data-name="Grupo 1110025" transform="translate(4.006 0)">
            <path id="Trazado_901324" data-name="Trazado 901324" d="M180.1,7.5V17.817a.526.526,0,0,1-.754.473l-2.8-1.348V7.5Z" transform="translate(-176.552 -7.502)" fill="#fb4a59"/>
          </g>
        </g>
      </g>
      <g id="Grupo_1110041" data-name="Grupo 1110041" transform="translate(73.988 7.5)">
        <g id="Grupo_1110038" data-name="Grupo 1110038" transform="translate(0 0)">
          <g id="Grupo_1110037" data-name="Grupo 1110037">
            <g id="Grupo_1110032" data-name="Grupo 1110032">
              <g id="Grupo_1110031" data-name="Grupo 1110031">
                <g id="Grupo_1110028" data-name="Grupo 1110028" transform="translate(34.688 42.723)">
                  <path id="Trazado_901325" data-name="Trazado 901325" d="M404.8,413.615a2.14,2.14,0,0,0-1.07,1.855v1.983a2.141,2.141,0,0,0,1.07,1.855" transform="translate(-403.726 -413.615)" fill="none" stroke="#000" stroke-linecap="round" stroke-linejoin="round" stroke-miterlimit="10" stroke-width="1"/>
                </g>
                <path id="Trazado_901326" data-name="Trazado 901326" d="M112.283,49.137V8.513A1.013,1.013,0,0,0,111.27,7.5H80.709a6.721,6.721,0,0,0-6.721,6.771V40.4" transform="translate(-73.988 -7.5)" fill="none" stroke="#000" stroke-linecap="round" stroke-linejoin="round" stroke-miterlimit="10" stroke-width="1"/>
                <line id="Línea_612" data-name="Línea 612" y2="9.077" transform="translate(0 36.388)" fill="none" stroke="#000" stroke-linecap="round" stroke-linejoin="round" stroke-miterlimit="10" stroke-width="1"/>
                <g id="Grupo_1110030" data-name="Grupo 1110030" transform="translate(0 38.855)">
                  <g id="Grupo_1110029" data-name="Grupo 1110029">
                    <path id="Trazado_901327" data-name="Trazado 901327" d="M111.271,386.48H80.765a2.96,2.96,0,0,1-2.98-2.831,2.923,2.923,0,0,1,2.918-3.008h30.568a1.013,1.013,0,0,0,1.013-1.013v-1.77a1.013,1.013,0,0,0-1.013-1.013H80.8a6.715,6.715,0,1,0-.1,13.429h30.568a1.013,1.013,0,0,0,1.013-1.013v-1.77A1.013,1.013,0,0,0,111.271,386.48Z" transform="translate(-73.988 -376.846)" fill="none" stroke="#000" stroke-linecap="round" stroke-linejoin="round" stroke-miterlimit="10" stroke-width="1"/>
                  </g>
                </g>
                <line id="Línea_613" data-name="Línea 613" x1="26.583" transform="translate(8.105 45.569)" fill="none" stroke="#000" stroke-linecap="round" stroke-linejoin="round" stroke-miterlimit="10" stroke-width="1"/>
              </g>
            </g>
            <g id="Grupo_1110036" data-name="Grupo 1110036" transform="translate(9.596 4.618)">
              <g id="Grupo_1110034" data-name="Grupo 1110034">
                <g id="Grupo_1110033" data-name="Grupo 1110033">
                  <path id="Trazado_901328" data-name="Trazado 901328" d="M320.2,109.2a10.521,10.521,0,0,0,2.86-14.78" transform="translate(-303.895 -89.896)" fill="none" stroke="#000" stroke-linecap="round" stroke-linejoin="round" stroke-miterlimit="10" stroke-width="1"/>
                  <path id="Trazado_901329" data-name="Trazado 901329" d="M166.688,100.225a10.525,10.525,0,0,0,3.158,14.105" transform="translate(-165.208 -95.088)" fill="none" stroke="#000" stroke-linecap="round" stroke-linejoin="round" stroke-miterlimit="10" stroke-width="1"/>
                  <path id="Trazado_901330" data-name="Trazado 901330" d="M223.275,53.423a10.523,10.523,0,0,0-11.869-.378" transform="translate(-206.546 -51.394)" fill="none" stroke="#000" stroke-linecap="round" stroke-linejoin="round" stroke-miterlimit="10" stroke-width="1"/>
                  <path id="Trazado_901331" data-name="Trazado 901331" d="M214.818,245.638h.824a2.625,2.625,0,0,0,2.605-2.3l.9-7.209a.525.525,0,0,0-.521-.59H207.4a.525.525,0,0,0-.521.59l.9,7.209a2.625,2.625,0,0,0,2.605,2.3h.941" transform="translate(-202.496 -216.167)" fill="none" stroke="#000" stroke-linecap="round" stroke-linejoin="round" stroke-miterlimit="10" stroke-width="1"/>
                </g>
                <line id="Línea_614" data-name="Línea 614" x2="12.45" transform="translate(4.295 22.548)" fill="none" stroke="#000" stroke-linecap="round" stroke-linejoin="round" stroke-miterlimit="10" stroke-width="1"/>
                <line id="Línea_615" data-name="Línea 615" x2="11.657" transform="translate(4.691 25.777)" fill="none" stroke="#000" stroke-linecap="round" stroke-linejoin="round" stroke-miterlimit="10" stroke-width="1"/>
              </g>
              <g id="Grupo_1110035" data-name="Grupo 1110035" transform="translate(5.433 11.945)">
                <path id="Trazado_901332" data-name="Trazado 901332" d="M227.024,168.158l-1.7-3.219-1.695,3.219-1.7-3.219-1.7,3.219-1.7-3.219-1.7,3.219" transform="translate(-216.85 -164.939)" fill="none" stroke="#000" stroke-linecap="round" stroke-linejoin="round" stroke-miterlimit="10" stroke-width="1"/>
              </g>
            </g>
          </g>
        </g>
        <g id="Grupo_1110040" data-name="Grupo 1110040" transform="translate(6.784 0)">
          <g id="Grupo_1110039" data-name="Grupo 1110039">
            <path id="Trazado_901333" data-name="Trazado 901333" d="M145.279,18.288l-2.8-1.348a.525.525,0,0,0-.456,0l-2.8,1.348a.525.525,0,0,1-.753-.473V7.5h7.556V17.815A.525.525,0,0,1,145.279,18.288Z" transform="translate(-138.476 -7.5)" fill="none" stroke="#000" stroke-linecap="round" stroke-linejoin="round" stroke-miterlimit="10" stroke-width="1"/>
          </g>
        </g>
      </g>
    </g>
  </g>
</svg>
