<svg xmlns="http://www.w3.org/2000/svg" xmlns:xlink="http://www.w3.org/1999/xlink" width="108.914" height="108.914" viewBox="0 0 108.914 108.914">
  <defs>
    <filter id="Trazado_874925" x="0" y="0" width="108.914" height="108.914" filterUnits="userSpaceOnUse">
      <feOffset dy="3" input="SourceAlpha"/>
      <feGaussianBlur stdDeviation="3" result="blur"/>
      <feFlood flood-opacity="0.161"/>
      <feComposite operator="in" in2="blur"/>
      <feComposite in="SourceGraphic"/>
    </filter>
  </defs>
  <g id="Grupo_1110010" data-name="Grupo 1110010" transform="translate(3372.354 9511.635)">
    <g transform="matrix(1, 0, 0, 1, -3372.35, -9511.63)" filter="url(#Trazado_874925)">
      <g id="Trazado_874925-2" data-name="Trazado 874925" transform="translate(9 6)" fill="#de93ea" opacity="0.859">
        <path d="M 45.45676803588867 89.41407012939453 C 39.52198028564453 89.41407012939453 33.76551818847656 88.25206756591797 28.34726715087891 85.96034240722656 C 23.11311721801758 83.74648284912109 18.41204261779785 80.57682800292969 14.37464332580566 76.5394287109375 C 10.33724308013916 72.50202941894531 7.167593002319336 67.80095672607422 4.953730583190918 62.56679534912109 C 2.662005424499512 57.14855575561523 1.500005483627319 51.39208221435547 1.500005483627319 45.45729446411133 C 1.500005483627319 39.52198028564453 2.662005424499512 33.76551818847656 4.953730583190918 28.34726905822754 C 7.167593002319336 23.11310577392578 10.33724308013916 18.41203117370605 14.37464332580566 14.37464332580566 C 18.41204261779785 10.33724403381348 23.11311721801758 7.167593955993652 28.34726715087891 4.953731060028076 C 33.76551818847656 2.662006139755249 39.52198028564453 1.500006198883057 45.45676803588867 1.500006198883057 C 51.39155578613281 1.500006198883057 57.14802932739258 2.662006139755249 62.56626892089844 4.953731060028076 C 67.80043029785156 7.167593955993652 72.50150299072266 10.33724403381348 76.53890228271484 14.37464332580566 C 80.57630920410156 18.41203117370605 83.74595642089844 23.11310577392578 85.95981597900391 28.34726905822754 C 88.25154113769531 33.76551818847656 89.41354370117188 39.52198028564453 89.41354370117188 45.45676803588867 C 89.41354370117188 51.39208221435547 88.25154113769531 57.14855575561523 85.95981597900391 62.56679534912109 C 83.74595642089844 67.80095672607422 80.57630920410156 72.50202941894531 76.53890228271484 76.5394287109375 C 72.50150299072266 80.57682800292969 67.80043029785156 83.74648284912109 62.56626892089844 85.96034240722656 C 57.14802932739258 88.25206756591797 51.39155578613281 89.41407012939453 45.45676803588867 89.41407012939453 Z" stroke="none"/>
        <path d="M 45.45676803588867 3 C 39.72381210327148 3 34.1639404296875 4.12213134765625 28.93159484863281 6.335227966308594 C 23.87622833251953 8.473472595214844 19.33542633056641 11.53517150878906 15.43529510498047 15.435302734375 C 11.53517150878906 19.33543395996094 8.473464965820312 23.87622833251953 6.335227966308594 28.93160247802734 C 4.122123718261719 34.16394424438477 3 39.72381591796875 3 45.4572868347168 C 3 51.19024658203125 4.122123718261719 56.75011825561523 6.335227966308594 61.98246002197266 C 8.473464965820312 67.03782653808594 11.53517150878906 71.57862854003906 15.43529510498047 75.478759765625 C 19.33542633056641 79.37889099121094 23.87622833251953 82.44058990478516 28.93159484863281 84.57883453369141 C 34.1639404296875 86.79193115234375 39.72381210327148 87.9140625 45.45676803588867 87.9140625 C 51.18972396850586 87.9140625 56.74959564208984 86.79193115234375 61.98194122314453 84.57883453369141 C 67.03730773925781 82.44058990478516 71.57810974121094 79.37889099121094 75.47824096679688 75.478759765625 C 79.37837219238281 71.57862854003906 82.44007110595703 67.03782653808594 84.57830810546875 61.98246002197266 C 86.79141235351562 56.75011825561523 87.91353607177734 51.19024658203125 87.91353607177734 45.4567756652832 C 87.91353607177734 39.72381591796875 86.79141235351562 34.16394424438477 84.57830810546875 28.93160247802734 C 82.44007110595703 23.87622833251953 79.37837219238281 19.33543395996094 75.47824096679688 15.435302734375 C 71.57810974121094 11.53517150878906 67.03730773925781 8.473472595214844 61.98194122314453 6.335227966308594 C 56.74959564208984 4.12213134765625 51.18972396850586 3 45.45676803588867 3 M 45.45676803588867 0 C 70.56185150146484 0 90.91353607177734 20.35169219970703 90.91353607177734 45.4567756652832 L 90.91353607177734 45.4572868347168 C 90.91353607177734 70.5623779296875 70.56185150146484 90.9140625 45.45676803588867 90.9140625 C 20.3516845703125 90.9140625 0 70.5623779296875 0 45.4572868347168 L 0 45.4567756652832 C 0 20.35169219970703 20.3516845703125 0 45.45676803588867 0 Z" stroke="none" fill="#fff"/>
      </g>
    </g>
    <g id="Grupo_1110009" data-name="Grupo 1110009" transform="translate(-3369.635 -9507.08)">
      <circle id="Elipse_11555" data-name="Elipse 11555" cx="5.75" cy="5.75" r="5.75" transform="translate(43.811 31.766) rotate(-76.7)" fill="#f1cbbc"/>
      <path id="Trazado_901308" data-name="Trazado 901308" d="M161.785,134.517a11.774,11.774,0,0,1,11.774,11.774H150.011A11.774,11.774,0,0,1,161.785,134.517Z" transform="translate(-111.062 -101.283)" fill="#60b7ff" fill-rule="evenodd"/>
      <circle id="Elipse_11556" data-name="Elipse 11556" cx="7.29" cy="7.29" r="7.29" transform="translate(25.958 57.146)" fill="#00e499"/>
      <circle id="Elipse_11557" data-name="Elipse 11557" cx="7.29" cy="7.29" r="7.29" transform="translate(59.429 69.875) rotate(-76.7)" fill="#fd4755"/>
      <path id="Trazado_901309" data-name="Trazado 901309" d="M330.223,136.89a8.181,8.181,0,0,0,2.018,1.213,1.012,1.012,0,0,0,1.265-.414,2.046,2.046,0,0,1,3.547.067,1.012,1.012,0,0,0,1.251.46,8.27,8.27,0,0,0,2.059-1.138,1.012,1.012,0,0,0,.276-1.3,2.046,2.046,0,0,1,1.83-3.039,1.012,1.012,0,0,0,1.024-.851,8.181,8.181,0,0,0,.046-2.355,1.012,1.012,0,0,0-.992-.89,2.046,2.046,0,0,1-1.717-3.106,1.012,1.012,0,0,0-.226-1.314,8.179,8.179,0,0,0-2.018-1.213,1.012,1.012,0,0,0-1.265.414,2.046,2.046,0,0,1-3.547-.067,1.012,1.012,0,0,0-1.251-.46,8.274,8.274,0,0,0-2.059,1.138,1.012,1.012,0,0,0-.276,1.3,2.046,2.046,0,0,1-1.83,3.039,1.012,1.012,0,0,0-1.024.851,8.183,8.183,0,0,0-.046,2.355,1.012,1.012,0,0,0,.992.89A2.046,2.046,0,0,1,330,135.577,1.012,1.012,0,0,0,330.223,136.89Zm2.752-4.987a2.787,2.787,0,1,1,3.787,1.091A2.787,2.787,0,0,1,332.975,131.9Z" transform="translate(-268.589 -90.891)" fill="#ffd266" fill-rule="evenodd"/>
      <path id="Trazado_901310" data-name="Trazado 901310" d="M65,41.292a1.9,1.9,0,0,1,1.822-1.374,1.908,1.908,0,0,1,.527.075A1.9,1.9,0,1,1,65,41.292Zm1.831,4.2a3.676,3.676,0,1,0-3.223-1.9,3.66,3.66,0,0,0,3.223,1.9ZM50.724,54.2H34.136v2.382a.889.889,0,1,1-1.777,0V53.316a.889.889,0,0,1,.889-.889H49.835v-2.3a.889.889,0,1,1,1.777,0v2.3H68.2a.889.889,0,0,1,.889.889v3.271a.889.889,0,1,1-1.777,0V54.2H50.724ZM36.771,64.03a.889.889,0,0,1,0,1.257l-3.86,3.86a.885.885,0,0,1-1.256,0l-1.931-1.929a.889.889,0,0,1,1.258-1.258l1.3,1.3,3.233-3.232A.89.89,0,0,1,36.771,64.03Zm34.525.718-1.841,1.841,1.841,1.84a.889.889,0,0,1-1.257,1.258L68.2,67.845l-1.841,1.842A.889.889,0,1,1,65.1,68.429l1.84-1.84L65.1,64.748a.888.888,0,0,1,1.256-1.256L68.2,65.333l1.84-1.841A.889.889,0,0,1,71.3,64.748ZM68.2,72.99a6.4,6.4,0,1,0-6.4-6.4A6.409,6.409,0,0,0,68.2,72.99Zm0-14.579a8.178,8.178,0,1,0,8.178,8.179A8.188,8.188,0,0,0,68.2,58.411ZM33.247,72.99a6.4,6.4,0,1,0-6.4-6.4A6.409,6.409,0,0,0,33.247,72.99Zm0-14.579a8.178,8.178,0,1,0,8.179,8.179A8.188,8.188,0,0,0,33.247,58.411ZM50.724,36.276a10.854,10.854,0,0,1,7.608,3.1,1.913,1.913,0,0,0-.463.965,9.107,9.107,0,0,0-.051,2.611,1.894,1.894,0,0,0,1.86,1.668A1.155,1.155,0,0,1,60.7,46.274H39.874a10.9,10.9,0,0,1,10.849-10Zm-4.862-6.638A4.861,4.861,0,1,1,50.724,34.5,4.867,4.867,0,0,1,45.862,29.638Zm16.464,9.468a2.942,2.942,0,0,1-2.574,1.42.123.123,0,0,0-.129.108,7.251,7.251,0,0,0-.041,2.1.123.123,0,0,0,.125.112A2.935,2.935,0,0,1,62.169,47.3a.123.123,0,0,0,.029.166h0A7.308,7.308,0,0,0,64,48.546a.123.123,0,0,0,.16-.052,2.943,2.943,0,0,1,2.516-1.424h.054a2.947,2.947,0,0,1,2.518,1.52.122.122,0,0,0,.158.058,7.385,7.385,0,0,0,1.836-1.014.125.125,0,0,0,.035-.166A2.933,2.933,0,0,1,73.9,43.11.125.125,0,0,0,74.029,43a7.271,7.271,0,0,0,.041-2.1.123.123,0,0,0-.126-.114,2.935,2.935,0,0,1-2.462-4.455.122.122,0,0,0-.029-.165,7.293,7.293,0,0,0-1.8-1.081.123.123,0,0,0-.16.053,2.936,2.936,0,0,1-5.088-.1.123.123,0,0,0-.158-.058A7.345,7.345,0,0,0,62.413,36a.122.122,0,0,0-.036.164A2.943,2.943,0,0,1,62.326,39.106ZM38.949,48.051H60.5a1.928,1.928,0,0,0,.574.789,9.074,9.074,0,0,0,2.237,1.346,1.894,1.894,0,0,0,2.371-.777,1.158,1.158,0,0,1,2.008.038,1.893,1.893,0,0,0,1.661.99,1.931,1.931,0,0,0,.684-.127,9.092,9.092,0,0,0,2.28-1.261,1.891,1.891,0,0,0,.516-2.444,1.157,1.157,0,0,1,1.035-1.72,1.892,1.892,0,0,0,1.919-1.595,9.1,9.1,0,0,0,.051-2.61,1.892,1.892,0,0,0-1.86-1.668A1.157,1.157,0,0,1,73,37.257a1.893,1.893,0,0,0-.423-2.462,9.081,9.081,0,0,0-2.237-1.345,1.894,1.894,0,0,0-2.371.775,1.163,1.163,0,0,1-.993.563h-.022a1.157,1.157,0,0,1-.992-.6,1.89,1.89,0,0,0-2.344-.862,9.139,9.139,0,0,0-2.281,1.259,1.892,1.892,0,0,0-.516,2.444A1.151,1.151,0,0,1,60.14,38.7a12.627,12.627,0,0,0-5.62-3.618,6.639,6.639,0,1,0-7.591,0A12.686,12.686,0,0,0,38.06,47.162a.889.889,0,0,0,.889.889Z" transform="translate(0 -2.153)" fill-rule="evenodd"/>
    </g>
  </g>
</svg>
