<svg xmlns="http://www.w3.org/2000/svg" xmlns:xlink="http://www.w3.org/1999/xlink" width="108.914" height="108.914" viewBox="0 0 108.914 108.914">
  <defs>
    <filter id="Trazado_874925" x="0" y="0" width="108.914" height="108.914" filterUnits="userSpaceOnUse">
      <feOffset dy="3" input="SourceAlpha"/>
      <feGaussianBlur stdDeviation="3" result="blur"/>
      <feFlood flood-opacity="0.161"/>
      <feComposite operator="in" in2="blur"/>
      <feComposite in="SourceGraphic"/>
    </filter>
  </defs>
  <g id="Grupo_1110008" data-name="Grupo 1110008" transform="translate(3057.354 9511.635)">
    <g transform="matrix(1, 0, 0, 1, -3057.35, -9511.63)" filter="url(#Trazado_874925)">
      <g id="Trazado_874925-2" data-name="Trazado 874925" transform="translate(9 6)" fill="#de93ea" opacity="0.859">
        <path d="M 45.45676803588867 89.41407012939453 C 39.52198028564453 89.41407012939453 33.76551818847656 88.25206756591797 28.34726715087891 85.96034240722656 C 23.11311721801758 83.74648284912109 18.41204261779785 80.57682800292969 14.37464332580566 76.5394287109375 C 10.33724308013916 72.50202941894531 7.167593002319336 67.80095672607422 4.953730583190918 62.56679534912109 C 2.662005424499512 57.14855575561523 1.500005483627319 51.39208221435547 1.500005483627319 45.45729446411133 C 1.500005483627319 39.52198028564453 2.662005424499512 33.76551818847656 4.953730583190918 28.34726905822754 C 7.167593002319336 23.11310577392578 10.33724308013916 18.41203117370605 14.37464332580566 14.37464332580566 C 18.41204261779785 10.33724403381348 23.11311721801758 7.167593955993652 28.34726715087891 4.953731060028076 C 33.76551818847656 2.662006139755249 39.52198028564453 1.500006198883057 45.45676803588867 1.500006198883057 C 51.39155578613281 1.500006198883057 57.14802932739258 2.662006139755249 62.56626892089844 4.953731060028076 C 67.80043029785156 7.167593955993652 72.50150299072266 10.33724403381348 76.53890228271484 14.37464332580566 C 80.57630920410156 18.41203117370605 83.74595642089844 23.11310577392578 85.95981597900391 28.34726905822754 C 88.25154113769531 33.76551818847656 89.41354370117188 39.52198028564453 89.41354370117188 45.45676803588867 C 89.41354370117188 51.39208221435547 88.25154113769531 57.14855575561523 85.95981597900391 62.56679534912109 C 83.74595642089844 67.80095672607422 80.57630920410156 72.50202941894531 76.53890228271484 76.5394287109375 C 72.50150299072266 80.57682800292969 67.80043029785156 83.74648284912109 62.56626892089844 85.96034240722656 C 57.14802932739258 88.25206756591797 51.39155578613281 89.41407012939453 45.45676803588867 89.41407012939453 Z" stroke="none"/>
        <path d="M 45.45676803588867 3 C 39.72381210327148 3 34.1639404296875 4.12213134765625 28.93159484863281 6.335227966308594 C 23.87622833251953 8.473472595214844 19.33542633056641 11.53517150878906 15.43529510498047 15.435302734375 C 11.53517150878906 19.33543395996094 8.473464965820312 23.87622833251953 6.335227966308594 28.93160247802734 C 4.122123718261719 34.16394424438477 3 39.72381591796875 3 45.4572868347168 C 3 51.19024658203125 4.122123718261719 56.75011825561523 6.335227966308594 61.98246002197266 C 8.473464965820312 67.03782653808594 11.53517150878906 71.57862854003906 15.43529510498047 75.478759765625 C 19.33542633056641 79.37889099121094 23.87622833251953 82.44058990478516 28.93159484863281 84.57883453369141 C 34.1639404296875 86.79193115234375 39.72381210327148 87.9140625 45.45676803588867 87.9140625 C 51.18972396850586 87.9140625 56.74959564208984 86.79193115234375 61.98194122314453 84.57883453369141 C 67.03730773925781 82.44058990478516 71.57810974121094 79.37889099121094 75.47824096679688 75.478759765625 C 79.37837219238281 71.57862854003906 82.44007110595703 67.03782653808594 84.57830810546875 61.98246002197266 C 86.79141235351562 56.75011825561523 87.91353607177734 51.19024658203125 87.91353607177734 45.4567756652832 C 87.91353607177734 39.72381591796875 86.79141235351562 34.16394424438477 84.57830810546875 28.93160247802734 C 82.44007110595703 23.87622833251953 79.37837219238281 19.33543395996094 75.47824096679688 15.435302734375 C 71.57810974121094 11.53517150878906 67.03730773925781 8.473472595214844 61.98194122314453 6.335227966308594 C 56.74959564208984 4.12213134765625 51.18972396850586 3 45.45676803588867 3 M 45.45676803588867 0 C 70.56185150146484 0 90.91353607177734 20.35169219970703 90.91353607177734 45.4567756652832 L 90.91353607177734 45.4572868347168 C 90.91353607177734 70.5623779296875 70.56185150146484 90.9140625 45.45676803588867 90.9140625 C 20.3516845703125 90.9140625 0 70.5623779296875 0 45.4572868347168 L 0 45.4567756652832 C 0 20.35169219970703 20.3516845703125 0 45.45676803588867 0 Z" stroke="none" fill="#fff"/>
      </g>
    </g>
    <g id="_x35_5_Solution" transform="translate(-3046.684 -9490.931)">
      <g id="Grupo_1110007" data-name="Grupo 1110007" transform="translate(18.222 3.619)">
        <path id="Trazado_901287" data-name="Trazado 901287" d="M116.892,82.11v2.235A1.352,1.352,0,0,1,115.54,85.7h-2.521a16,16,0,0,1-.806,3l2.2,1.26a1.352,1.352,0,0,1,.494,1.832l-1.118,1.936a1.364,1.364,0,0,1-1.845.494l-2.183-1.273a15.951,15.951,0,0,1-2.2,2.2l1.273,2.2a1.352,1.352,0,0,1-.494,1.833l-1.949,1.117a1.332,1.332,0,0,1-1.832-.494l-1.26-2.2-.045.017a4.475,4.475,0,0,0-2.957,4.17v6.9H95.371v-6.909a4.477,4.477,0,0,0-2.956-4.17l-.032-.012-1.273,2.2a1.326,1.326,0,0,1-1.832.494L87.34,99.173a1.352,1.352,0,0,1-.494-1.833l1.274-2.2a15.939,15.939,0,0,1-2.2-2.2l-2.2,1.273a1.355,1.355,0,0,1-1.832-.494l-1.118-1.936a1.352,1.352,0,0,1,.494-1.832l2.2-1.26a15.994,15.994,0,0,1-.806-3H80.127a1.339,1.339,0,0,1-1.339-1.352V82.11a1.339,1.339,0,0,1,1.339-1.339h2.534a15.478,15.478,0,0,1,.806-3l-2.2-1.261a1.352,1.352,0,0,1-.494-1.832l1.118-1.949a1.355,1.355,0,0,1,1.832-.494l2.2,1.274a15.158,15.158,0,0,1,2.2-2.183l-1.274-2.2a1.367,1.367,0,0,1,.494-1.845l1.936-1.118a1.349,1.349,0,0,1,1.832.494l1.273,2.209a14.74,14.74,0,0,1,2.989-.819V65.527a1.35,1.35,0,0,1,1.352-1.351h2.235a1.339,1.339,0,0,1,1.339,1.351v2.521a14.63,14.63,0,0,1,3,.819l1.26-2.209a1.355,1.355,0,0,1,1.832-.494l1.949,1.118a1.367,1.367,0,0,1,.494,1.845l-1.273,2.2a15.848,15.848,0,0,1,2.2,2.183l2.183-1.274a1.364,1.364,0,0,1,1.845.494l1.118,1.949a1.352,1.352,0,0,1-.494,1.832l-2.2,1.261a15.487,15.487,0,0,1,.806,3h2.521a1.34,1.34,0,0,1,1.352,1.339Z" transform="translate(-72.277 -57.665)" fill="#f78721"/>
        <path id="Trazado_901288" data-name="Trazado 901288" d="M182.293,147.541v2.239a1.342,1.342,0,0,1-1.349,1.349h-2.526a15.646,15.646,0,0,1-.8,3l2.2,1.253a1.36,1.36,0,0,1,.488,1.837l-1.11,1.933a1.363,1.363,0,0,1-1.847.5l-2.182-1.273a16.436,16.436,0,0,1-2.2,2.191l1.273,2.2a1.351,1.351,0,0,1-.488,1.828l-1.952,1.12a1.342,1.342,0,0,1-1.837-.5l-1.254-2.191-.04.015a4.476,4.476,0,0,0-2.965,4.173v6.9h-4.928v-6.911a4.482,4.482,0,0,0-2.957-4.17l-.029-.011-1.273,2.191a1.335,1.335,0,0,1-1.837.5l-1.933-1.12a1.345,1.345,0,0,1-.5-1.828l.708-1.225a20.66,20.66,0,0,0,23.091-20.507,18.446,18.446,0,0,0-.163-2.526l1.464-.852a1.363,1.363,0,0,1,1.847.5l1.11,1.943a1.36,1.36,0,0,1-.488,1.837l-2.2,1.263a15.028,15.028,0,0,1,.8,3h2.526A1.34,1.34,0,0,1,182.293,147.541Z" transform="translate(-137.68 -123.098)" opacity="0.12"/>
        <path id="Trazado_901289" data-name="Trazado 901289" d="M199.775,177.474a7.7,7.7,0,1,1-7.7-7.7A7.7,7.7,0,0,1,199.775,177.474Z" transform="translate(-166.511 -151.91)" fill="#e8f1f8"/>
        <path id="Trazado_901290" data-name="Trazado 901290" d="M232.176,478.8v.686a1.929,1.929,0,0,1-1.929,1.929h-2.665a1.929,1.929,0,0,1-1.929-1.929V478.8Z" transform="translate(-203.352 -427.711)" fill="#474747"/>
        <path id="Trazado_901291" data-name="Trazado 901291" d="M204.263,430.009a2.772,2.772,0,0,1-2.772,2.772h-8.627a2.772,2.772,0,1,1,0-5.543h8.627A2.772,2.772,0,0,1,204.263,430.009Z" transform="translate(-171.615 -381.693)" fill="#474747"/>
        <path id="Trazado_901292" data-name="Trazado 901292" d="M205.078,430.822a2.772,2.772,0,0,1-2.772,2.772H193.68a2.758,2.758,0,0,1-2.673-2.061,2.608,2.608,0,0,0,.71.1h8.627a2.772,2.772,0,0,0,2.772-2.772,2.636,2.636,0,0,0-.1-.71A2.76,2.76,0,0,1,205.078,430.822Z" transform="translate(-172.43 -382.507)" opacity="0.12"/>
        <path id="Trazado_901293" data-name="Trazado 901293" d="M251.873,6.821V4.184a.565.565,0,1,0-1.131,0V6.821a.565.565,0,1,0,1.131,0Z" transform="translate(-225.743 -3.619)"/>
        <path id="Trazado_901294" data-name="Trazado 901294" d="M136.646,38.107a.565.565,0,0,0,.207-.772l-1.318-2.284a.565.565,0,0,0-.979.565l1.318,2.284A.566.566,0,0,0,136.646,38.107Z" transform="translate(-121.98 -31.419)"/>
        <path id="Trazado_901295" data-name="Trazado 901295" d="M355.02,416.347a.565.565,0,0,0-.207.772l1.318,2.283a.565.565,0,0,0,.979-.565l-1.318-2.283A.565.565,0,0,0,355.02,416.347Z" transform="translate(-318.558 -371.906)"/>
        <path id="Trazado_901296" data-name="Trazado 901296" d="M52.5,121.274l-2.283-1.318a.565.565,0,0,0-.565.979l2.283,1.318a.565.565,0,0,0,.565-.979Z" transform="translate(-46.023 -107.381)"/>
        <path id="Trazado_901297" data-name="Trazado 901297" d="M434,341.531l-2.283-1.318a.565.565,0,0,0-.565.979l2.283,1.318a.565.565,0,1,0,.565-.979Z" transform="translate(-386.506 -303.957)"/>
        <path id="Trazado_901298" data-name="Trazado 901298" d="M18.222,236.709a.565.565,0,0,0,.565.565h2.637a.565.565,0,1,0,0-1.131H18.787A.565.565,0,0,0,18.222,236.709Z" transform="translate(-18.222 -211.145)"/>
        <path id="Trazado_901299" data-name="Trazado 901299" d="M462.506,236.709a.565.565,0,0,0-.565-.565H459.3a.565.565,0,1,0,0,1.131h2.636A.565.565,0,0,0,462.506,236.709Z" transform="translate(-411.378 -211.145)"/>
        <path id="Trazado_901300" data-name="Trazado 901300" d="M49.448,342.3a.566.566,0,0,0,.772.207l2.283-1.318a.565.565,0,1,0-.565-.979l-2.283,1.318A.565.565,0,0,0,49.448,342.3Z" transform="translate(-46.023 -303.957)"/>
        <path id="Trazado_901301" data-name="Trazado 901301" d="M434.209,120.163a.565.565,0,0,0-.772-.207l-2.283,1.318a.565.565,0,1,0,.565.979L434,120.936A.565.565,0,0,0,434.209,120.163Z" transform="translate(-386.505 -107.381)"/>
        <path id="Trazado_901302" data-name="Trazado 901302" d="M135.874,416.554l-1.318,2.283a.565.565,0,0,0,.979.565l1.318-2.283a.565.565,0,1,0-.979-.565Z" transform="translate(-121.98 -371.906)"/>
        <path id="Trazado_901303" data-name="Trazado 901303" d="M355.794,37.9l1.318-2.284a.565.565,0,0,0-.979-.565l-1.318,2.284a.565.565,0,0,0,.979.565Z" transform="translate(-318.559 -31.42)"/>
        <path id="Trazado_901304" data-name="Trazado 901304" d="M231.339,200.138a.565.565,0,0,0,.565-.565,1.589,1.589,0,0,1,1.987-1.537,1.564,1.564,0,0,1,1.11,1.071,1.607,1.607,0,0,1-.856,1.91,2.007,2.007,0,0,0-1.221,1.806v.425a.565.565,0,0,0,1.131,0v-.425a.881.881,0,0,1,.565-.781,2.732,2.732,0,0,0,1.47-3.241,2.69,2.69,0,0,0-1.936-1.865,2.72,2.72,0,0,0-3.381,2.637A.565.565,0,0,0,231.339,200.138Z" transform="translate(-207.922 -176.082)"/>
        <path id="Trazado_901305" data-name="Trazado 901305" d="M251.307,271.861a.565.565,0,0,0-.565.565v.384a.565.565,0,1,0,1.131,0v-.384A.565.565,0,0,0,251.307,271.861Z" transform="translate(-225.743 -243.022)"/>
        <path id="Trazado_901306" data-name="Trazado 901306" d="M187.385,181.047a8.266,8.266,0,1,0-8.267-8.267A8.275,8.275,0,0,0,187.385,181.047Zm0-15.4a7.135,7.135,0,1,1-7.136,7.135A7.143,7.143,0,0,1,187.385,165.646Z" transform="translate(-161.82 -147.217)"/>
        <path id="Trazado_901307" data-name="Trazado 901307" d="M75.443,75.521a1.9,1.9,0,0,0-1.905,1.9v2.239a1.913,1.913,0,0,0,1.905,1.917H77.5a16.909,16.909,0,0,0,.584,2.181l-1.781,1.024a1.907,1.907,0,0,0-.7,2.6l1.118,1.948a1.931,1.931,0,0,0,2.6.69l1.79-1.035A16.769,16.769,0,0,0,82.7,90.582l-1.037,1.793a1.912,1.912,0,0,0,.7,2.6l1.935,1.12a1.893,1.893,0,0,0,2.6-.7l1.025-1.76a3.866,3.866,0,0,1,2.183,3.46v.865H88.841a3.337,3.337,0,1,0,0,6.674h.486v.122a2.5,2.5,0,0,0,2.495,2.494h2.665a2.5,2.5,0,0,0,2.495-2.494v-.122h.486a3.337,3.337,0,0,0,0-6.674h-1.29V97.1a3.858,3.858,0,0,1,2.2-3.467l1.011,1.759a1.9,1.9,0,0,0,2.6.706l1.953-1.12a1.917,1.917,0,0,0,.7-2.6l-1.035-1.79A16.671,16.671,0,0,0,105.2,88.99l1.782,1.039a1.942,1.942,0,0,0,2.613-.7l1.121-1.943a1.915,1.915,0,0,0-.708-2.6l-1.784-1.026a16.865,16.865,0,0,0,.583-2.181h2.049a1.919,1.919,0,0,0,1.917-1.917V77.421a1.91,1.91,0,0,0-1.917-1.9H108.8a16.3,16.3,0,0,0-.583-2.183L110,72.314a1.921,1.921,0,0,0,.706-2.609l-1.12-1.945a1.94,1.94,0,0,0-2.624-.7L105.193,68.1a16.332,16.332,0,0,0-1.589-1.588l1.038-1.791a1.933,1.933,0,0,0-.705-2.614l-1.949-1.113a1.917,1.917,0,0,0-2.6.7l-1.022,1.792a15.394,15.394,0,0,0-2.184-.595V60.84a1.913,1.913,0,0,0-1.905-1.916H92.034a1.918,1.918,0,0,0-1.916,1.916v2.049a15.284,15.284,0,0,0-2.17.595l-1.036-1.791a1.911,1.911,0,0,0-2.606-.7l-1.939,1.117a1.93,1.93,0,0,0-.7,2.618L82.7,66.507a15.668,15.668,0,0,0-1.592,1.588l-1.792-1.041a1.929,1.929,0,0,0-2.6.707L75.6,69.705a1.916,1.916,0,0,0,.7,2.61l1.783,1.025a16.285,16.285,0,0,0-.584,2.182Zm20.407,29.231a1.365,1.365,0,0,1-1.364,1.364H91.822a1.365,1.365,0,0,1-1.364-1.364v-.121h5.393Zm3.823-3.459a2.209,2.209,0,0,1-2.206,2.206H88.841a2.206,2.206,0,1,1,0-4.412h8.627A2.209,2.209,0,0,1,99.674,101.294ZM78.533,76.178a15.117,15.117,0,0,1,.774-2.894.566.566,0,0,0-.247-.689l-2.193-1.26a.787.787,0,0,1-.283-1.067l1.109-1.938a.791.791,0,0,1,1.062-.3l2.2,1.277a.562.562,0,0,0,.722-.131,14.553,14.553,0,0,1,2.112-2.106.566.566,0,0,0,.133-.723l-1.267-2.184a.8.8,0,0,1,.285-1.084l1.929-1.111a.777.777,0,0,1,1.064.282l1.277,2.21a.568.568,0,0,0,.7.243,14.167,14.167,0,0,1,2.87-.788.565.565,0,0,0,.473-.558V60.841a.786.786,0,0,1,.786-.786h2.239a.772.772,0,0,1,.775.786v2.521a.566.566,0,0,0,.474.558,14.242,14.242,0,0,1,2.887.788.566.566,0,0,0,.7-.246l1.257-2.2a.783.783,0,0,1,1.063-.287l1.94,1.108a.813.813,0,0,1,.293,1.079l-1.272,2.193a.566.566,0,0,0,.133.723,15.2,15.2,0,0,1,2.114,2.109.566.566,0,0,0,.72.127l2.171-1.271a.8.8,0,0,1,1.084.285l1.117,1.942a.8.8,0,0,1-.287,1.068l-2.193,1.26a.565.565,0,0,0-.247.689,15.1,15.1,0,0,1,.773,2.894.566.566,0,0,0,.558.474h2.521a.769.769,0,0,1,.786.768v2.239a.787.787,0,0,1-.786.786h-2.521a.565.565,0,0,0-.558.473,15.624,15.624,0,0,1-.775,2.9.566.566,0,0,0,.248.687l2.2,1.263a.785.785,0,0,1,.286,1.057l-1.118,1.938a.8.8,0,0,1-1.075.287l-2.182-1.272a.566.566,0,0,0-.722.129,15.586,15.586,0,0,1-2.116,2.117.565.565,0,0,0-.13.719l1.27,2.2A.792.792,0,0,1,103.376,94l-1.954,1.121a.768.768,0,0,1-1.056-.291l-1.26-2.193a.568.568,0,0,0-.664-.257A5.008,5.008,0,0,0,95.048,97.1v.858h-3.8v-.865a5.024,5.024,0,0,0-3.344-4.7.565.565,0,0,0-.7.242l-1.283,2.2a.763.763,0,0,1-1.054.283L82.938,94a.79.79,0,0,1-.29-1.059l1.272-2.2a.565.565,0,0,0-.13-.719A15.582,15.582,0,0,1,81.674,87.9a.565.565,0,0,0-.72-.13l-2.2,1.27a.791.791,0,0,1-1.061-.282l-1.114-1.94a.778.778,0,0,1,.283-1.059L79.06,84.5a.566.566,0,0,0,.248-.687,15.67,15.67,0,0,1-.776-2.9.565.565,0,0,0-.558-.473H75.443a.781.781,0,0,1-.775-.786V77.421a.772.772,0,0,1,.775-.769h2.532a.566.566,0,0,0,.558-.474Z" transform="translate(-67.591 -52.978)"/>
      </g>
    </g>
  </g>
</svg>
