<svg xmlns="http://www.w3.org/2000/svg" xmlns:xlink="http://www.w3.org/1999/xlink" width="108.914" height="108.914" viewBox="0 0 108.914 108.914">
  <defs>
    <filter id="Trazado_874925" x="0" y="0" width="108.914" height="108.914" filterUnits="userSpaceOnUse">
      <feOffset dy="3" input="SourceAlpha"/>
      <feGaussianBlur stdDeviation="3" result="blur"/>
      <feFlood flood-opacity="0.161"/>
      <feComposite operator="in" in2="blur"/>
      <feComposite in="SourceGraphic"/>
    </filter>
  </defs>
  <g id="Grupo_1110006" data-name="Grupo 1110006" transform="translate(2742.354 9511.635)">
    <g transform="matrix(1, 0, 0, 1, -2742.35, -9511.63)" filter="url(#Trazado_874925)">
      <g id="Trazado_874925-2" data-name="Trazado 874925" transform="translate(9 6)" fill="#de93ea" opacity="0.859">
        <path d="M 45.45676803588867 89.41407012939453 C 39.52198028564453 89.41407012939453 33.76551818847656 88.25206756591797 28.34726715087891 85.96034240722656 C 23.11311721801758 83.74648284912109 18.41204261779785 80.57682800292969 14.37464332580566 76.5394287109375 C 10.33724308013916 72.50202941894531 7.167593002319336 67.80095672607422 4.953730583190918 62.56679534912109 C 2.662005424499512 57.14855575561523 1.500005483627319 51.39208221435547 1.500005483627319 45.45729446411133 C 1.500005483627319 39.52198028564453 2.662005424499512 33.76551818847656 4.953730583190918 28.34726905822754 C 7.167593002319336 23.11310577392578 10.33724308013916 18.41203117370605 14.37464332580566 14.37464332580566 C 18.41204261779785 10.33724403381348 23.11311721801758 7.167593955993652 28.34726715087891 4.953731060028076 C 33.76551818847656 2.662006139755249 39.52198028564453 1.500006198883057 45.45676803588867 1.500006198883057 C 51.39155578613281 1.500006198883057 57.14802932739258 2.662006139755249 62.56626892089844 4.953731060028076 C 67.80043029785156 7.167593955993652 72.50150299072266 10.33724403381348 76.53890228271484 14.37464332580566 C 80.57630920410156 18.41203117370605 83.74595642089844 23.11310577392578 85.95981597900391 28.34726905822754 C 88.25154113769531 33.76551818847656 89.41354370117188 39.52198028564453 89.41354370117188 45.45676803588867 C 89.41354370117188 51.39208221435547 88.25154113769531 57.14855575561523 85.95981597900391 62.56679534912109 C 83.74595642089844 67.80095672607422 80.57630920410156 72.50202941894531 76.53890228271484 76.5394287109375 C 72.50150299072266 80.57682800292969 67.80043029785156 83.74648284912109 62.56626892089844 85.96034240722656 C 57.14802932739258 88.25206756591797 51.39155578613281 89.41407012939453 45.45676803588867 89.41407012939453 Z" stroke="none"/>
        <path d="M 45.45676803588867 3 C 39.72381210327148 3 34.1639404296875 4.12213134765625 28.93159484863281 6.335227966308594 C 23.87622833251953 8.473472595214844 19.33542633056641 11.53517150878906 15.43529510498047 15.435302734375 C 11.53517150878906 19.33543395996094 8.473464965820312 23.87622833251953 6.335227966308594 28.93160247802734 C 4.122123718261719 34.16394424438477 3 39.72381591796875 3 45.4572868347168 C 3 51.19024658203125 4.122123718261719 56.75011825561523 6.335227966308594 61.98246002197266 C 8.473464965820312 67.03782653808594 11.53517150878906 71.57862854003906 15.43529510498047 75.478759765625 C 19.33542633056641 79.37889099121094 23.87622833251953 82.44058990478516 28.93159484863281 84.57883453369141 C 34.1639404296875 86.79193115234375 39.72381210327148 87.9140625 45.45676803588867 87.9140625 C 51.18972396850586 87.9140625 56.74959564208984 86.79193115234375 61.98194122314453 84.57883453369141 C 67.03730773925781 82.44058990478516 71.57810974121094 79.37889099121094 75.47824096679688 75.478759765625 C 79.37837219238281 71.57862854003906 82.44007110595703 67.03782653808594 84.57830810546875 61.98246002197266 C 86.79141235351562 56.75011825561523 87.91353607177734 51.19024658203125 87.91353607177734 45.4567756652832 C 87.91353607177734 39.72381591796875 86.79141235351562 34.16394424438477 84.57830810546875 28.93160247802734 C 82.44007110595703 23.87622833251953 79.37837219238281 19.33543395996094 75.47824096679688 15.435302734375 C 71.57810974121094 11.53517150878906 67.03730773925781 8.473472595214844 61.98194122314453 6.335227966308594 C 56.74959564208984 4.12213134765625 51.18972396850586 3 45.45676803588867 3 M 45.45676803588867 0 C 70.56185150146484 0 90.91353607177734 20.35169219970703 90.91353607177734 45.4567756652832 L 90.91353607177734 45.4572868347168 C 90.91353607177734 70.5623779296875 70.56185150146484 90.9140625 45.45676803588867 90.9140625 C 20.3516845703125 90.9140625 0 70.5623779296875 0 45.4572868347168 L 0 45.4567756652832 C 0 20.35169219970703 20.3516845703125 0 45.45676803588867 0 Z" stroke="none" fill="#fff"/>
      </g>
    </g>
    <g id="Grupo_1110005" data-name="Grupo 1110005" transform="translate(-2715.962 -9488.607)">
      <g id="Color" transform="translate(2.416 2.416)">
        <path id="Trazado_901274" data-name="Trazado 901274" d="M6.664,3.832V47.8H3V3.832L4.832,2Z" transform="translate(-1.168 -2)" fill="#f45151"/>
        <path id="Trazado_901275" data-name="Trazado 901275" d="M47.8,27v3.664H3.832L2,28.832,3.832,27Z" transform="translate(-2 18.8)" fill="#ffc943"/>
        <path id="Trazado_901276" data-name="Trazado 901276" d="M30.664,5V48.968L28.832,50.8,27,48.968V5Z" transform="translate(18.8 0.496)" fill="#f45151"/>
        <path id="Trazado_901277" data-name="Trazado 901277" d="M50.8,4.832,48.968,6.664H5V3H48.968Z" transform="translate(0.496 -1.168)" fill="#ffc943"/>
        <path id="Trazado_901278" data-name="Trazado 901278" d="M34.648,21.824a12.723,12.723,0,0,1-3.517,8.812,10.968,10.968,0,0,0-9.307-5.148,5.5,5.5,0,1,0-5.5-5.5,5.489,5.489,0,0,0,5.5,5.5,10.968,10.968,0,0,0-9.307,5.148,12.821,12.821,0,1,1,22.131-8.812Z" transform="translate(3.824 3.824)" fill="#f2f2f2"/>
        <g id="Grupo_1110004" data-name="Grupo 1110004" transform="translate(16.342 18.32)">
          <path id="Trazado_901279" data-name="Trazado 901279" d="M29.533,23.148a12.8,12.8,0,0,1-18.613,0,10.986,10.986,0,0,1,18.613,0Z" transform="translate(-10.92 -7.008)" fill="#43b3ff"/>
          <circle id="Elipse_11554" data-name="Elipse 11554" cx="5.496" cy="5.496" r="5.496" transform="translate(3.811)" fill="#43b3ff"/>
        </g>
      </g>
      <g id="Line" transform="translate(1.5 1.5)">
        <path id="Trazado_901280" data-name="Trazado 901280" d="M44.872,1.768a.916.916,0,0,0-1.3,1.3l.268.268H9.416a.916.916,0,0,0,0,1.832H45.677l.916.916L45.677,7H9.416a.916.916,0,0,0,0,1.832H43.845l-.268.268a.916.916,0,1,0,1.3,1.3l3.664-3.664a.916.916,0,0,0,0-1.3Z" transform="translate(4.324 -1.5)"/>
        <path id="Trazado_901281" data-name="Trazado 901281" d="M1.768,5.432a.916.916,0,0,0,1.3,1.3l.268-.268V40.888a.916.916,0,0,0,1.832,0V4.627l.916-.916L7,4.627V40.888a.916.916,0,0,0,1.832,0V6.459l.268.268a.916.916,0,1,0,1.3-1.3L6.728,1.768a.916.916,0,0,0-1.3,0Z" transform="translate(-1.5 -1.5)"/>
        <path id="Trazado_901282" data-name="Trazado 901282" d="M5.432,34.392a.916.916,0,0,0,1.3-1.3l-.268-.268H40.888a.916.916,0,0,0,0-1.832H4.627l-.916-.916.916-.916H40.888a.916.916,0,0,0,0-1.832H6.459l.268-.268a.916.916,0,1,0-1.3-1.3L1.768,29.432a.916.916,0,0,0,0,1.3Z" transform="translate(-1.5 18.468)"/>
        <path id="Trazado_901283" data-name="Trazado 901283" d="M34.392,44.872a.916.916,0,0,0-1.3-1.3l-.268.268V9.416a.916.916,0,0,0-1.832,0V45.677l-.916.916-.916-.916V9.416a.916.916,0,0,0-1.832,0V43.845l-.268-.268a.916.916,0,1,0-1.3,1.3l3.664,3.664a.916.916,0,0,0,1.3,0Z" transform="translate(18.468 4.324)"/>
        <path id="Trazado_901284" data-name="Trazado 901284" d="M11.407,15.279a.918.918,0,0,0-1.242.37,13.7,13.7,0,1,0,5.484-5.482.916.916,0,1,0,.869,1.612A11.9,11.9,0,0,1,31.607,29.568a11.782,11.782,0,0,0-5.64-3.964,6.412,6.412,0,1,0-7.454,0,11.782,11.782,0,0,0-5.64,3.964,11.921,11.921,0,0,1-1.1-13.048.915.915,0,0,0-.37-1.242Zm6.253,5.129a4.58,4.58,0,1,1,4.58,4.58,4.585,4.585,0,0,1-4.58-4.58Zm4.58,6.412a10,10,0,0,1,8.1,4.122,11.84,11.84,0,0,1-16.2,0,10,10,0,0,1,8.1-4.122Z" transform="translate(4.324 4.324)"/>
        <path id="Trazado_901285" data-name="Trazado 901285" d="M17.652,15.475a.916.916,0,0,1-1.3,0,.916.916,0,0,0-1.3,1.3,2.751,2.751,0,0,0,3.886,0,.916.916,0,0,0-1.3-1.3Z" transform="translate(9.56 9.904)"/>
        <path id="Trazado_901286" data-name="Trazado 901286" d="M12.114,12.114a.916.916,0,1,0-1.3,0A.916.916,0,0,0,12.114,12.114Z" transform="translate(6.03 6.03)"/>
      </g>
    </g>
  </g>
</svg>
