<svg xmlns="http://www.w3.org/2000/svg" xmlns:xlink="http://www.w3.org/1999/xlink" width="108.914" height="108.914" viewBox="0 0 108.914 108.914">
  <defs>
    <filter id="Trazado_874925" x="0" y="0" width="108.914" height="108.914" filterUnits="userSpaceOnUse">
      <feOffset dy="3" input="SourceAlpha"/>
      <feGaussianBlur stdDeviation="3" result="blur"/>
      <feFlood flood-opacity="0.161"/>
      <feComposite operator="in" in2="blur"/>
      <feComposite in="SourceGraphic"/>
    </filter>
  </defs>
  <g id="Grupo_1110003" data-name="Grupo 1110003" transform="translate(2427 9512)">
    <g transform="matrix(1, 0, 0, 1, -2427, -9512)" filter="url(#Trazado_874925)">
      <g id="Trazado_874925-2" data-name="Trazado 874925" transform="translate(9 6)" fill="#de93ea" opacity="0.859">
        <path d="M 45.45676803588867 89.41407012939453 C 39.52198028564453 89.41407012939453 33.76551818847656 88.25206756591797 28.34726715087891 85.96034240722656 C 23.11311721801758 83.74648284912109 18.41204261779785 80.57682800292969 14.37464332580566 76.5394287109375 C 10.33724308013916 72.50202941894531 7.167593002319336 67.80095672607422 4.953730583190918 62.56679534912109 C 2.662005424499512 57.14855575561523 1.500005483627319 51.39208221435547 1.500005483627319 45.45729446411133 C 1.500005483627319 39.52198028564453 2.662005424499512 33.76551818847656 4.953730583190918 28.34726905822754 C 7.167593002319336 23.11310577392578 10.33724308013916 18.41203117370605 14.37464332580566 14.37464332580566 C 18.41204261779785 10.33724403381348 23.11311721801758 7.167593955993652 28.34726715087891 4.953731060028076 C 33.76551818847656 2.662006139755249 39.52198028564453 1.500006198883057 45.45676803588867 1.500006198883057 C 51.39155578613281 1.500006198883057 57.14802932739258 2.662006139755249 62.56626892089844 4.953731060028076 C 67.80043029785156 7.167593955993652 72.50150299072266 10.33724403381348 76.53890228271484 14.37464332580566 C 80.57630920410156 18.41203117370605 83.74595642089844 23.11310577392578 85.95981597900391 28.34726905822754 C 88.25154113769531 33.76551818847656 89.41354370117188 39.52198028564453 89.41354370117188 45.45676803588867 C 89.41354370117188 51.39208221435547 88.25154113769531 57.14855575561523 85.95981597900391 62.56679534912109 C 83.74595642089844 67.80095672607422 80.57630920410156 72.50202941894531 76.53890228271484 76.5394287109375 C 72.50150299072266 80.57682800292969 67.80043029785156 83.74648284912109 62.56626892089844 85.96034240722656 C 57.14802932739258 88.25206756591797 51.39155578613281 89.41407012939453 45.45676803588867 89.41407012939453 Z" stroke="none"/>
        <path d="M 45.45676803588867 3 C 39.72381210327148 3 34.1639404296875 4.12213134765625 28.93159484863281 6.335227966308594 C 23.87622833251953 8.473472595214844 19.33542633056641 11.53517150878906 15.43529510498047 15.435302734375 C 11.53517150878906 19.33543395996094 8.473464965820312 23.87622833251953 6.335227966308594 28.93160247802734 C 4.122123718261719 34.16394424438477 3 39.72381591796875 3 45.4572868347168 C 3 51.19024658203125 4.122123718261719 56.75011825561523 6.335227966308594 61.98246002197266 C 8.473464965820312 67.03782653808594 11.53517150878906 71.57862854003906 15.43529510498047 75.478759765625 C 19.33542633056641 79.37889099121094 23.87622833251953 82.44058990478516 28.93159484863281 84.57883453369141 C 34.1639404296875 86.79193115234375 39.72381210327148 87.9140625 45.45676803588867 87.9140625 C 51.18972396850586 87.9140625 56.74959564208984 86.79193115234375 61.98194122314453 84.57883453369141 C 67.03730773925781 82.44058990478516 71.57810974121094 79.37889099121094 75.47824096679688 75.478759765625 C 79.37837219238281 71.57862854003906 82.44007110595703 67.03782653808594 84.57830810546875 61.98246002197266 C 86.79141235351562 56.75011825561523 87.91353607177734 51.19024658203125 87.91353607177734 45.4567756652832 C 87.91353607177734 39.72381591796875 86.79141235351562 34.16394424438477 84.57830810546875 28.93160247802734 C 82.44007110595703 23.87622833251953 79.37837219238281 19.33543395996094 75.47824096679688 15.435302734375 C 71.57810974121094 11.53517150878906 67.03730773925781 8.473472595214844 61.98194122314453 6.335227966308594 C 56.74959564208984 4.12213134765625 51.18972396850586 3 45.45676803588867 3 M 45.45676803588867 0 C 70.56185150146484 0 90.91353607177734 20.35169219970703 90.91353607177734 45.4567756652832 L 90.91353607177734 45.4572868347168 C 90.91353607177734 70.5623779296875 70.56185150146484 90.9140625 45.45676803588867 90.9140625 C 20.3516845703125 90.9140625 0 70.5623779296875 0 45.4572868347168 L 0 45.4567756652832 C 0 20.35169219970703 20.3516845703125 0 45.45676803588867 0 Z" stroke="none" fill="#fff"/>
      </g>
    </g>
    <g id="Grupo_1110002" data-name="Grupo 1110002" transform="translate(-2466.5 -9500.5)">
      <g id="Grupo_1110000" data-name="Grupo 1110000" transform="translate(68.5 7.5)">
        <path id="Trazado_901256" data-name="Trazado 901256" d="M157.14,380.8l6.169,6.865v6.972h13.972v-6.972l6.169-6.865-3.367-3.025L178.7,379.31h-5.1a5.992,5.992,0,0,1-6.622,0h-5.1l-1.379-1.534Z" transform="translate(-145.345 -328.504)" fill="#8ae897" fill-rule="evenodd"/>
        <circle id="Elipse_11550" data-name="Elipse 11550" cx="5.988" cy="5.988" r="5.988" transform="translate(18.962 39.827)" fill="#fdf1e0"/>
        <path id="Trazado_901257" data-name="Trazado 901257" d="M151.3,294.3l6.85,6.155-1.379,1.535,3.367,3.025,3.07-3.417a2,2,0,0,0-.151-2.819l-1.886-1.695-6.846-6.151A2.263,2.263,0,0,0,151.3,294.3Zm-15.484,6.155,6.85-6.155a2.263,2.263,0,0,0-3.025-3.367l-6.846,6.151-1.886,1.695a2,2,0,0,0-.151,2.819l3.07,3.417,3.367-3.025Z" transform="translate(-122.029 -252.714)" fill="#fdf1e0" fill-rule="evenodd"/>
        <path id="Trazado_901258" data-name="Trazado 901258" d="M119.458,99.343a5.988,5.988,0,0,1,3.311,10.978h5.1l2.758-3.069-6.85-6.155a2.263,2.263,0,0,1,3.025-3.367l6.846,6.151a20.958,20.958,0,1,0-28.376,0l6.846-6.151a2.263,2.263,0,0,1,3.025,3.367l-6.85,6.155,2.758,3.069h5.1a5.988,5.988,0,0,1,3.311-10.978Zm0-7.892a2.994,2.994,0,1,1,2.994-2.994A2.993,2.993,0,0,1,119.458,91.452Z" transform="translate(-94.508 -59.516)" fill="#75e6fb" fill-rule="evenodd"/>
        <path id="Trazado_901259" data-name="Trazado 901259" d="M150.18,273.053a5.988,5.988,0,0,1,3.311,10.978h5.1l2.758-3.069-6.85-6.155a2.263,2.263,0,1,1,3.025-3.367l6.846,6.151a21.1,21.1,0,0,0,2.054-2.179l-6.9-6.2a5.258,5.258,0,0,0-7.869.966,9.072,9.072,0,0,0-2.949,0,5.258,5.258,0,0,0-7.869-.966l-6.9,6.2a21.1,21.1,0,0,0,2.054,2.179l6.846-6.151a2.263,2.263,0,0,1,3.025,3.367l-6.85,6.155,2.758,3.069h5.1a5.988,5.988,0,0,1,3.311-10.978Z" transform="translate(-125.231 -233.226)" fill="#00ccf6" fill-rule="evenodd"/>
        <circle id="Elipse_11551" data-name="Elipse 11551" cx="3.242" cy="3.242" r="3.242" transform="translate(21.708 25.934)" fill="#ffef8a"/>
        <path id="Trazado_901260" data-name="Trazado 901260" d="M114.407,62.45a20.9,20.9,0,0,1-6.77,15.424l1.886,1.695a1.99,1.99,0,0,1,.657,1.388,24.95,24.95,0,1,0-33.463,0,1.989,1.989,0,0,1,.657-1.388l1.886-1.695A20.958,20.958,0,1,1,114.407,62.45Z" transform="translate(-68.5 -33.508)" fill="#5b92f2" fill-rule="evenodd"/>
        <path id="Trazado_901261" data-name="Trazado 901261" d="M148.082,324.54a21.116,21.116,0,0,1-2.055,2.179l1.886,1.695a1.99,1.99,0,0,1,.657,1.388A25.1,25.1,0,0,0,150.9,327.4a4.98,4.98,0,0,0-.982-1.21l-1.833-1.647Zm-35.3,2.857a25.093,25.093,0,0,0,2.326,2.405,1.989,1.989,0,0,1,.657-1.388l1.886-1.695a21.12,21.12,0,0,1-2.055-2.179l-1.833,1.647A4.977,4.977,0,0,0,112.782,327.4Z" transform="translate(-106.89 -282.353)" fill="#006dee" fill-rule="evenodd"/>
        <path id="Trazado_901262" data-name="Trazado 901262" d="M229.992,11.492a25.128,25.128,0,0,1,3.992.318V9.5a2,2,0,0,0-2-2H228a2,2,0,0,0-2,2V11.81A25.128,25.128,0,0,1,229.992,11.492Z" transform="translate(-205.042 -7.5)" fill="#ffef8a" fill-rule="evenodd"/>
        <path id="Trazado_901263" data-name="Trazado 901263" d="M230.99,7.5H228a2,2,0,0,0-2,2V11.81a25.067,25.067,0,0,1,2.994-.3V9.5A2,2,0,0,1,230.99,7.5Z" transform="translate(-205.042 -7.5)" fill="#ffe300" fill-rule="evenodd"/>
        <path id="Trazado_901264" data-name="Trazado 901264" d="M211,312.782a6,6,0,0,0,7.485,5.8,5.99,5.99,0,0,1,0-11.6A6,6,0,0,0,211,312.782Z" transform="translate(-192.038 -266.966)" fill="#ffe1b6" fill-rule="evenodd"/>
        <path id="Trazado_901265" data-name="Trazado 901265" d="M157.14,387.475l6.169,6.865v6.972H166.3v-8.12l-6.936-7.719Z" transform="translate(-145.345 -335.179)" fill="#00d43d" fill-rule="evenodd"/>
        <path id="Trazado_901266" data-name="Trazado 901266" d="M131.646,348.639l4.4,4.9-2.227,2-3.07-3.417a2,2,0,0,1,.151-2.819Z" transform="translate(-122.028 -303.245)" fill="#ffe1b6" fill-rule="evenodd"/>
        <path id="Trazado_901267" data-name="Trazado 901267" d="M316,114.495v-2m3.992,3.992v-2" transform="translate(-283.066 -98.527)" fill="none" stroke="#fff" stroke-miterlimit="2.613" stroke-width="2" fill-rule="evenodd"/>
      </g>
      <g id="Grupo_1110001" data-name="Grupo 1110001" transform="translate(68.5 7.5)">
        <circle id="Elipse_11552" data-name="Elipse 11552" cx="5.988" cy="5.988" r="5.988" transform="translate(18.962 39.827)" fill="none" stroke="#000" stroke-miterlimit="22.926" stroke-width="2"/>
        <path id="Trazado_901268" data-name="Trazado 901268" d="M180.084,377.776l3.367,3.025m-22.943-3.025-3.367,3.025" transform="translate(-145.346 -328.505)" fill="none" stroke="#000" stroke-miterlimit="22.926" stroke-width="2" fill-rule="evenodd"/>
        <path id="Trazado_901269" data-name="Trazado 901269" d="M143.666,303.519h-5.1l-2.758-3.069,6.85-6.155a2.263,2.263,0,0,0-3.025-3.367l-8.732,7.846a2,2,0,0,0-.151,2.819l9.239,10.282v6.972h3.992m2,0h2m2,0h3.992v-6.972l9.239-10.282a2,2,0,0,0-.151-2.819l-8.732-7.846a2.263,2.263,0,1,0-3.025,3.367l6.85,6.155-2.758,3.069h-5.1" transform="translate(-122.027 -252.714)" fill="none" stroke="#000" stroke-miterlimit="22.926" stroke-width="2" fill-rule="evenodd"/>
        <path id="Trazado_901270" data-name="Trazado 901270" d="M76.718,80.957a24.947,24.947,0,0,1-1.651-35.375m1.456-1.46a24.949,24.949,0,1,1,33.658,36.835m-2.543-3.083a20.958,20.958,0,1,0-28.376,0" transform="translate(-68.5 -33.508)" fill="none" stroke="#000" stroke-miterlimit="22.926" stroke-width="2" fill-rule="evenodd"/>
        <path id="Trazado_901271" data-name="Trazado 901271" d="M93.45,41.492V37.5m10.479,6.8,2-3.457M111.6,72.929l3.457,2M71.843,49.975l3.457,2M82.971,44.3l-2-3.457M75.3,72.929l-3.457,2m43.214-24.95-3.457,2M72.492,62.45H68.5m49.9,0h-3.992" transform="translate(-68.5 -33.508)" fill="none" stroke="#000" stroke-miterlimit="2.613" stroke-width="2" fill-rule="evenodd"/>
        <path id="Trazado_901272" data-name="Trazado 901272" d="M226,11.81V9.5a2,2,0,0,1,2-2h3.992a2,2,0,0,1,2,2V11.81" transform="translate(-205.042 -7.5)" fill="none" stroke="#000" stroke-miterlimit="22.926" stroke-width="2" fill-rule="evenodd"/>
        <circle id="Elipse_11553" data-name="Elipse 11553" cx="3.242" cy="3.242" r="3.242" transform="translate(21.708 25.934)" fill="none" stroke="#000" stroke-miterlimit="22.926" stroke-width="2"/>
        <path id="Trazado_901273" data-name="Trazado 901273" d="M168.65,107.822,171.473,105l2.823,2.823M161.322,123.79l-2.823-2.823,2.823-2.823" transform="translate(-146.523 -92.025)" fill="none" stroke="#000" stroke-miterlimit="22.926" stroke-width="2" fill-rule="evenodd"/>
        <line id="Línea_610" data-name="Línea 610" y2="12.507" transform="translate(24.95 12.974)" fill="none" stroke="#000" stroke-miterlimit="22.926" stroke-width="2"/>
        <line id="Línea_611" data-name="Línea 611" x2="9.74" transform="translate(11.976 28.942)" fill="none" stroke="#000" stroke-miterlimit="22.926" stroke-width="2"/>
      </g>
    </g>
  </g>
</svg>
