<svg xmlns="http://www.w3.org/2000/svg" width="84" height="84" viewBox="0 0 84 84">
  <g id="Grupo_1110050" data-name="Grupo 1110050" transform="translate(-1335.051 -1167)">
    <rect id="Rect치ngulo_403147" data-name="Rect치ngulo 403147" width="84" height="84" transform="translate(1335.051 1167)" fill="none"/>
    <g id="Grupo_1110049" data-name="Grupo 1110049" transform="translate(1319.152 1171.779)">
      <rect id="Rect치ngulo_403148" data-name="Rect치ngulo 403148" width="52.509" height="68.762" rx="10" transform="translate(31.695 2.445)" fill="#afafaf"/>
      <path id="Trazado_901350" data-name="Trazado 901350" d="M44.5,15.25H90.9V73.894H44.5Z" transform="translate(-9.749 -9.749)" fill="#f0c020"/>
      <path id="Trazado_901351" data-name="Trazado 901351" d="M44.5,15.25H90.9v7.085H44.5Z" transform="translate(-9.749 -9.749)" fill="#efefef"/>
      <path id="Trazado_901352" data-name="Trazado 901352" d="M93.077,96.272h-1.25a.695.695,0,0,1,0-1.389h1.25a.695.695,0,1,1,0,1.389Zm-4.028,0h-36.6a.7.7,0,0,1-.695-.695V49.945a.695.695,0,0,1,1.389,0V94.883H89.048a.695.695,0,0,1,0,1.389Z" transform="translate(-14.985 -34.303)" fill="#f9e5af"/>
      <path id="Trazado_901353" data-name="Trazado 901353" d="M93.936,83.441l-2.093,2.093a12.308,12.308,0,0,0-21.934,6.291H71.5a.735.735,0,0,1,.637,1.1l-3.127,5.418a.736.736,0,0,1-1.275,0L64.6,92.928a.735.735,0,0,1,.637-1.1h1.71A15.248,15.248,0,0,1,82.138,77.864h.014A15.2,15.2,0,0,1,93.936,83.441Z" transform="translate(-24.196 -54.967)" fill="#72c1e8"/>
      <path id="Trazado_901354" data-name="Trazado 901354" d="M85.562,127.862l2.093-2.093a12.308,12.308,0,0,0,21.934-6.291H108a.735.735,0,0,1-.637-1.1l3.127-5.418a.736.736,0,0,1,1.275,0l3.127,5.418a.735.735,0,0,1-.637,1.1h-1.71A15.248,15.248,0,0,1,97.36,133.439h-.014a15.2,15.2,0,0,1-11.783-5.577Z" transform="translate(-39.403 -80.045)" fill="#13bf6d"/>
      <circle id="Elipse_11561" data-name="Elipse 11561" cx="0.695" cy="0.695" r="0.695" transform="translate(70.868 11.891)"/>
      <path id="Trazado_901355" data-name="Trazado 901355" d="M81.426,1.75H34.473A3.477,3.477,0,0,0,31,5.223V68.428A3.477,3.477,0,0,0,34.473,71.9H81.426A3.477,3.477,0,0,0,84.9,68.428V5.223A3.477,3.477,0,0,0,81.426,1.75Zm2.084,66.678a2.086,2.086,0,0,1-2.084,2.084H34.473a2.086,2.086,0,0,1-2.084-2.084V5.223a2.086,2.086,0,0,1,2.084-2.084H81.426a2.086,2.086,0,0,1,2.084,2.084Z"/>
      <circle id="Elipse_11562" data-name="Elipse 11562" cx="0.695" cy="0.695" r="0.695" transform="translate(80.453 52.57)"/>
      <path id="Trazado_901356" data-name="Trazado 901356" d="M89.092,12.75h-46.4a.7.7,0,0,0-.695.695V72.088a.7.7,0,0,0,.695.695h46.4a.7.7,0,0,0,.695-.695v-8.1a.695.695,0,0,0-1.389,0v7.41H43.389V21.224H76.728a.695.695,0,1,0,.006-1.389H55.53l-1.749-5.7H88.4v5.7H82.285a.695.695,0,0,0,0,1.389H88.4V58.43a.695.695,0,0,0,1.389,0V13.445a.692.692,0,0,0-.695-.695ZM54.077,19.835H43.389v-5.7h8.939Z" transform="translate(-7.944 -7.944)"/>
      <path id="Trazado_901357" data-name="Trazado 901357" d="M122.64,236.542h-4.445a.695.695,0,1,0,0,1.389h4.445a.695.695,0,1,0,0-1.389Z" transform="translate(-62.468 -169.56)"/>
      <path id="Trazado_901358" data-name="Trazado 901358" d="M185.525,26.559h2.317a.695.695,0,1,0,0-1.389h-2.317a.695.695,0,0,0,0,1.389Z" transform="translate(-111.092 -16.913)"/>
      <path id="Trazado_901359" data-name="Trazado 901359" d="M53.865,26.889h4.49a.695.695,0,0,0,0-1.389h-4.49a.695.695,0,0,0,0,1.389Z" transform="translate(-16.011 -17.152)"/>
      <path id="Trazado_901360" data-name="Trazado 901360" d="M63.438,98.362H65.15a.7.7,0,0,0,.692-.636,14.386,14.386,0,0,1,1.4-5.115.695.695,0,0,0-.32-.931.709.709,0,0,0-.928.322,15.85,15.85,0,0,0-1.472,4.97H63.439A1.435,1.435,0,0,0,62.2,99.124l3.126,5.412a1.431,1.431,0,0,0,2.478,0l3.128-5.418A1.435,1.435,0,0,0,69.7,96.973H68.9A11.615,11.615,0,0,1,89.5,91.806a.707.707,0,0,0,.972.119.7.7,0,0,0,.12-.975A13,13,0,0,0,67.417,97.6a.692.692,0,0,0,.689.764H69.7a.041.041,0,0,1,.036.061L66.6,103.841a.042.042,0,0,1-.072,0L63.4,98.423a.043.043,0,0,1,.036-.061Z" transform="translate(-22.395 -60.812)"/>
      <path id="Trazado_901361" data-name="Trazado 901361" d="M89.045,80.707a14.489,14.489,0,0,1,9.968-3.959h.014a14.511,14.511,0,0,1,11.246,5.323.7.7,0,0,0,1.078-.878s0,0,0,0a15.882,15.882,0,0,0-12.322-5.832h-.014A15.862,15.862,0,0,0,88.092,79.7a.7.7,0,0,0-.031.981A.713.713,0,0,0,89.045,80.707Z" transform="translate(-41.073 -53.158)"/>
      <path id="Trazado_901362" data-name="Trazado 901362" d="M81.536,99.039a.695.695,0,0,0,.972-.147s0,0,0,0a.7.7,0,0,0-.153-.97.712.712,0,0,0-.969.15.693.693,0,0,0,.147.969Z" transform="translate(-36.292 -69.36)"/>
      <path id="Trazado_901363" data-name="Trazado 901363" d="M87.63,169.947a.7.7,0,0,0,.692-1.206,14.485,14.485,0,0,1-4.026-3.406.713.713,0,0,0-.978-.1.7.7,0,0,0-.1.978,16.005,16.005,0,0,0,4.409,3.732Z" transform="translate(-37.599 -117.958)"/>
      <path id="Trazado_901364" data-name="Trazado 901364" d="M108.25,182.106a.7.7,0,0,0-.883.425.695.695,0,1,0,.883-.425Z" transform="translate(-55.122 -130.222)"/>
      <path id="Trazado_901365" data-name="Trazado 901365" d="M117.895,116.98h-1.712a.7.7,0,0,0-.692.636A14.623,14.623,0,0,1,101,130.941h-.017a14.39,14.39,0,0,1-2.245-.175.7.7,0,1,0-.214,1.375,16.089,16.089,0,0,0,2.459.186H101a15.944,15.944,0,0,0,15.814-13.958h1.084a1.434,1.434,0,0,0,1.236-2.148l-3.126-5.415a1.432,1.432,0,0,0-2.481,0l-3.126,5.418a1.432,1.432,0,0,0,1.239,2.145h.792a11.615,11.615,0,0,1-20.593,5.168.71.71,0,0,0-.975-.119.7.7,0,0,0-.117.975,13,13,0,0,0,23.171-6.646.693.693,0,0,0-.692-.767h-1.586a.041.041,0,0,1-.036-.061l3.126-5.418a.042.042,0,0,1,.075,0l3.126,5.418a.041.041,0,0,1-.033.061Z" transform="translate(-43.04 -78.24)"/>
      <path id="Trazado_901366" data-name="Trazado 901366" d="M109.736,111.908a2.578,2.578,0,1,0-2.578,2.579A2.578,2.578,0,0,0,109.736,111.908Zm-3.767,0a1.189,1.189,0,1,1,1.189,1.189A1.189,1.189,0,0,1,105.969,111.908Z" transform="translate(-53.138 -77.691)"/>
      <path id="Trazado_901367" data-name="Trazado 901367" d="M135.437,142.762a2.577,2.577,0,1,0-2.579-2.575A2.577,2.577,0,0,0,135.437,142.762Zm0-3.765a1.189,1.189,0,1,1-1.189,1.189A1.189,1.189,0,0,1,135.437,139Z" transform="translate(-73.56 -98.113)"/>
      <path id="Trazado_901368" data-name="Trazado 901368" d="M108.266,123.255l10.249-10.249a.687.687,0,0,0,0-.98.706.706,0,0,0-.981,0l-10.252,10.249a.695.695,0,0,0,.983.981Z" transform="translate(-54.952 -79.495)"/>
    </g>
  </g>
</svg>
