<svg xmlns="http://www.w3.org/2000/svg" width="97" height="97" viewBox="0 0 97 97">
  <g id="Grupo_1110063" data-name="Grupo 1110063" transform="translate(-407.051 -1327)">
    <rect id="Rectángulo_403103" data-name="Rectángulo 403103" width="97" height="97" rx="8" transform="translate(407.051 1327)" fill="#95dbb3"/>
    <g id="Grupo_1110052" data-name="Grupo 1110052" transform="translate(418.051 1337)">
      <path id="Trazado_901369" data-name="Trazado 901369" d="M51.671,71.145A3.472,3.472,0,0,1,48.4,74.784H11.275A3.472,3.472,0,0,1,8,71.145V5.639A3.472,3.472,0,0,1,11.275,2H48.4a3.472,3.472,0,0,1,3.275,3.639Z" transform="translate(0.213 0.213)" fill="#696767"/>
      <path id="Trazado_901370" data-name="Trazado 901370" d="M11.275,2A3.472,3.472,0,0,0,8,5.639V71.145a3.963,3.963,0,0,0,.178,1.135,2.993,2.993,0,0,0,.671.078h37.12a3.472,3.472,0,0,0,3.275-3.639V3.213a3.963,3.963,0,0,0-.178-1.135A2.994,2.994,0,0,0,48.4,2Z" transform="translate(0.213 0.213)" fill="#858687"/>
      <path id="Trazado_901371" data-name="Trazado 901371" d="M12,10H45.966V68.227H12Z" transform="translate(1.065 1.918)" fill="#bce4f8"/>
      <path id="Trazado_901372" data-name="Trazado 901372" d="M12,64.588H38.688a3.639,3.639,0,0,0,3.639-3.639V10H12Z" transform="translate(1.065 1.918)" fill="#e3f4fc"/>
      <ellipse id="Elipse_11563" data-name="Elipse 11563" cx="20.5" cy="21" rx="20.5" ry="21" transform="translate(25.695 19.869)" fill="#f3a744"/>
      <path id="Trazado_901373" data-name="Trazado 901373" d="M42.622,17A20.621,20.621,0,0,0,28.017,52.179H47.474a9.705,9.705,0,0,0,9.7-9.7V23.017A20.56,20.56,0,0,0,42.622,17Z" transform="translate(3.196 3.409)" fill="#edcb61"/>
      <path id="Trazado_901374" data-name="Trazado 901374" d="M45.983,47.048H33.852A4.853,4.853,0,0,1,29,42.2V28.852A4.853,4.853,0,0,1,33.852,24H45.983a4.853,4.853,0,0,1,4.852,4.852V42.2A4.853,4.853,0,0,1,45.983,47.048Z" transform="translate(4.688 4.901)" fill="#f1d581"/>
      <path id="Trazado_901375" data-name="Trazado 901375" d="M53.261,30.852H29V28.426A2.425,2.425,0,0,1,31.426,26H50.835a2.425,2.425,0,0,1,2.426,2.426Z" transform="translate(4.688 5.327)" fill="#858687"/>
      <path id="Trazado_901376" data-name="Trazado 901376" d="M48.409,26H31.426A2.425,2.425,0,0,0,29,28.426v2.426H50.835V28.426A2.425,2.425,0,0,0,48.409,26Z" transform="translate(4.688 5.327)" fill="#9d9e9f"/>
      <path id="Trazado_901377" data-name="Trazado 901377" d="M31,30l2.426,18.2H47.983L50.409,30Z" transform="translate(5.114 6.179)" fill="#cbccca"/>
      <path id="Trazado_901378" data-name="Trazado 901378" d="M31,30l2.1,15.768.022,0H43.433a2.425,2.425,0,0,0,2.4-2.106l1.78-13.344a2.362,2.362,0,0,0,.007-.32Z" transform="translate(5.114 6.179)" fill="#e0dee0"/>
      <g id="Grupo_1110051" data-name="Grupo 1110051" transform="translate(7 1)">
        <path id="Trazado_901379" data-name="Trazado 901379" d="M22,5h4.852V7.426H22Z" transform="translate(-3.804 -0.148)"/>
        <path id="Trazado_901380" data-name="Trazado 901380" d="M28,5h2.426V7.426H28Z" transform="translate(-2.525 -0.148)"/>
        <path id="Trazado_901381" data-name="Trazado 901381" d="M0,0H3.431V2.426H0Z" transform="translate(14.907 24.616) rotate(-45)"/>
        <path id="Trazado_901382" data-name="Trazado 901382" d="M67.654,41.031A21.855,21.855,0,0,0,53.1,20.47V5.852A4.686,4.686,0,0,0,48.608,1H11.488A4.686,4.686,0,0,0,7,5.852V71.358a4.686,4.686,0,0,0,4.488,4.852h37.12A4.686,4.686,0,0,0,53.1,71.358V61.593A21.855,21.855,0,0,0,67.654,41.031ZM50.671,71.358a2.269,2.269,0,0,1-2.062,2.426H11.488a2.269,2.269,0,0,1-2.062-2.426V5.852a2.269,2.269,0,0,1,2.062-2.426h37.12a2.269,2.269,0,0,1,2.062,2.426V19.759a21.88,21.88,0,0,0-2.426-.42V11.918A1.213,1.213,0,0,0,47.031,10.7H13.065a1.213,1.213,0,0,0-1.213,1.213V70.145a1.212,1.212,0,0,0,1.213,1.213H47.031a1.212,1.212,0,0,0,1.213-1.213V62.723a21.6,21.6,0,0,0,2.426-.42ZM14.278,28.19,29.337,13.131H34.4l-8.847,8.847,1.715,1.715L37.829,13.131h7.989V19.2a21.835,21.835,0,0,0,0,43.671v6.065H14.278Zm0-3.431V13.131H25.907ZM45.818,60.44A19.409,19.409,0,1,1,65.227,41.031,19.432,19.432,0,0,1,45.818,60.44Z" transform="translate(-7 -1)"/>
        <path id="Trazado_901383" data-name="Trazado 901383" d="M51.048,25.852H48.622V23.426A2.429,2.429,0,0,0,46.2,21h-9.7a2.429,2.429,0,0,0-2.426,2.426v2.426H31.639A3.644,3.644,0,0,0,28,29.491v2.426a1.213,1.213,0,0,0,1.213,1.213h1.365l2.285,17.143a1.213,1.213,0,0,0,1.2,1.053H48.622a1.213,1.213,0,0,0,1.2-1.053L52.11,33.131h1.365a1.213,1.213,0,0,0,1.213-1.213V29.491A3.644,3.644,0,0,0,51.048,25.852ZM36.492,23.426h9.7v2.426h-9.7ZM47.56,48.9H35.128l-2.1-15.77H49.663Zm4.7-18.2H30.426V29.491a1.214,1.214,0,0,1,1.213-1.213H51.048a1.214,1.214,0,0,1,1.213,1.213Z" transform="translate(-2.525 3.261)"/>
        <path id="Trazado_901384" data-name="Trazado 901384" d="M36,33h2.426V43.918H36Z" transform="translate(-0.821 5.818)"/>
        <path id="Trazado_901385" data-name="Trazado 901385" d="M40,33h2.426V43.918H40Z" transform="translate(0.031 5.818)"/>
      </g>
    </g>
  </g>
</svg>
