<svg xmlns="http://www.w3.org/2000/svg" width="97" height="97" viewBox="0 0 97 97">
  <g id="Grupo_1110062" data-name="Grupo 1110062" transform="translate(-407.051 -1470)">
    <rect id="Rect치ngulo_403105" data-name="Rect치ngulo 403105" width="97" height="97" rx="8" transform="translate(407.051 1470)" fill="#95dbb3"/>
    <g id="Grupo_1110053" data-name="Grupo 1110053" transform="translate(414.102 1477.287)">
      <path id="Trazado_901386" data-name="Trazado 901386" d="M3,3H34.559V27.985H3Z" transform="translate(0.315 0.315)" fill="#6b8cbf"/>
      <path id="Trazado_901387" data-name="Trazado 901387" d="M7,7H28.04V21.465H7Z" transform="translate(1.575 1.575)" fill="#e6e6e6"/>
      <path id="Trazado_901388" data-name="Trazado 901388" d="M21.4,22l3.379,7.89H9L12.379,22" transform="translate(2.205 6.299)" fill="#abb6bf"/>
      <path id="Trazado_901389" data-name="Trazado 901389" d="M43,32.878A5.9,5.9,0,0,1,48.917,27H60.752a5.9,5.9,0,0,1,5.917,5.878V65.831a5.9,5.9,0,0,1-5.917,5.878H48.917A5.9,5.9,0,0,1,43,65.831Z" transform="translate(12.914 7.874)" fill="#799fd9"/>
      <path id="Trazado_901390" data-name="Trazado 901390" d="M43,33H66.67V61.929H43Z" transform="translate(12.914 9.764)" fill="#e6e6e6"/>
      <path id="Trazado_901391" data-name="Trazado 901391" d="M3,56.14l4.524-2.078a47.338,47.338,0,0,1,11.519-3.5l8.942-1.552a2.143,2.143,0,0,1,2.222.855c.513.96,0,2.051-1.315,2.525L17.465,56.9l8.416-1.091a32.335,32.335,0,0,0,14.754-4.55,4.313,4.313,0,0,1,4.918.368l.842,1.328L35.177,58.638a22.144,22.144,0,0,1-3.721,1.8,25.852,25.852,0,0,1-8.731,1.723H12.2a5.786,5.786,0,0,0-3.8,1.026l-2.354,1.6Z" transform="translate(0.315 14.791)" fill="#f8e3c6"/>
      <rect id="Rect치ngulo_403149" data-name="Rect치ngulo 403149" width="2.63" height="2.63" rx="1" transform="translate(34.874 61.174)"/>
      <path id="Trazado_901392" data-name="Trazado 901392" d="M48,16H58.52l-5.26,9.2Z" transform="translate(14.489 4.41)" fill="#ff8188"/>
      <path id="Trazado_901393" data-name="Trazado 901393" d="M40.2,6V16.52L31,11.26Z" transform="translate(9.134 1.26)" fill="#ff8188"/>
      <path id="Trazado_901394" data-name="Trazado 901394" d="M48,29H58.52v2.63H48Z" transform="translate(14.489 8.504)"/>
      <path id="Trazado_901395" data-name="Trazado 901395" d="M51,57h2.63v2.63H51Z" transform="translate(15.434 17.324)"/>
      <path id="Trazado_901396" data-name="Trazado 901396" d="M28.355,6H7.315A1.315,1.315,0,0,0,6,7.315V21.78a1.315,1.315,0,0,0,1.315,1.315h21.04A1.315,1.315,0,0,0,29.67,21.78V7.315A1.315,1.315,0,0,0,28.355,6ZM27.04,20.465H8.63V8.63H27.04Z" transform="translate(1.26 1.26)"/>
      <path id="Trazado_901397" data-name="Trazado 901397" d="M23.32,45.459l1.8,1.907a6.325,6.325,0,0,1,8.705,0l1.8-1.907A8.929,8.929,0,0,0,23.32,45.459Z" transform="translate(6.715 12.914)"/>
      <path id="Trazado_901398" data-name="Trazado 901398" d="M20.28,43.352l1.894,1.815a11.414,11.414,0,0,1,16.516,0l1.894-1.815a14.018,14.018,0,0,0-20.3,0Z" transform="translate(5.758 11.654)"/>
      <path id="Trazado_901399" data-name="Trazado 901399" d="M51.145,51.8a1.271,1.271,0,0,0,2.1-.066L61.139,39.9,58.956,38.45,52.2,48.733,49.3,44.959l-2.1,1.578Z" transform="translate(14.237 11.481)"/>
      <path id="Trazado_901400" data-name="Trazado 901400" d="M14.891,18.085a1.315,1.315,0,0,0,1.026-.5l5.26-6.575L19.126,9.38l-4.142,5.168L13.353,12.1,11.17,13.548l2.63,3.945a1.315,1.315,0,0,0,1.091.592Z" transform="translate(2.888 2.325)"/>
      <path id="Trazado_901401" data-name="Trazado 901401" d="M7.259,53.184l-4.5,2.078a1.315,1.315,0,0,0-.684,1.631l3.038,8.653a1.315,1.315,0,0,0,.828.881,1.486,1.486,0,0,0,.421,0A1.315,1.315,0,0,0,7.1,66.2l2.354-1.6a4.524,4.524,0,0,1,3.064-.8h10.52a26.786,26.786,0,0,0,9.2-1.8A21.855,21.855,0,0,0,36.1,60.127l11.217-5.681a1.315,1.315,0,0,0,.671-.815,1.236,1.236,0,0,0-.158-1.052L47,51.264A1.078,1.078,0,0,0,46.774,51a5.589,5.589,0,0,0-6.5-.526,30.165,30.165,0,0,1-12.19,4.116l1.657-.644a3.524,3.524,0,0,0,2.143-1.986,2.814,2.814,0,0,0-.158-2.367,3.419,3.419,0,0,0-3.59-1.578l-9.047,1.578a47.957,47.957,0,0,0-11.835,3.59Zm21.316-2.538a1.026,1.026,0,0,1,.842.2.184.184,0,0,1,0,.184.947.947,0,0,1-.618.473L17.292,55.985a1.317,1.317,0,0,0,.657,2.551l8.337-1.091A33.427,33.427,0,0,0,41.646,52.71a3.077,3.077,0,0,1,3.156,0l-9.928,5.128a19.988,19.988,0,0,1-3.5,1.683,24.445,24.445,0,0,1-8.337,1.644H12.519a7.075,7.075,0,0,0-4.576,1.315L7,63.125l-2.038-5.9L8.39,55.643A45,45,0,0,1,19.58,52.25Z" transform="translate(0.001 14.473)"/>
      <path id="Trazado_901402" data-name="Trazado 901402" d="M53.672,18.148a1.315,1.315,0,0,0-1.144,1.972l5.26,9.2a1.315,1.315,0,0,0,2.288,0l5.26-9.2a1.315,1.315,0,0,0-1.144-1.972H60.247V14.2A3.945,3.945,0,0,0,56.3,10.258H41.837V6.313a1.315,1.315,0,0,0-1.972-1.131l-9.2,5.26a1.315,1.315,0,0,0,0,2.288l9.2,5.26a1.315,1.315,0,0,0,.657.158,1.183,1.183,0,0,0,.657-.184,1.315,1.315,0,0,0,.657-1.131V12.888H56.3A1.315,1.315,0,0,1,57.617,14.2v3.945ZM39.207,14.571l-5.26-3,5.26-3ZM58.932,26.038l-3-5.26h6Z" transform="translate(8.817 0.947)"/>
      <path id="Trazado_901403" data-name="Trazado 901403" d="M61.067,26H49.232A7.232,7.232,0,0,0,42,33.193V66.146a7.232,7.232,0,0,0,7.232,7.193H61.067A7.232,7.232,0,0,0,68.3,66.146V33.193A7.232,7.232,0,0,0,61.067,26ZM49.232,28.63H61.067a4.589,4.589,0,0,1,4.6,4.563v.7H44.63v-.7a4.589,4.589,0,0,1,4.6-4.563ZM65.67,36.52v26.3H44.63V36.52Zm-4.6,34.189H49.232a4.589,4.589,0,0,1-4.6-4.563v-.7H65.67v.7a4.589,4.589,0,0,1-4.6,4.563Z" transform="translate(12.599 7.559)"/>
      <path id="Trazado_901404" data-name="Trazado 901404" d="M3.315,29.614h9.271l-2.63,6.062A1.315,1.315,0,0,0,11.2,37.5h15.78a1.315,1.315,0,0,0,1.21-1.828L25.67,29.614h9.2A1.315,1.315,0,0,0,36.189,28.3V3.315A1.315,1.315,0,0,0,34.874,2H3.315A1.315,1.315,0,0,0,2,3.315V28.3A1.315,1.315,0,0,0,3.315,29.614Zm21.671,5.26H13.151l2.249-5.26h7.285ZM4.63,4.63H33.559V26.985H4.63Z"/>
    </g>
  </g>
</svg>
