<svg xmlns="http://www.w3.org/2000/svg" width="97" height="97" viewBox="0 0 97 97">
  <g id="Grupo_1110061" data-name="Grupo 1110061" transform="translate(-407.051 -1613)">
    <rect id="Rectángulo_403107" data-name="Rectángulo 403107" width="97" height="97" rx="8" transform="translate(407.051 1613)" fill="#95dbb3"/>
    <g id="Grupo_1110055" data-name="Grupo 1110055" transform="translate(422.051 1626)">
      <path id="Trazado_901405" data-name="Trazado 901405" d="M41.268,7.492H10.413a3.8,3.8,0,0,0-3.8,3.795V71.419a3.8,3.8,0,0,0,3.8,3.8H41.268a3.8,3.8,0,0,0,3.8-3.8V11.287a3.8,3.8,0,0,0-3.8-3.795Zm0,0" transform="translate(-5.692 -6.445)" fill="#3b7c93"/>
      <path id="Trazado_901406" data-name="Trazado 901406" d="M9.413,71.419V11.286a3.8,3.8,0,0,1,3.8-3.795h-2.8a3.8,3.8,0,0,0-3.8,3.795V71.419a3.8,3.8,0,0,0,3.8,3.8h2.8A3.8,3.8,0,0,1,9.413,71.419Zm0,0" transform="translate(-5.692 -6.444)" fill="#2f6780"/>
      <path id="Trazado_901407" data-name="Trazado 901407" d="M40.227,110.086v40.968a1.06,1.06,0,0,0,1.06,1.06H68.215a1.06,1.06,0,0,0,1.059-1.06V110.086Zm0,0" transform="translate(-34.603 -94.696)" fill="#b3dbf4"/>
      <path id="Trazado_901408" data-name="Trazado 901408" d="M43.023,151.054V110.086h-2.8v40.968a1.06,1.06,0,0,0,1.06,1.06h2.8A1.06,1.06,0,0,1,43.023,151.054Zm0,0" transform="translate(-34.603 -94.696)" fill="#8fc8e2"/>
      <path id="Trazado_901409" data-name="Trazado 901409" d="M68.215,74.48H41.287a1.06,1.06,0,0,0-1.06,1.059v4.2H69.275v-4.2A1.06,1.06,0,0,0,68.215,74.48Zm0,0" transform="translate(-34.603 -64.068)" fill="#74c432"/>
      <path id="Trazado_901410" data-name="Trazado 901410" d="M46.289,74.48h-5a1.06,1.06,0,0,0-1.06,1.059v4.2h6.063Zm0,0" transform="translate(-34.603 -64.068)" fill="#1d9942"/>
      <path id="Trazado_901411" data-name="Trazado 901411" d="M44.082,74.48h-2.8a1.06,1.06,0,0,0-1.06,1.059v4.2h2.8v-4.2A1.06,1.06,0,0,1,44.082,74.48Zm0,0" transform="translate(-34.603 -64.068)" fill="#158732"/>
      <path id="Trazado_901412" data-name="Trazado 901412" d="M131.539,435.844A2.441,2.441,0,1,1,129.1,433.4,2.441,2.441,0,0,1,131.539,435.844Zm0,0" transform="translate(-108.95 -372.814)" fill="#2f6780"/>
      <path id="Trazado_901413" data-name="Trazado 901413" d="M129.452,435.84a2.437,2.437,0,0,1,1.044-2,2.442,2.442,0,1,0,0,4A2.435,2.435,0,0,1,129.452,435.84Zm0,0" transform="translate(-108.95 -372.81)" fill="#1c5868"/>
      <path id="Trazado_901414" data-name="Trazado 901414" d="M254.225,393.893h-5.842l1.851-3.263a2.164,2.164,0,0,0,3.059-2.273l-.455-3.043a2.165,2.165,0,0,0-2.952-1.865l-3.029,1.19a2.16,2.16,0,0,0-.366,3.833L244.3,392.34a3.933,3.933,0,0,0,3.421,5.874h6.507a2.16,2.16,0,0,0,0-4.321Zm0,0" transform="translate(-209.699 -329.714)" fill="#49ae3a"/>
      <path id="Trazado_901415" data-name="Trazado 901415" d="M374.353,407.756l-3.06-5.443a2.16,2.16,0,0,0-3.766,2.117l2.739,4.872h-3.889a2.159,2.159,0,0,0-3.5-1.557l-2.545,2.025a2.215,2.215,0,0,0-.815,1.69,2.175,2.175,0,0,0,.813,1.688l0,0,2.545,2.028a2.159,2.159,0,0,0,3.5-1.556h4.551A3.933,3.933,0,0,0,374.353,407.756Zm0,0" transform="translate(-309.25 -345.123)" fill="#49ae3a"/>
      <path id="Trazado_901416" data-name="Trazado 901416" d="M318.645,290.695a2.147,2.147,0,0,0-1.247.185l-2.449-4.317a3.937,3.937,0,0,0-6.849.012l-3.618,6.474a2.16,2.16,0,0,0,3.771,2.108l3.033-5.426a.282.282,0,0,1,.491,0l1.877,3.309a2.165,2.165,0,0,0,.424,3.853l2.968,1.169A2.164,2.164,0,0,0,320,296.194l.458-3.042a2.16,2.16,0,0,0-1.815-2.457Zm0,0" transform="translate(-261.68 -244.79)" fill="#49ae3a"/>
      <g id="Grupo_1110054" data-name="Grupo 1110054" transform="translate(34.08 39.784)">
        <path id="Trazado_901417" data-name="Trazado 901417" d="M247.6,392.346l1.954-3.444a.561.561,0,0,0-.094-.683,2.171,2.171,0,0,1,.758-3.6l1.915-.752a2.168,2.168,0,0,0-2.248-.415l-2.97,1.167a2.166,2.166,0,0,0-.425,3.857l-2.194,3.867a3.933,3.933,0,0,0,3.421,5.874h3.3A3.933,3.933,0,0,1,247.6,392.346Zm0,0" transform="translate(-243.779 -369.504)" fill="#1d9942"/>
        <path id="Trazado_901418" data-name="Trazado 901418" d="M420.5,408.039l-2.027-3.606a2.158,2.158,0,0,1,.231-2.448,2.16,2.16,0,0,0-3.536,2.448l2.739,4.872h1.852A.849.849,0,0,0,420.5,408.039Zm0,0" transform="translate(-390.968 -384.909)" fill="#1d9942"/>
        <path id="Trazado_901419" data-name="Trazado 901419" d="M363.636,450.471l0,0a2.171,2.171,0,0,1-.812-1.688,2.217,2.217,0,0,1,.815-1.69l2.208-1.757a2.159,2.159,0,0,0-2.967-.269l-2.545,2.025a2.216,2.216,0,0,0-.815,1.69,2.174,2.174,0,0,0,.813,1.688l0,0,2.545,2.028a2.158,2.158,0,0,0,2.969-.268Zm0,0" transform="translate(-343.329 -422.227)" fill="#1d9942"/>
        <path id="Trazado_901420" data-name="Trazado 901420" d="M307.788,293.053l3.618-6.473a3.9,3.9,0,0,1,1.775-1.642,3.937,3.937,0,0,0-5.08,1.642l-3.618,6.473a2.16,2.16,0,0,0,3.539,2.444A2.158,2.158,0,0,1,307.788,293.053Zm0,0" transform="translate(-295.761 -284.58)" fill="#1d9942"/>
        <path id="Trazado_901421" data-name="Trazado 901421" d="M363.97,324.155a2.172,2.172,0,0,1-.865-3.483.837.837,0,0,0,.1-.971l-1.31-2.344a2.123,2.123,0,0,0-3.1-.68l-.433.316,1.877,3.309a2.166,2.166,0,0,0,.424,3.854l2.969,1.169a2.164,2.164,0,0,0,2.251-.415Zm0,0" transform="translate(-342.345 -311.839)" fill="#1d9942"/>
      </g>
      <path id="Trazado_901422" data-name="Trazado 901422" d="M127.019,429.4a3.49,3.49,0,1,0-3.49,3.49A3.494,3.494,0,0,0,127.019,429.4Zm-3.49,1.393a1.393,1.393,0,1,1,1.393-1.393A1.395,1.395,0,0,1,123.529,430.793Zm0,0" transform="translate(-103.258 -366.369)"/>
      <path id="Trazado_901423" data-name="Trazado 901423" d="M122.8,35.023a1.048,1.048,0,1,0,0,2.1h4.4a1.048,1.048,0,1,0,0-2.1Zm0,0" transform="translate(-104.733 -30.127)"/>
      <path id="Trazado_901424" data-name="Trazado 901424" d="M73.563,120.756H69.522l.559-.985a3.21,3.21,0,0,0,3.587-3.657l-.449-3.005a3.206,3.206,0,0,0-3.762-2.894V94.979a1.048,1.048,0,1,0-2.1,0v15.988l-1.548.608a3.257,3.257,0,0,0-1.053.674V69.1a2.111,2.111,0,0,0-2.108-2.108H35.721A2.111,2.111,0,0,0,33.613,69.1v44.886a2.111,2.111,0,0,0,2.108,2.108H62.65a2.1,2.1,0,0,0,1.313-.462,3.243,3.243,0,0,0,.541.967l-1.78,3.137a4.955,4.955,0,0,0,.475,5.613H51.632a1.048,1.048,0,1,0,0,2.1H64.613a4.778,4.778,0,0,0,1.725-.322,5.039,5.039,0,0,0,.718.052h6.507a3.209,3.209,0,0,0,0-6.417ZM62.661,69.1v3.149H41.773V69.085H62.65a.011.011,0,0,1,.011.011Zm-26.95,0a.011.011,0,0,1,.011-.011h3.954v3.161H35.71Zm26.939,44.9H35.721a.011.011,0,0,1-.011-.011V74.342h26.95v39.64a.011.011,0,0,1-.011.011Zm10.913,11.082H67.057a2.884,2.884,0,0,1-2.509-4.307l2.194-3.867a1.049,1.049,0,0,0-.352-1.4,1.11,1.11,0,0,1,.188-1.971l2.213-.869c.742-.292,1.209-.576,1.778-.253a1.156,1.156,0,0,1,.569.976l.455,3.043a1.112,1.112,0,0,1-1.573,1.17,1.048,1.048,0,0,0-1.36.43l-1.851,3.263a1.049,1.049,0,0,0,.912,1.566h5.841a1.112,1.112,0,1,1,0,2.223Zm0,0" transform="translate(-28.914 -57.623)"/>
      <path id="Trazado_901425" data-name="Trazado 901425" d="M366.713,395.364a3.209,3.209,0,1,0-5.594,3.144l1.86,3.309h-1.267a3.213,3.213,0,0,0-4.981-1.329l-2.543,2.024a3.212,3.212,0,0,0,0,5.021l2.545,2.028a3.21,3.21,0,0,0,4.983-1.327h3.722a4.98,4.98,0,0,0,4.338-7.43Zm-1.28,10.773h-4.55a1.048,1.048,0,0,0-1.046.985,1.111,1.111,0,0,1-1.8.8L355.5,405.9a1.1,1.1,0,0,1-.18-1.583l0,0a31.236,31.236,0,0,1,2.715-2.2,1.111,1.111,0,0,1,1.8.8,1.048,1.048,0,0,0,1.046.984h3.889a1.049,1.049,0,0,0,.914-1.562l-2.739-4.871a1.111,1.111,0,1,1,1.938-1.089l3.06,5.442,0,0a2.884,2.884,0,0,1-2.513,4.3Zm0,0" transform="translate(-303.634 -338.685)"/>
      <path id="Trazado_901426" data-name="Trazado 901426" d="M306.248,287.271a3.207,3.207,0,0,0,1.81,4.161l3.026,1.191a3.212,3.212,0,0,0,4.38-2.722l.452-3a3.209,3.209,0,0,0-3.59-3.659l-2.045-3.6a4.985,4.985,0,0,0-8.675.018l-3.618,6.473a3.208,3.208,0,0,0,5.6,3.131l2.369-4.238.792,1.4A3.188,3.188,0,0,0,306.248,287.271Zm-1.212-4.9-3.277,5.863a1.111,1.111,0,0,1-1.94-1.084l3.615-6.467a2.887,2.887,0,0,1,5.024-.012l2.449,4.317a1.048,1.048,0,0,0,1.362.429,1.113,1.113,0,0,1,1.574,1.17l-.458,3.041a1.15,1.15,0,0,1-.57.978,1.127,1.127,0,0,1-.963.067l-3.026-1.191a1.11,1.11,0,0,1-.189-1.97,1.049,1.049,0,0,0,.35-1.4l-2.124-3.744A1.049,1.049,0,0,0,305.036,282.37Zm0,0" transform="translate(-255.979 -238.375)"/>
      <path id="Trazado_901427" data-name="Trazado 901427" d="M17.825,67.723H4.844A2.749,2.749,0,0,1,2.1,64.976V4.844A2.749,2.749,0,0,1,4.844,2.1H35.7a2.75,2.75,0,0,1,2.747,2.747v27.62a1.048,1.048,0,0,0,2.1,0V4.844A4.849,4.849,0,0,0,35.7,0H4.844A4.849,4.849,0,0,0,0,4.844V64.976A4.849,4.849,0,0,0,4.844,69.82H17.825a1.048,1.048,0,0,0,0-2.1Zm0,0" transform="translate(0)"/>
    </g>
  </g>
</svg>
