<svg xmlns="http://www.w3.org/2000/svg" width="97" height="97" viewBox="0 0 97 97">
  <g id="Grupo_1110058" data-name="Grupo 1110058" transform="translate(-407.051 -1756)">
    <rect id="Rectángulo_403109" data-name="Rectángulo 403109" width="97" height="97" rx="8" transform="translate(407.051 1756)" fill="#95dbb3"/>
    <g id="Grupo_1110057" data-name="Grupo 1110057" transform="translate(422.051 1771)">
      <g id="Grupo_1110056" data-name="Grupo 1110056" transform="translate(1.133 1.133)">
        <path id="Trazado_901428" data-name="Trazado 901428" d="M44,11.2V3.267a2.267,2.267,0,1,1,4.533,0V11.2Z" transform="translate(4.733 -1)" fill="#e8cf3a"/>
        <path id="Trazado_901429" data-name="Trazado 901429" d="M36,11.2V3.267a2.267,2.267,0,1,1,4.533,0V11.2Z" transform="translate(3.667 -1)" fill="#e8cf3a"/>
        <path id="Trazado_901430" data-name="Trazado 901430" d="M28,11.2V3.267a2.267,2.267,0,1,1,4.533,0V11.2Z" transform="translate(2.6 -1)" fill="#e8cf3a"/>
        <path id="Trazado_901431" data-name="Trazado 901431" d="M20,11.2V3.267a2.267,2.267,0,0,1,4.533,0V11.2Z" transform="translate(1.533 -1)" fill="#e8cf3a"/>
        <path id="Trazado_901432" data-name="Trazado 901432" d="M12,11.2V3.267a2.267,2.267,0,1,1,4.533,0V11.2Z" transform="translate(0.467 -1)" fill="#e8cf3a"/>
        <path id="Trazado_901433" data-name="Trazado 901433" d="M11.2,16.533H3.267a2.267,2.267,0,1,1,0-4.533H11.2Z" transform="translate(-1 0.467)" fill="#e8cf3a"/>
        <path id="Trazado_901434" data-name="Trazado 901434" d="M11.2,24.533H3.267a2.267,2.267,0,0,1,0-4.533H11.2Z" transform="translate(-1 1.533)" fill="#e8cf3a"/>
        <path id="Trazado_901435" data-name="Trazado 901435" d="M11.2,32.533H3.267a2.267,2.267,0,1,1,0-4.533H11.2Z" transform="translate(-1 2.6)" fill="#e8cf3a"/>
        <path id="Trazado_901436" data-name="Trazado 901436" d="M11.2,40.533H3.267a2.267,2.267,0,1,1,0-4.533H11.2Z" transform="translate(-1 3.667)" fill="#e8cf3a"/>
        <path id="Trazado_901437" data-name="Trazado 901437" d="M11.2,48.533H3.267a2.267,2.267,0,1,1,0-4.533H11.2Z" transform="translate(-1 4.733)" fill="#e8cf3a"/>
        <path id="Trazado_901438" data-name="Trazado 901438" d="M16.533,50v7.933a2.267,2.267,0,1,1-4.533,0V50Z" transform="translate(0.467 5.533)" fill="#e8cf3a"/>
        <path id="Trazado_901439" data-name="Trazado 901439" d="M24.533,50v7.933a2.267,2.267,0,1,1-4.533,0V50Z" transform="translate(1.533 5.533)" fill="#e8cf3a"/>
        <path id="Trazado_901440" data-name="Trazado 901440" d="M32.533,50v7.933a2.267,2.267,0,1,1-4.533,0V50Z" transform="translate(2.6 5.533)" fill="#e8cf3a"/>
        <path id="Trazado_901441" data-name="Trazado 901441" d="M40.533,50v7.933a2.267,2.267,0,1,1-4.533,0V50Z" transform="translate(3.667 5.533)" fill="#e8cf3a"/>
        <path id="Trazado_901442" data-name="Trazado 901442" d="M48.533,50v7.933a2.267,2.267,0,1,1-4.533,0V50Z" transform="translate(4.733 5.533)" fill="#e8cf3a"/>
        <path id="Trazado_901443" data-name="Trazado 901443" d="M50,44h7.933a2.267,2.267,0,1,1,0,4.533H50Z" transform="translate(5.533 4.733)" fill="#e8cf3a"/>
        <path id="Trazado_901444" data-name="Trazado 901444" d="M50,36h7.933a2.267,2.267,0,1,1,0,4.533H50Z" transform="translate(5.533 3.667)" fill="#e8cf3a"/>
        <path id="Trazado_901445" data-name="Trazado 901445" d="M50,28h7.933a2.267,2.267,0,1,1,0,4.533H50Z" transform="translate(5.533 2.6)" fill="#e8cf3a"/>
        <path id="Trazado_901446" data-name="Trazado 901446" d="M50,20h7.933a2.267,2.267,0,1,1,0,4.533H50Z" transform="translate(5.533 1.533)" fill="#e8cf3a"/>
        <path id="Trazado_901447" data-name="Trazado 901447" d="M50,12h7.933a2.267,2.267,0,1,1,0,4.533H50Z" transform="translate(5.533 0.467)" fill="#e8cf3a"/>
      </g>
      <rect id="Rectángulo_403150" data-name="Rectángulo 403150" width="48" height="48" rx="3" transform="translate(10 10)" fill="#46bc65"/>
      <rect id="Rectángulo_403151" data-name="Rectángulo 403151" width="38" height="38" rx="1" transform="translate(53 15) rotate(90)" fill="#3ca051"/>
      <path id="Trazado_901448" data-name="Trazado 901448" d="M50.533,12H14.267A2.267,2.267,0,0,0,12,14.267v3.4a1.133,1.133,0,0,0,2.267,0v-3.4H50.533V50.533H14.267V22.2A1.133,1.133,0,1,0,12,22.2V50.533A2.267,2.267,0,0,0,14.267,52.8H50.533A2.267,2.267,0,0,0,52.8,50.533V14.267A2.267,2.267,0,0,0,50.533,12Z" transform="translate(1.6 1.6)" fill="#262626"/>
      <path id="Trazado_901449" data-name="Trazado 901449" d="M64.6,19.267a3.4,3.4,0,1,0,0-6.8H58.772a4.523,4.523,0,0,0-3.239-3.239V3.4a3.4,3.4,0,1,0-6.8,0V9.067H46.467V3.4a3.4,3.4,0,1,0-6.8,0V9.067H37.4V3.4a3.4,3.4,0,0,0-6.8,0V9.067H28.333V3.4a3.4,3.4,0,1,0-6.8,0V9.067H19.267V3.4a3.4,3.4,0,1,0-6.8,0V9.228a4.523,4.523,0,0,0-3.239,3.239H3.4a3.4,3.4,0,1,0,0,6.8H9.067v2.267H3.4a3.4,3.4,0,0,0,0,6.8H9.067V30.6H3.4a3.4,3.4,0,0,0,0,6.8H9.067v2.267H3.4a3.4,3.4,0,1,0,0,6.8H9.067v2.267H3.4a3.4,3.4,0,1,0,0,6.8H9.228a4.523,4.523,0,0,0,3.239,3.239V64.6a3.4,3.4,0,1,0,6.8,0V58.933h2.267V64.6a3.4,3.4,0,1,0,6.8,0V58.933H30.6V64.6a3.4,3.4,0,1,0,6.8,0V58.933h2.267V64.6a3.4,3.4,0,1,0,6.8,0V58.933h2.267V64.6a3.4,3.4,0,1,0,6.8,0V58.772a4.523,4.523,0,0,0,3.239-3.239H64.6a3.4,3.4,0,1,0,0-6.8H58.933V46.467H64.6a3.4,3.4,0,1,0,0-6.8H58.933V37.4H64.6a3.4,3.4,0,1,0,0-6.8H58.933V28.333H64.6a3.4,3.4,0,1,0,0-6.8H58.933V19.267ZM3.4,17a1.133,1.133,0,1,1,0-2.267H9.067V17Zm0,9.067a1.133,1.133,0,1,1,0-2.267H9.067v2.267Zm0,9.067a1.133,1.133,0,1,1,0-2.267H9.067v2.267Zm0,9.067a1.133,1.133,0,1,1,0-2.267H9.067V44.2ZM2.267,52.133A1.133,1.133,0,0,1,3.4,51H9.067v2.267H3.4A1.133,1.133,0,0,1,2.267,52.133ZM51,3.4a1.133,1.133,0,1,1,2.267,0V9.067H51Zm-9.067,0a1.133,1.133,0,1,1,2.267,0V9.067H41.933Zm-9.067,0a1.133,1.133,0,1,1,2.267,0V9.067H32.867ZM23.8,3.4a1.133,1.133,0,1,1,2.267,0V9.067H23.8ZM15.867,2.267A1.133,1.133,0,0,1,17,3.4V9.067H14.733V3.4A1.133,1.133,0,0,1,15.867,2.267ZM17,64.6a1.133,1.133,0,0,1-2.267,0V58.933H17Zm9.067,0a1.133,1.133,0,0,1-2.267,0V58.933h2.267Zm9.067,0a1.133,1.133,0,0,1-2.267,0V58.933h2.267Zm9.067,0a1.133,1.133,0,0,1-2.267,0V58.933H44.2Zm7.933,1.133A1.133,1.133,0,0,1,51,64.6V58.933h2.267V64.6A1.133,1.133,0,0,1,52.133,65.733ZM56.667,54.4A2.267,2.267,0,0,1,54.4,56.667H13.6A2.267,2.267,0,0,1,11.333,54.4V13.6A2.267,2.267,0,0,1,13.6,11.333H54.4A2.267,2.267,0,0,1,56.667,13.6Zm9.067-38.533A1.133,1.133,0,0,1,64.6,17H58.933V14.733H64.6A1.133,1.133,0,0,1,65.733,15.867ZM64.6,51a1.133,1.133,0,0,1,0,2.267H58.933V51Zm0-9.067a1.133,1.133,0,0,1,0,2.267H58.933V41.933Zm0-9.067a1.133,1.133,0,0,1,0,2.267H58.933V32.867Zm0-9.067a1.133,1.133,0,0,1,0,2.267H58.933V23.8Z" fill="#262626"/>
      <path id="Trazado_901450" data-name="Trazado 901450" d="M41.841,37.984a4.684,4.684,0,0,0-.036-4.76l-2.169-3.667a1.133,1.133,0,1,0-1.951,1.154l2.168,3.667a2.44,2.44,0,0,1,.019,2.483,2.346,2.346,0,0,1-2.05,1.206H33.856l.332-.331a1.134,1.134,0,1,0-1.6-1.6L30.314,38.4a1.133,1.133,0,0,0,0,1.6l2.272,2.267a1.134,1.134,0,0,0,1.6-1.6l-.34-.331h3.967a4.589,4.589,0,0,0,4.027-2.349Z" transform="translate(3.997 3.867)" fill="#262626"/>
      <path id="Trazado_901451" data-name="Trazado 901451" d="M38.267,23.44a1.133,1.133,0,0,0-1.385.807l-.121.459L34.75,21.278a4.584,4.584,0,0,0-4-2.278H30.7a4.716,4.716,0,0,0-4.111,2.433l-2.08,3.718a1.133,1.133,0,0,0,1.979,1.106l2.079-3.716a2.449,2.449,0,0,1,4.23-.113l2.007,3.423-.464-.121a1.133,1.133,0,1,0-.576,2.191l3.109.816a1.156,1.156,0,0,0,.289.037,1.133,1.133,0,0,0,1.095-.844l.818-3.1a1.133,1.133,0,0,0-.811-1.389Z" transform="translate(3.249 2.533)" fill="#262626"/>
      <path id="Trazado_901452" data-name="Trazado 901452" d="M19.62,38.173a4.7,4.7,0,0,0,4.132,2.4h4.272a1.133,1.133,0,1,0,0-2.267H23.752a2.468,2.468,0,0,1-2.165-1.255,2.332,2.332,0,0,1,0-2.364l2.021-3.416.12.462a1.133,1.133,0,1,0,2.193-.567l-.8-3.105a1.133,1.133,0,0,0-1.378-.814l-3.113.8a1.134,1.134,0,1,0,.567,2.2l.462-.119-2.016,3.407a4.568,4.568,0,0,0-.022,4.64Z" transform="translate(2.533 3.628)" fill="#262626"/>
    </g>
  </g>
</svg>
