<svg xmlns="http://www.w3.org/2000/svg" width="97" height="97" viewBox="0 0 97 97">
  <g id="Grupo_1110060" data-name="Grupo 1110060" transform="translate(-407.051 -1899)">
    <rect id="Rectángulo_403111" data-name="Rectángulo 403111" width="97" height="97" rx="8" transform="translate(407.051 1899)" fill="#95dbb3"/>
    <g id="Grupo_1110059" data-name="Grupo 1110059" transform="translate(396.937 1893.916)">
      <path id="Trazado_901453" data-name="Trazado 901453" d="M302.407,16.084a15.713,15.713,0,1,1-11.11,4.6A15.664,15.664,0,0,1,302.407,16.084Z" transform="translate(-223.662)" fill="#231916" fill-rule="evenodd"/>
      <path id="Trazado_901454" data-name="Trazado 901454" d="M322.917,32.879a13.737,13.737,0,1,0,4.024,9.714A13.694,13.694,0,0,0,322.917,32.879Zm-7.558,6.489,3.829.539a.986.986,0,0,1,.7,1.5l-6.4,11.458a.984.984,0,0,1-1.843-.535l.192-6.7-4.57-.418a.984.984,0,0,1-.742-1.507h0l7.246-11.427a.987.987,0,0,1,1.814.635l-.221,6.461Z" transform="translate(-234.458 -10.796)" fill="#83c5ec" fill-rule="evenodd"/>
      <path id="Trazado_901455" data-name="Trazado 901455" d="M369.877,82.84l-3.282-.462h0a.984.984,0,0,1-.849-1.006l.13-3.8-4.442,7.005,3.867.353a.984.984,0,0,1,.912,1.008l-.1,3.645,3.768-6.743Z" transform="translate(-286.842 -51.979)" fill="#f5bd53" fill-rule="evenodd"/>
      <path id="Trazado_901456" data-name="Trazado 901456" d="M340.6,240.247V249.8h3.37a.988.988,0,0,1,.729,1.654l-8.686,10.5a.987.987,0,0,1-1.532-.014l-8.7-10.527a.986.986,0,0,1,.76-1.615h3.37v-9.554a.988.988,0,0,1,.988-.988h8.716a.988.988,0,0,1,.988.988Z" transform="translate(-256.51 -188.66)" fill="#231916" fill-rule="evenodd"/>
      <path id="Trazado_901457" data-name="Trazado 901457" d="M355.478,261.586v-9.554h-6.741v9.554a.988.988,0,0,1-.988.988h-2.262l6.62,8.006,6.62-8.006h-2.262A.988.988,0,0,1,355.478,261.586Z" transform="translate(-273.362 -199.457)" fill="#e95554" fill-rule="evenodd"/>
      <path id="Trazado_901458" data-name="Trazado 901458" d="M24.51,104.329a21.066,21.066,0,1,1,37.337,0,2.233,2.233,0,0,1,.72.827,2.2,2.2,0,0,1-.169,2.316c-.112.156-.385.526-.659.9-2,2.707-4.046,5.483-4.046,12.864a6.076,6.076,0,0,1-1.788,4.307,6.144,6.144,0,0,1-1.1.872v2.571a4.18,4.18,0,0,1-3.549,4.121v1.558a4.179,4.179,0,0,1-4.167,4.167H39.266a4.176,4.176,0,0,1-4.167-4.167V133.1a4.179,4.179,0,0,1-3.549-4.121v-2.571a6.148,6.148,0,0,1-1.1-.872,6.076,6.076,0,0,1-1.788-4.307c0-7.381-2.048-10.157-4.046-12.864-.274-.372-.548-.742-.659-.9a2.248,2.248,0,0,1,.551-3.143Z" transform="translate(0 -48.536)" fill="#231916" fill-rule="evenodd"/>
      <path id="Trazado_901459" data-name="Trazado 901459" d="M70.61,114.736a19.1,19.1,0,1,0-33.27,0Zm-31.794-9.374a.988.988,0,0,1-1.975,0q0-.234.015-.641a.984.984,0,1,1,1.967.069q-.007.2-.007.571Zm.471-3.781a.983.983,0,0,1-1.906-.486,17.17,17.17,0,0,1,9.161-11.172A.985.985,0,0,1,47.4,91.7a15.195,15.195,0,0,0-8.112,9.884Z" transform="translate(-10.796 -59.333)" fill="#fff" fill-rule="evenodd"/>
      <path id="Trazado_901460" data-name="Trazado 901460" d="M98.461,424.713h14.557a2.2,2.2,0,0,0,2.192-2.192v-1.781a6.094,6.094,0,0,1-1.234.126H97.137a6.08,6.08,0,0,1-1.234-.126v1.781a2.2,2.2,0,0,0,2.191,2.192h.366Z" transform="translate(-62.377 -342.075)" fill="#9e9e9f" fill-rule="evenodd"/>
      <path id="Trazado_901461" data-name="Trazado 901461" d="M118.847,459.2v1.512a2.2,2.2,0,0,0,2.191,2.192h7.826a2.2,2.2,0,0,0,2.191-2.191V459.2H118.847Z" transform="translate(-81.773 -374.582)" fill="#c8c9ca" fill-rule="evenodd"/>
      <path id="Trazado_901462" data-name="Trazado 901462" d="M44.129,283.5c.316.441.476.657.636.875,2.192,2.97,4.44,6.016,4.44,14.037a4.107,4.107,0,0,0,1.21,2.91,4.154,4.154,0,0,0,1.114.8l.01,0a4.084,4.084,0,0,0,1.786.409H70.163a4.13,4.13,0,0,0,4.12-4.12c0-8.02,2.248-11.066,4.44-14.037.16-.217.32-.434.636-.875a.258.258,0,0,0,.053-.128.27.27,0,0,0-.031-.144.259.259,0,0,0-.094-.1.267.267,0,0,0-.138-.032H44.339a.266.266,0,0,0-.138.032.258.258,0,0,0-.094.1.27.27,0,0,0-.031.144.26.26,0,0,0,.053.128Z" transform="translate(-18.565 -225.713)" fill="#f5bd53" fill-rule="evenodd"/>
    </g>
  </g>
</svg>
