<svg xmlns="http://www.w3.org/2000/svg" width="85" height="85" viewBox="0 0 85 85">
  <g id="Grupo_1109942" data-name="Grupo 1109942" transform="translate(-180.051 -797)">
    <rect id="Rectángulo_402373" data-name="Rectángulo 402373" width="85" height="85" transform="translate(180.051 797)" fill="none"/>
    <g id="Grupo_1109941" data-name="Grupo 1109941" transform="translate(152.101 806)">
      <g id="Grupo_1109926" data-name="Grupo 1109926" transform="translate(58.921 0.977)">
        <path id="Trazado_901074" data-name="Trazado 901074" d="M178.183,19.065l10.956-2.639-2.274-6.733A2.78,2.78,0,0,0,184,7.5H170.726a2.78,2.78,0,0,0-2.861,2.193l-2.274,6.733Z" transform="translate(-165.591 -7.5)" fill="#c38c66" fill-rule="evenodd"/>
      </g>
      <g id="Grupo_1109927" data-name="Grupo 1109927" transform="translate(58.921 53.296)">
        <path id="Trazado_901075" data-name="Trazado 901075" d="M177.363,421.651H184a2.779,2.779,0,0,0,2.861-2.2l2.274-6.733-11.774-3.475-11.774,3.475,2.274,6.733a2.779,2.779,0,0,0,2.861,2.2h6.637Z" transform="translate(-165.591 -409.246)" fill="#c38c66" fill-rule="evenodd"/>
      </g>
      <g id="Grupo_1109928" data-name="Grupo 1109928" transform="translate(43.927 28.785)">
        <path id="Trazado_901076" data-name="Trazado 901076" d="M50.45,227.5a2.642,2.642,0,0,0,2.636,2.636h3.939v-9.1H53.086a2.644,2.644,0,0,0-2.636,2.636V227.5Z" transform="translate(-50.45 -221.034)" fill="#375e7d" fill-rule="evenodd"/>
      </g>
      <g id="Grupo_1109929" data-name="Grupo 1109929" transform="translate(49.198 9.903)">
        <path id="Trazado_901077" data-name="Trazado 901077" d="M100.651,122.909H124.2a9.753,9.753,0,0,0,9.723-9.724V85.765a9.753,9.753,0,0,0-9.723-9.724H100.651a9.753,9.753,0,0,0-9.723,9.724v27.421a9.753,9.753,0,0,0,9.723,9.724Z" transform="translate(-90.928 -76.041)" fill="#eff6ff" fill-rule="evenodd"/>
      </g>
      <g id="Grupo_1109930" data-name="Grupo 1109930" transform="translate(53.765 14.425)">
        <path id="Trazado_901078" data-name="Trazado 901078" d="M130.877,148.595h24.094a4.9,4.9,0,0,0,4.884-4.888V115.651a4.9,4.9,0,0,0-4.884-4.884H130.877a4.9,4.9,0,0,0-4.884,4.884v28.056A4.9,4.9,0,0,0,130.877,148.595Z" transform="translate(-125.993 -110.767)" fill="#9fd4fe" fill-rule="evenodd"/>
      </g>
      <g id="Grupo_1109931" data-name="Grupo 1109931" transform="translate(90.89 19.627)">
        <path id="Trazado_901079" data-name="Trazado 901079" d="M411.066,159.81H415a2.642,2.642,0,0,0,2.636-2.636v-3.832A2.644,2.644,0,0,0,415,150.707h-3.939Z" transform="translate(-411.066 -150.707)" fill="#375e7d" fill-rule="evenodd"/>
      </g>
      <g id="Grupo_1109932" data-name="Grupo 1109932" transform="translate(90.89 37.944)">
        <path id="Trazado_901080" data-name="Trazado 901080" d="M411.066,300.465H415a2.642,2.642,0,0,0,2.636-2.636V294A2.645,2.645,0,0,0,415,291.362h-3.939Z" transform="translate(-411.066 -291.362)" fill="#375e7d" fill-rule="evenodd"/>
      </g>
      <g id="Grupo_1109933" data-name="Grupo 1109933" transform="translate(70.524 9.903)">
        <path id="Trazado_901081" data-name="Trazado 901081" d="M266.628,76.042H255.849a23.574,23.574,0,0,1,4.127,4.522H266.9a4.9,4.9,0,0,1,4.884,4.884V113.5a4.9,4.9,0,0,1-4.884,4.888h-7.593a22.39,22.39,0,0,1-4.625,4.518h11.946a9.753,9.753,0,0,0,9.723-9.724V85.765A9.753,9.753,0,0,0,266.628,76.042Z" transform="translate(-254.683 -76.042)" fill="#d9eeff" fill-rule="evenodd"/>
      </g>
      <g id="Grupo_1109934" data-name="Grupo 1109934" transform="translate(75.149 14.425)">
        <path id="Trazado_901082" data-name="Trazado 901082" d="M290.867,110.766c7.652,14.261,7.339,24.948-.668,37.827h7.593a4.9,4.9,0,0,0,4.884-4.888V115.65a4.9,4.9,0,0,0-4.884-4.884h-6.925Z" transform="translate(-290.199 -110.766)" fill="#85beef" fill-rule="evenodd"/>
      </g>
      <g id="Grupo_1109935" data-name="Grupo 1109935" transform="translate(78.46 20.313)">
        <path id="Trazado_901083" data-name="Trazado 901083" d="M315.625,158.5a2.519,2.519,0,1,0,2.518-2.521A2.521,2.521,0,0,0,315.625,158.5Z" transform="translate(-315.625 -155.979)" fill="#eb5468" fill-rule="evenodd"/>
      </g>
      <g id="Grupo_1109936" data-name="Grupo 1109936" transform="translate(78.46 30.819)">
        <path id="Trazado_901084" data-name="Trazado 901084" d="M315.625,239.172a2.519,2.519,0,1,0,2.518-2.518A2.518,2.518,0,0,0,315.625,239.172Z" transform="translate(-315.625 -236.654)" fill="#eb5468" fill-rule="evenodd"/>
      </g>
      <g id="Grupo_1109937" data-name="Grupo 1109937" transform="translate(78.46 41.326)">
        <path id="Trazado_901085" data-name="Trazado 901085" d="M315.625,319.846a2.519,2.519,0,1,0,2.518-2.518A2.518,2.518,0,0,0,315.625,319.846Z" transform="translate(-315.625 -317.328)" fill="#ffd772" fill-rule="evenodd"/>
      </g>
      <g id="Grupo_1109938" data-name="Grupo 1109938" transform="translate(73.215 56.771)">
        <path id="Trazado_901086" data-name="Trazado 901086" d="M280.481,435.93l-2.274,6.733a2.779,2.779,0,0,1-2.861,2.2h4.12a2.779,2.779,0,0,0,2.861-2.2l2.274-6.733Z" transform="translate(-275.346 -435.93)" fill="#b57f5f" fill-rule="evenodd"/>
      </g>
      <g id="Grupo_1109939" data-name="Grupo 1109939" transform="translate(73.215 0.977)">
        <path id="Trazado_901087" data-name="Trazado 901087" d="M278.207,9.693l2.274,6.733h4.12l-2.274-6.733A2.78,2.78,0,0,0,279.466,7.5h-4.12A2.78,2.78,0,0,1,278.207,9.693Z" transform="translate(-275.346 -7.5)" fill="#b57f5f" fill-rule="evenodd"/>
      </g>
      <g id="Grupo_1109940" data-name="Grupo 1109940" transform="translate(42.95 0)">
        <path id="Trazado_901088" data-name="Trazado 901088" d="M166.523,160.366a2.221,2.221,0,0,0-2.217-2.221h-2.662a2.223,2.223,0,0,0-2.221,2.221v7.125a2.223,2.223,0,0,0,2.221,2.221h2.662a2.221,2.221,0,0,0,2.217-2.221Zm-1.953,7.125a.269.269,0,0,1-.264.267h-2.662a.274.274,0,0,1-.267-.267v-7.125a.274.274,0,0,1,.267-.267h2.662a.269.269,0,0,1,.264.267Z" transform="translate(-144.256 -137.55)"/>
        <path id="Trazado_901089" data-name="Trazado 901089" d="M163.682,274.649H160.4a.977.977,0,1,0,0,1.953h3.282a2.223,2.223,0,0,0,2.221-2.221v-7.125a2.221,2.221,0,0,0-2.221-2.217H160.4a.977.977,0,1,0,0,1.953h3.282a.269.269,0,0,1,.267.264v2.586H160.4a.977.977,0,1,0,0,1.953h3.549v2.586a.271.271,0,0,1-.267.267Z" transform="translate(-144.256 -230.524)"/>
        <path id="Trazado_901090" data-name="Trazado 901090" d="M233.264,169.711a.977.977,0,0,0,.977-.977v-8.369a2.223,2.223,0,0,0-2.221-2.221h-3.9a.977.977,0,1,0,0,1.953h3.9a.274.274,0,0,1,.267.267v8.369A.977.977,0,0,0,233.264,169.711Z" transform="translate(-203.154 -137.55)"/>
        <path id="Trazado_901091" data-name="Trazado 901091" d="M234.24,274.382v-7.125a2.221,2.221,0,0,0-2.221-2.217h-2.658a2.221,2.221,0,0,0-2.221,2.217v7.125a2.223,2.223,0,0,0,2.221,2.221h2.658A2.223,2.223,0,0,0,234.24,274.382Zm-1.953,0a.271.271,0,0,1-.267.267h-2.658a.271.271,0,0,1-.267-.267v-7.125a.269.269,0,0,1,.267-.264h2.658a.269.269,0,0,1,.267.264Z" transform="translate(-203.154 -230.524)"/>
        <path id="Trazado_901092" data-name="Trazado 901092" d="M311.619,155.471a3.5,3.5,0,1,0-3.494-3.494A3.5,3.5,0,0,0,311.619,155.471Zm0-5.039a1.543,1.543,0,1,1-1.541,1.545A1.546,1.546,0,0,1,311.619,150.432Z" transform="translate(-273.591 -129.142)"/>
        <path id="Trazado_901093" data-name="Trazado 901093" d="M311.619,316.816a3.494,3.494,0,1,0-3.494-3.494A3.5,3.5,0,0,0,311.619,316.816Zm0-5.035a1.541,1.541,0,1,1-1.541,1.541A1.544,1.544,0,0,1,311.619,311.781Z" transform="translate(-273.591 -269.478)"/>
        <path id="Trazado_901094" data-name="Trazado 901094" d="M311.619,236.141a3.494,3.494,0,1,0-3.494-3.494A3.5,3.5,0,0,0,311.619,236.141Zm0-5.035a1.541,1.541,0,1,1-1.541,1.541A1.544,1.544,0,0,1,311.619,231.106Z" transform="translate(-273.591 -199.31)"/>
        <path id="Trazado_901095" data-name="Trazado 901095" d="M94.828,29.707a3.617,3.617,0,0,0,3.612-3.612V22.262a3.617,3.617,0,0,0-3.612-3.613H93.123a10.714,10.714,0,0,0-9.944-9.7l-2.059-6.1A3.749,3.749,0,0,0,77.334,0H64.056A3.748,3.748,0,0,0,60.27,2.857l-2.059,6.1a10.712,10.712,0,0,0-9.99,10.674v8.182H46.562a3.617,3.617,0,0,0-3.612,3.612v3.832a3.617,3.617,0,0,0,3.612,3.612h1.659v8.182a10.712,10.712,0,0,0,9.99,10.674l2.058,6.1a3.749,3.749,0,0,0,3.787,2.861H77.335a3.748,3.748,0,0,0,3.786-2.861l2.058-6.1a10.714,10.714,0,0,0,9.944-9.7h1.705a3.617,3.617,0,0,0,3.612-3.612V40.584a3.618,3.618,0,0,0-3.612-3.616H93.169V29.707Zm1.659-7.444v3.832a1.661,1.661,0,0,1-1.659,1.659H93.169V20.6h1.659A1.661,1.661,0,0,1,96.487,22.262ZM62.121,3.483c.377-1.115.9-1.529,1.936-1.529H77.335c1.034,0,1.559.415,1.936,1.529l1.839,5.444H74.037V6.843a.977.977,0,1,0-1.953,0V8.926H69.308V6.843a.977.977,0,0,0-1.953,0V8.926H60.282ZM46.562,36.912A1.661,1.661,0,0,1,44.9,35.253V31.421a1.661,1.661,0,0,1,1.659-1.659h1.659v7.15ZM79.27,63.192c-.377,1.117-.9,1.532-1.936,1.532H64.056c-1.034,0-1.559-.415-1.936-1.532l-1.839-5.444h7.072v2.084a.977.977,0,0,0,1.953,0V57.748h2.775v2.084a.977.977,0,0,0,1.953,0V57.748h7.072Zm3.2-7.4H58.922a8.757,8.757,0,0,1-8.747-8.747V19.627a8.757,8.757,0,0,1,8.747-8.747H82.469a8.757,8.757,0,0,1,8.747,8.747V47.048a8.757,8.757,0,0,1-8.746,8.747ZM94.828,38.921a1.663,1.663,0,0,1,1.659,1.663v3.828a1.661,1.661,0,0,1-1.659,1.659H93.169v-7.15h1.659Z" transform="translate(-42.95 0)"/>
        <path id="Trazado_901096" data-name="Trazado 901096" d="M278.77,103.267H269.3a.977.977,0,1,0,0,1.953h9.465a3.912,3.912,0,0,1,3.907,3.907v28.056a3.913,3.913,0,0,1-3.907,3.911H269.3a.977.977,0,1,0,0,1.953h9.465a5.869,5.869,0,0,0,5.86-5.864V109.128A5.867,5.867,0,0,0,278.77,103.267Z" transform="translate(-238.977 -89.819)"/>
        <path id="Trazado_901097" data-name="Trazado 901097" d="M134.092,141.094h-9.738a3.913,3.913,0,0,1-3.907-3.911V109.128a3.912,3.912,0,0,1,3.907-3.907h9.738a.977.977,0,1,0,0-1.953h-9.738a5.867,5.867,0,0,0-5.86,5.861v28.056a5.869,5.869,0,0,0,5.86,5.864h9.738a.977.977,0,0,0,0-1.954Z" transform="translate(-108.655 -89.819)"/>
      </g>
    </g>
  </g>
</svg>
