<svg xmlns="http://www.w3.org/2000/svg" width="214.877" height="220.543" viewBox="0 0 214.877 220.543">
  <g id="Grupo_1109888" data-name="Grupo 1109888" transform="translate(-1107.174 -1976.457)">
    <g id="Grupo_1109874" data-name="Grupo 1109874" transform="translate(1257 1986.367)">
      <path id="Trazado_900984" data-name="Trazado 900984" d="M65.608,36.566A28.034,28.034,0,0,1,37.574,64.6a16.728,16.728,0,0,1-2.417-.116,28.033,28.033,0,0,1,0-55.835,16.728,16.728,0,0,1,2.417-.116A28.034,28.034,0,0,1,65.608,36.566Z" transform="translate(-8.574 -7.566)" fill="#a8a5a4"/>
      <path id="Trazado_900985" data-name="Trazado 900985" d="M60.774,37.4A28.032,28.032,0,0,1,35.158,65.307a28.033,28.033,0,0,1,0-55.835A28.034,28.034,0,0,1,60.774,37.4Z" transform="translate(-8.574 -8.399)" fill="#bdbdbd"/>
      <path id="Trazado_900986" data-name="Trazado 900986" d="M116.955,159.23c-3.577,6.438-11.126,10.894-19.875,10.894a16.076,16.076,0,0,1-1.933-.077c-7.917-.6-14.635-4.833-17.941-10.807a3.521,3.521,0,0,1,0-3.364c3.306-5.964,10.024-10.218,17.941-10.817.638,0,1.286-.077,1.933-.077,8.748,0,16.3,4.447,19.875,10.885A3.547,3.547,0,0,1,116.955,159.23Z" transform="translate(-68.08 -128.557)" fill="#f4f4f4"/>
      <path id="Trazado_900987" data-name="Trazado 900987" d="M113.088,159.835c-3.306,5.955-10.024,10.208-17.941,10.807-7.917-.6-14.635-4.833-17.941-10.807a3.521,3.521,0,0,1,0-3.364c3.306-5.955,10.024-10.208,17.941-10.807,7.917.6,14.635,4.833,17.941,10.807A3.547,3.547,0,0,1,113.088,159.835Z" transform="translate(-68.08 -129.163)" fill="#fff"/>
      <path id="Trazado_900988" data-name="Trazado 900988" d="M203.114,195.466a7.734,7.734,0,0,1-7.733,7.733,8.029,8.029,0,0,1-1.45-.135,7.733,7.733,0,0,1,0-15.2,8.028,8.028,0,0,1,1.45-.135A7.734,7.734,0,0,1,203.114,195.466Z" transform="translate(-166.38 -166.466)" fill="#2979ff"/>
      <path id="Trazado_900989" data-name="Trazado 900989" d="M200.214,196.526a7.733,7.733,0,0,1-6.283,7.6,7.733,7.733,0,0,1,0-15.2A7.733,7.733,0,0,1,200.214,196.526Z" transform="translate(-166.38 -167.526)" fill="#0091ea"/>
      <circle id="Elipse_11541" data-name="Elipse 11541" cx="2.9" cy="2.9" r="2.9" transform="translate(26.1 26.09)" fill="#555656"/>
      <path id="Trazado_900990" data-name="Trazado 900990" d="M29,58A29,29,0,1,1,58,29,29,29,0,0,1,29,58ZM29,1.933A27.067,27.067,0,1,0,56.067,29,27.067,27.067,0,0,0,29,1.933Z"/>
      <path id="Trazado_900991" data-name="Trazado 900991" d="M89.517,163.6c-8.884,0-16.83-4.36-20.716-11.378a4.477,4.477,0,0,1,0-4.311c3.886-7.028,11.832-11.378,20.716-11.378s16.83,4.35,20.716,11.368a4.477,4.477,0,0,1,0,4.311C106.346,159.23,98.4,163.6,89.517,163.6Zm0-25.133c-8.062,0-15.525,4.079-19.024,10.382a2.553,2.553,0,0,0,0,2.426c3.5,6.3,10.962,10.392,19.024,10.392s15.525-4.079,19.024-10.382a2.553,2.553,0,0,0,0-2.426C105.041,142.536,97.579,138.466,89.517,138.466Z" transform="translate(-60.517 -121.066)"/>
      <path id="Trazado_900992" data-name="Trazado 900992" d="M187.9,196.6a8.7,8.7,0,1,1,8.7-8.7A8.7,8.7,0,0,1,187.9,196.6Zm0-15.467a6.767,6.767,0,1,0,6.767,6.767A6.767,6.767,0,0,0,187.9,181.133Z" transform="translate(-158.9 -158.9)"/>
      <path id="Trazado_900993" data-name="Trazado 900993" d="M225.734,229.6a3.867,3.867,0,1,1,3.867-3.867A3.867,3.867,0,0,1,225.734,229.6Zm0-5.8a1.933,1.933,0,1,0,1.933,1.933A1.933,1.933,0,0,0,225.734,223.8Z" transform="translate(-196.734 -196.734)"/>
    </g>
    <rect id="Rectángulo_403078" data-name="Rectángulo 403078" width="190" height="27" rx="4" transform="translate(1125.051 2116.367)" fill="#6e4874"/>
    <text id="LCD" transform="translate(1206.051 2136.367)" fill="#fff" font-size="16" font-family="Roboto-Bold, Roboto" font-weight="700"><tspan x="0" y="0">LCD</tspan></text>
    <g id="Grupo_1109875" data-name="Grupo 1109875" transform="translate(0 35.367)">
      <line id="Línea_587" data-name="Línea 587" x2="49" y2="50" transform="translate(1161 2017.5)" fill="none" stroke="#117779" stroke-width="2"/>
      <path id="Polígono_8" data-name="Polígono 8" d="M4.5,0,9,8H0Z" transform="translate(1154.981 2017.644) rotate(-43)" fill="#117779"/>
      <path id="Polígono_9" data-name="Polígono 9" d="M4.5,0,9,8H0Z" transform="translate(1215.011 2066.146) rotate(135)" fill="#117779"/>
    </g>
    <g id="Grupo_1109876" data-name="Grupo 1109876" transform="translate(1226.985 2046.872)">
      <line id="Línea_587-2" data-name="Línea 587" x1="49" y2="50" transform="translate(5.011 5.994)" fill="none" stroke="#117779" stroke-width="2"/>
      <path id="Polígono_8-2" data-name="Polígono 8" d="M4.5,0,9,8H0Z" transform="translate(53.447 0) rotate(43)" fill="#117779"/>
      <path id="Polígono_9-2" data-name="Polígono 9" d="M4.5,0,9,8H0Z" transform="translate(6.364 61.005) rotate(-135)" fill="#117779"/>
    </g>
    <text id="Reflector" transform="translate(1257.051 2176)" fill="#12263f" font-size="16" font-family="Roboto-Regular, Roboto"><tspan x="0" y="17">Reflector</tspan></text>
    <line id="Línea_588" data-name="Línea 588" y2="24" transform="translate(1218.551 2161.5)" fill="none" stroke="#117779" stroke-width="2"/>
    <line id="Línea_589" data-name="Línea 589" x2="33" transform="translate(1217.551 2185.5)" fill="none" stroke="#117779" stroke-width="2"/>
    <path id="Polígono_10" data-name="Polígono 10" d="M4.5,0,9,8H0Z" transform="translate(1214.051 2157)" fill="#117779"/>
    <path id="Polígono_11" data-name="Polígono 11" d="M4.5,0,9,8H0Z" transform="translate(1253.551 2181) rotate(90)" fill="#117779"/>
    <g id="Grupo_1109879" data-name="Grupo 1109879" transform="translate(561.543 -768.543)">
      <circle id="Elipse_11542" data-name="Elipse 11542" cx="24.386" cy="24.386" r="24.386" transform="translate(560.222 2759.458)" fill="#ffd900"/>
      <path id="Trazado_901006" data-name="Trazado 901006" d="M136.711,99.363a24.386,24.386,0,1,0,0-48.772Z" transform="translate(447.897 2708.866)" fill="#f5be12"/>
      <path id="Trazado_901011" data-name="Trazado 901011" d="M78.5,37.579H68.539a26.6,26.6,0,0,0-6.155-14.83L69.5,15.63a2.332,2.332,0,1,0-3.3-3.3l-7.119,7.119A26.6,26.6,0,0,0,44.256,13.3V3.332a2.332,2.332,0,1,0-4.665,0V13.3a26.6,26.6,0,0,0-14.83,6.155l-7.094-7.094a2.332,2.332,0,1,0-3.3,3.3l7.095,7.095a26.6,26.6,0,0,0-6.155,14.83H5.345a2.332,2.332,0,1,0,0,4.665h9.964a26.6,26.6,0,0,0,6.155,14.83l-7.119,7.119a2.332,2.332,0,0,0,0,3.3,2.389,2.389,0,0,0,3.3,0l7.119-7.119a26.6,26.6,0,0,0,14.83,6.155v9.964a2.332,2.332,0,1,0,4.665,0V66.526a26.6,26.6,0,0,0,14.829-6.155l7.119,7.119a2.527,2.527,0,0,0,3.3,0,2.332,2.332,0,0,0,0-3.3l-7.119-7.119a26.6,26.6,0,0,0,6.155-14.83H78.5a2.332,2.332,0,1,0,0-4.665ZM41.924,61.965A22.054,22.054,0,1,1,63.978,39.911,22.078,22.078,0,0,1,41.924,61.965Z" transform="translate(542.617 2744)"/>
    </g>
  </g>
</svg>
