<svg xmlns="http://www.w3.org/2000/svg" xmlns:xlink="http://www.w3.org/1999/xlink" width="85" height="85" viewBox="0 0 85 85">
  <defs>
    <clipPath id="clip-path">
      <path id="path4782" d="M0-682.665H66.634v66.634H0Z" transform="translate(0 682.665)"/>
    </clipPath>
  </defs>
  <g id="Grupo_1109968" data-name="Grupo 1109968" transform="translate(-334.051 -1747)">
    <rect id="Rectángulo_402373" data-name="Rectángulo 402373" width="85" height="85" transform="translate(334.051 1747)" fill="none"/>
    <g id="g4776" transform="translate(343.051 2438.665)">
      <g id="g4778" transform="translate(0 -682.665)">
        <g id="g4780" clip-path="url(#clip-path)">
          <g id="g4786" transform="translate(0 26.354)">
            <path id="path4788" d="M-122.725-185.892a1.952,1.952,0,0,1-1.952-1.952v-12.949A5.206,5.206,0,0,0-129.883-206v21.1l-4.945,4.945H-136v14.231h5.466l.651-.583L-117-178.63l1.063-.225a7.193,7.193,0,0,0,5.7-7.038Z" transform="translate(136 206)" fill="#fdd8a8"/>
          </g>
          <g id="g4790" transform="translate(27.46 41.386)">
            <path id="path4792" d="M-215.37-117.611v.781h-23.3v-.781a4.425,4.425,0,0,1,4.425-4.425l.159-1.013,1.143-7.284h11.713l1.3,8.3h.13a4.425,4.425,0,0,1,4.425,4.425" transform="translate(238.666 130.333)" fill="#d8d7da"/>
          </g>
          <g id="g4794" transform="translate(32.778 41.386)">
            <path id="path4796" d="M-115.842-24.064h-12.53l.409-2.6h11.713Z" transform="translate(128.372 26.667)" fill="#acabb1"/>
          </g>
          <g id="g4798" transform="translate(12.364 1.041)">
            <path id="path4800" d="M-493.306-36.1V-3.56a3.9,3.9,0,0,1-3.9,3.9h-45.551a3.9,3.9,0,0,1-3.9-3.9V-36.1a3.9,3.9,0,0,1,3.9-3.9h45.551a3.9,3.9,0,0,1,3.9,3.9" transform="translate(546.665 40)" fill="#d8d7da"/>
          </g>
          <g id="g4802" transform="translate(12.364 16.008)">
            <path id="path4804" d="M-197.579-167.844a4.522,4.522,0,0,0-1.194-3.074,4.561,4.561,0,0,0,.255-1.509,4.523,4.523,0,0,0-.762-2.524,4.561,4.561,0,0,0-.34-6.061,4.55,4.55,0,0,0-1.4-.956A4.561,4.561,0,0,0-205.545-186h-12.494a4.56,4.56,0,0,0-.911.092v21.382a3.9,3.9,0,0,0,3.9,3.9h17.312a4.567,4.567,0,0,0-.406-5.032,4.53,4.53,0,0,0,.56-2.191" transform="translate(218.95 186)" fill="#acabb1"/>
          </g>
          <path id="path4806" d="M212.217-607.076h-45.55V-632h45.55Z" transform="translate(-150.398 636.944)" fill="#55a3f9"/>
          <path id="path4808" d="M166.666-632h45.55v2.6h-45.55Z" transform="translate(-150.398 636.944)" fill="#0f92f4"/>
          <g id="g4810" transform="translate(16.268 16.008)">
            <path id="path4812" d="M-145.766-102.138A4.533,4.533,0,0,1-145-99.614c0,.1,0,.193-.009.288h-16.519v-13.86h9.5a4.561,4.561,0,0,1,4.524,4.031,4.572,4.572,0,0,1,1.4.957,4.563,4.563,0,0,1,.34,6.061" transform="translate(161.533 113.186)" fill="#0f92f4"/>
          </g>
          <g id="g4814" transform="translate(37.091 33.642)">
            <path id="path4816" d="M-36.1-18.048A1.952,1.952,0,0,1-38.048-16.1,1.952,1.952,0,0,1-40-18.048,1.952,1.952,0,0,1-38.048-20,1.952,1.952,0,0,1-36.1-18.048" transform="translate(40 20)" fill="#b0bec5"/>
          </g>
          <path id="path4818" d="M132.4-400.172H116v-12.494h16.4Z" transform="translate(-104.677 439.02)" fill="#80d8ff"/>
          <g id="g4820" transform="translate(11.323 38.848)">
            <path id="path4822" d="M-151.6,0V5.661a1.953,1.953,0,0,1-1.952,1.952h-12.494A1.953,1.953,0,0,1-168,5.661V0Z" transform="translate(168)" fill="#b0bec5"/>
          </g>
          <g id="g4824" transform="translate(11.323 18.611)">
            <path id="path4826" d="M-151.6-18.048A1.952,1.952,0,0,0-153.554-20h-12.494A1.952,1.952,0,0,0-168-18.048v5.791h16.4Z" transform="translate(168 20)" fill="#b0bec5"/>
          </g>
          <g id="g4828" transform="translate(11.323 26.354)">
            <path id="path4830" d="M0,0V2.6H11.1l-.163.163a4.556,4.556,0,0,0,0,6.442,4.773,4.773,0,0,0,.524.452,4.513,4.513,0,0,0,1,2.835H16.4V0Z" fill="#40c4ff"/>
          </g>
          <g id="g4832" transform="translate(22.081 19.755)">
            <path id="path4834" d="M-52.139-7.472V-1.68h-5.63A4.54,4.54,0,0,1-56.447-5.2l1.84-1.842a4.528,4.528,0,0,1,2.292-1.24,1.926,1.926,0,0,1,.176.808" transform="translate(57.779 8.28)" fill="#90a4ae"/>
          </g>
          <g id="g4836" transform="translate(23.784 38.848)">
            <path id="path4838" d="M0,0H3.937V5.661a1.826,1.826,0,0,1-.017.255A4.518,4.518,0,0,1,1.489,4.65,4.525,4.525,0,0,1,.155,1.43,4.565,4.565,0,0,1,.289.328,4.241,4.241,0,0,1,0,0" fill="#90a4ae"/>
          </g>
          <g id="g4840" transform="translate(26.542 37.221)">
            <path id="path4842" d="M-5.286-41.019h0a1.952,1.952,0,0,1,0-2.761l1.1-1.1a1.952,1.952,0,0,1,2.761,0,1.952,1.952,0,0,1,0,2.761l-1.1,1.1a1.952,1.952,0,0,1-2.761,0" transform="translate(5.858 45.456)" fill="#fdd8a8"/>
          </g>
          <g id="g4844" transform="translate(25.387 32.211)">
            <path id="path4846" d="M-5.286-47.826h0a1.952,1.952,0,0,1,0-2.761l1.841-1.84a1.952,1.952,0,0,1,2.761,0,1.952,1.952,0,0,1,0,2.761l-1.84,1.841a1.952,1.952,0,0,1-2.761,0" transform="translate(5.858 52.999)" fill="#fdd8a8"/>
          </g>
          <g id="g4848" transform="translate(24.681 22.264)">
            <path id="path4850" d="M-5.285-47.825h0a1.952,1.952,0,0,1,0-2.761l1.841-1.84a1.952,1.952,0,0,1,2.761,0,1.952,1.952,0,0,1,0,2.761l-1.84,1.84a1.952,1.952,0,0,1-2.761,0" transform="translate(5.857 52.998)" fill="#fdd8a8"/>
          </g>
          <g id="g4852" transform="translate(23.528 27.628)">
            <path id="path4854" d="M-5.286-56.333h0a1.952,1.952,0,0,1,0-2.761l2.761-2.761a1.952,1.952,0,0,1,2.761,0,1.952,1.952,0,0,1,0,2.761l-2.761,2.761a1.952,1.952,0,0,1-2.761,0" transform="translate(5.858 62.426)" fill="#fdd8a8"/>
          </g>
          <g id="g4856" transform="translate(8.72 27.052)">
            <path id="path4858" d="M-157.617-179.437h-12.494a1.952,1.952,0,0,1-1.952-1.952v-12.949a5.2,5.2,0,0,0-2.6-4.508v17.457a4.56,4.56,0,0,0,4.555,4.555h12.006a7.176,7.176,0,0,0,.488-2.6" transform="translate(174.666 198.846)" fill="#ffc477"/>
          </g>
          <g id="g4860" transform="translate(12.364 1.041)">
            <path id="path4862" d="M-202.135-372.988h27.591a3.9,3.9,0,0,0,3.9-3.9v-32.536a3.9,3.9,0,0,0-3.9-3.9H-220.1a3.9,3.9,0,0,0-3.9,3.9v10.8" transform="translate(223.999 413.332)" fill="none" stroke="#000" stroke-miterlimit="10" stroke-width="2"/>
          </g>
          <g id="g4864" transform="translate(27.46 41.386)">
            <path id="path4866" d="M-48.034-31.283-48.8-26.37a4.425,4.425,0,0,0-4.425,4.425v.781h23.3v-.781a4.425,4.425,0,0,0-4.425-4.425h-.13l-1.3-8.3" transform="translate(53.229 34.667)" fill="none" stroke="#000" stroke-miterlimit="10" stroke-width="2"/>
          </g>
          <g id="g4868" transform="translate(37.091 33.642)">
            <path id="path4870" d="M-36.1-18.048A1.952,1.952,0,0,1-38.048-16.1,1.952,1.952,0,0,1-40-18.048,1.952,1.952,0,0,1-38.048-20,1.952,1.952,0,0,1-36.1-18.048Z" transform="translate(40 20)" fill="none" stroke="#000" stroke-miterlimit="10" stroke-width="2"/>
          </g>
          <g id="g4872" transform="translate(37.286 49.683)">
            <path id="path4874" d="M0,0H9.11" fill="none" stroke="#000" stroke-miterlimit="10" stroke-width="2"/>
          </g>
          <g id="g4876" transform="translate(16.268 4.945)">
            <path id="path4878" d="M-156.414-230.41h28.632v-24.923h-45.55v10.8" transform="translate(173.333 255.333)" fill="none" stroke="#000" stroke-miterlimit="10" stroke-width="2"/>
          </g>
          <g id="g4880" transform="translate(11.323 18.611)">
            <path id="path4882" d="M-151.6-215.37v2.6a1.952,1.952,0,0,1-1.952,1.952h-12.494A1.952,1.952,0,0,1-168-212.767v-23.947a1.952,1.952,0,0,1,1.952-1.952h12.494a1.952,1.952,0,0,1,1.952,1.952v1.952" transform="translate(168 238.666)" fill="none" stroke="#000" stroke-miterlimit="10" stroke-width="2"/>
          </g>
          <g id="g4884" transform="translate(11.323 26.354)">
            <path id="path4886" d="M0,0H13.6" fill="none" stroke="#000" stroke-miterlimit="10" stroke-width="2"/>
          </g>
          <g id="g4888" transform="translate(11.388 38.848)">
            <path id="path4890" d="M0,0H16.4" fill="none" stroke="#000" stroke-miterlimit="10" stroke-width="2"/>
          </g>
          <g id="g4892" transform="translate(14.316 22.45)">
            <path id="path4894" d="M0,0H10.412" fill="none" stroke="#000" stroke-miterlimit="10" stroke-width="2" stroke-dasharray="50 15 15 15"/>
          </g>
          <g id="g4896" transform="translate(26.542 37.221)">
            <path id="path4898" d="M-5.286-41.019h0a1.952,1.952,0,0,1,0-2.761l1.1-1.1a1.952,1.952,0,0,1,2.761,0,1.952,1.952,0,0,1,0,2.761l-1.1,1.1A1.952,1.952,0,0,1-5.286-41.019Z" transform="translate(5.858 45.456)" fill="none" stroke="#000" stroke-miterlimit="10" stroke-width="2"/>
          </g>
          <g id="g4900" transform="translate(25.387 32.211)">
            <path id="path4902" d="M-5.286-47.826h0a1.952,1.952,0,0,1,0-2.761l1.841-1.84a1.952,1.952,0,0,1,2.761,0,1.952,1.952,0,0,1,0,2.761l-1.84,1.841A1.952,1.952,0,0,1-5.286-47.826Z" transform="translate(5.858 52.999)" fill="none" stroke="#000" stroke-miterlimit="10" stroke-width="2"/>
          </g>
          <g id="g4904" transform="translate(24.681 22.264)">
            <path id="path4906" d="M-5.285-47.825h0a1.952,1.952,0,0,1,0-2.761l1.841-1.84a1.952,1.952,0,0,1,2.761,0,1.952,1.952,0,0,1,0,2.761l-1.84,1.84A1.952,1.952,0,0,1-5.285-47.825Z" transform="translate(5.857 52.998)" fill="none" stroke="#000" stroke-miterlimit="10" stroke-width="2"/>
          </g>
          <g id="g4908" transform="translate(23.528 27.628)">
            <path id="path4910" d="M-5.286-56.333h0a1.952,1.952,0,0,1,0-2.761l2.761-2.761a1.952,1.952,0,0,1,2.761,0,1.952,1.952,0,0,1,0,2.761l-2.761,2.761A1.952,1.952,0,0,1-5.286-56.333Z" transform="translate(5.858 62.426)" fill="none" stroke="#000" stroke-miterlimit="10" stroke-width="2"/>
          </g>
          <g id="g4912" transform="translate(6.117 46.461)">
            <path id="path4914" d="M-181.681,0h0a7.193,7.193,0,0,1-5.7,7.038l-1.063.225-12.884,12.327" transform="translate(201.333)" fill="none" stroke="#000" stroke-miterlimit="10" stroke-width="2"/>
          </g>
          <g id="g4916" transform="translate(1.171 26.354)">
            <path id="path4918" d="M0-240.818l4.945-4.945v-21.1a5.206,5.206,0,0,1,5.206,5.206v8.329" transform="translate(0 266.866)" fill="none" stroke="#000" stroke-miterlimit="10" stroke-width="2"/>
          </g>
          <g id="g4920" transform="translate(54.01 8.85)">
            <path id="path4922" d="M-36.1-36.1V-40H-40" transform="translate(40 40)" fill="none" stroke="#fff" stroke-miterlimit="10" stroke-width="2"/>
          </g>
          <g id="g4924" transform="translate(20.172 8.85)">
            <path id="path4926" d="M0-36.1V-40H3.9" transform="translate(0 40)" fill="none" stroke="#fff" stroke-miterlimit="10" stroke-width="2"/>
          </g>
          <g id="g4928" transform="translate(35.523 10.216)">
            <path id="path4930" d="M-71.65-71.427v-7.726H-79.4" transform="translate(79.4 79.153)" fill="none" stroke="#fff" stroke-miterlimit="10" stroke-width="2"/>
          </g>
          <g id="g4932" transform="translate(33.447 10.216)">
            <path id="path4934" d="M-90.841,0l-9.826,9.826" transform="translate(100.666)" fill="none" stroke="#fff" stroke-miterlimit="10" stroke-width="2" stroke-dasharray="76 15 15 15"/>
          </g>
          <g id="g4936" transform="translate(47.373 18.303)">
            <path id="path4938" d="M0,0V7.726H7.75" fill="none" stroke="#fff" stroke-miterlimit="10" stroke-width="2"/>
          </g>
          <g id="g4940" transform="translate(47.373 16.203)">
            <path id="path4942" d="M0-90.841l9.826-9.826" transform="translate(0 100.666)" fill="none" stroke="#fff" stroke-miterlimit="10" stroke-width="2" stroke-dasharray="76 15 15 15"/>
          </g>
          <g id="g4944" transform="translate(18.546 42.492)">
            <path id="path4946" d="M0,0H1.952" fill="none" stroke="#fff" stroke-miterlimit="10" stroke-width="2" stroke-dasharray="54 15 15 15 15 15"/>
          </g>
        </g>
      </g>
    </g>
  </g>
</svg>
