<svg xmlns="http://www.w3.org/2000/svg" xmlns:xlink="http://www.w3.org/1999/xlink" width="61.27" height="73" viewBox="0 0 61.27 73">
  <defs>
    <filter id="Rectángulo_401320" x="0" y="0" width="36" height="73" filterUnits="userSpaceOnUse">
      <feOffset dy="3" input="SourceAlpha"/>
      <feGaussianBlur stdDeviation="3" result="blur"/>
      <feFlood flood-opacity="0.161"/>
      <feComposite operator="in" in2="blur"/>
      <feComposite in="SourceGraphic"/>
    </filter>
    <filter id="Rectángulo_401321" x="9" y="5" width="36" height="68" filterUnits="userSpaceOnUse">
      <feOffset dy="3" input="SourceAlpha"/>
      <feGaussianBlur stdDeviation="3" result="blur-2"/>
      <feFlood flood-opacity="0.161"/>
      <feComposite operator="in" in2="blur-2"/>
      <feComposite in="SourceGraphic"/>
    </filter>
  </defs>
  <g id="Grupo_1107629" data-name="Grupo 1107629" transform="translate(-181.73 -2027)">
    <g transform="matrix(1, 0, 0, 1, 181.73, 2027)" filter="url(#Rectángulo_401320)">
      <rect id="Rectángulo_401320-2" data-name="Rectángulo 401320" width="18" height="55" transform="translate(9 6)" fill="#a6f8fa"/>
    </g>
    <g transform="matrix(1, 0, 0, 1, 181.73, 2027)" filter="url(#Rectángulo_401321)">
      <rect id="Rectángulo_401321-2" data-name="Rectángulo 401321" width="18" height="50" transform="translate(18 11)" fill="#d2fbfc"/>
    </g>
    <g id="artificial_intelligence" data-name="artificial intelligence" transform="translate(193.672 2039.672)">
      <path id="Trazado_896968" data-name="Trazado 896968" d="M39,5H54.774V20.774H39Z" transform="translate(-7.818 -0.634)" fill="#ffe773"/>
      <path id="Trazado_896969" data-name="Trazado 896969" d="M55,5h3.155V20.774H55Z" transform="translate(-11.199 -0.634)" fill="#f3d750"/>
      <g id="Grupo_1107639" data-name="Grupo 1107639" transform="translate(27.356 7.069)">
        <circle id="Elipse_11530" data-name="Elipse 11530" cx="1.585" cy="1.585" r="1.585" transform="translate(17.961 25.356)" fill="#fe4f60"/>
        <circle id="Elipse_11531" data-name="Elipse 11531" cx="1.585" cy="1.585" r="1.585" transform="translate(13.735 0)" fill="#fe4f60"/>
        <circle id="Elipse_11532" data-name="Elipse 11532" cx="1.585" cy="1.585" r="1.585" transform="translate(10.565 38.034)" fill="#fe4f60"/>
        <circle id="Elipse_11533" data-name="Elipse 11533" cx="1.585" cy="1.585" r="1.585" transform="translate(0 22.187)" fill="#fe4f60"/>
      </g>
      <path id="Trazado_896970" data-name="Trazado 896970" d="M29.816,47v4.732a6.31,6.31,0,0,1-6.31,6.31H9.31A6.31,6.31,0,0,1,3,51.732V47h7.887l5.521,3.155L21.929,47Z" transform="translate(-0.211 -9.509)" fill="#57a4ff"/>
      <path id="Trazado_896971" data-name="Trazado 896971" d="M34.253,47v4.732a6.31,6.31,0,0,1-6.31,6.31H24a6.31,6.31,0,0,0,6.31-6.31V47Z" transform="translate(-4.649 -9.509)" fill="#006df0"/>
      <path id="Trazado_896972" data-name="Trazado 896972" d="M34.155,25.577v1.577a1.582,1.582,0,0,1-1.577,1.577H31V24h1.577a1.582,1.582,0,0,1,1.577,1.577Z" transform="translate(-6.128 -4.649)" fill="#ffdaaa"/>
      <path id="Trazado_896973" data-name="Trazado 896973" d="M28.661,14.887v1.057a3.155,3.155,0,0,1-.923,2.232l-2.232,2.232V16.464L13.676,13.31,8.155,16.464v3.943L5.923,18.176A3.155,3.155,0,0,1,5,15.944V14.887A7.887,7.887,0,0,1,12.887,7h7.887a7.887,7.887,0,0,1,7.887,7.887Z" transform="translate(-0.634 -1.057)" fill="#57565c"/>
      <path id="Trazado_896974" data-name="Trazado 896974" d="M31.83,14.887v1.057a3.155,3.155,0,0,1-.923,2.232l-2.232,2.232V16.464l-.8-.213c.008-.1.016-.205.016-.308V14.887A7.887,7.887,0,0,0,20,7h3.943a7.887,7.887,0,0,1,7.887,7.887Z" transform="translate(-3.804 -1.057)" fill="#2d2d30"/>
      <path id="Trazado_896975" data-name="Trazado 896975" d="M26.351,18.155V26.83A8.676,8.676,0,0,1,9,26.83V18.155L14.521,15Z" transform="translate(-1.479 -2.747)" fill="#ffdaaa"/>
      <path id="Trazado_896976" data-name="Trazado 896976" d="M27.562,18.155V26.83a8.664,8.664,0,0,1-6.31,8.344,8.367,8.367,0,0,1-2.366.331,8.045,8.045,0,0,1-1.577-.15,5.442,5.442,0,0,0,.789-.181,8.664,8.664,0,0,0,6.31-8.344V18.155L14.73,15.576l1-.576Z" transform="translate(-2.69 -2.747)" fill="#ffb655"/>
      <path id="Trazado_896977" data-name="Trazado 896977" d="M24.042,45.643,18.521,48.8,13,45.643l3.155-2.366v-2.7a8.616,8.616,0,0,0,4.732,0v2.7Z" transform="translate(-2.324 -8.152)" fill="#ffdaaa"/>
      <path id="Trazado_896978" data-name="Trazado 896978" d="M25.2,45.643,19.683,48.8,18.5,48.12l4.338-2.476-3.155-2.366V40.911a8.367,8.367,0,0,0,2.366-.331v2.7Z" transform="translate(-3.487 -8.152)" fill="#ffb655"/>
      <path id="Trazado_896979" data-name="Trazado 896979" d="M8.155,24v4.732H6.577A1.582,1.582,0,0,1,5,27.155V25.577A1.582,1.582,0,0,1,6.577,24Z" transform="translate(-0.634 -4.649)" fill="#ffdaaa"/>
      <path id="Trazado_896980" data-name="Trazado 896980" d="M29.6,37.548H21.978l-2.626-1.972V33.841a9.49,9.49,0,0,0,6.27-8.124h.828a2.373,2.373,0,0,0,2.366-2.366V21.774a2.36,2.36,0,0,0-2.066-2.335l.915-.915a3.939,3.939,0,0,0,1.151-2.792V14.676A8.681,8.681,0,0,0,20.14,6H12.253a8.681,8.681,0,0,0-8.676,8.676v1.057a3.939,3.939,0,0,0,1.151,2.792l.915.915a2.36,2.36,0,0,0-2.066,2.335v1.577a2.373,2.373,0,0,0,2.366,2.366h.828a9.49,9.49,0,0,0,6.27,8.124v1.735l-2.626,1.972H2.789A.789.789,0,0,0,2,38.336v4.732a7.109,7.109,0,0,0,7.1,7.1h14.2a7.109,7.109,0,0,0,7.1-7.1V38.336A.789.789,0,0,0,29.6,37.548ZM27.238,21.774v1.577a.789.789,0,0,1-.789.789h-.789V20.985h.789A.789.789,0,0,1,27.238,21.774ZM6.732,24.14H5.943a.789.789,0,0,1-.789-.789V21.774a.789.789,0,0,1,.789-.789h.789Zm0-7.887V18.3L5.849,17.4a2.366,2.366,0,0,1-.694-1.672V14.676a7.109,7.109,0,0,1,7.1-7.1H20.14a7.109,7.109,0,0,1,7.1,7.1v1.057a2.366,2.366,0,0,1-.694,1.672l-.883.891V16.253a.789.789,0,0,0-.584-.765l-11.83-3.155a.832.832,0,0,0-.6.079L7.126,15.567a.789.789,0,0,0-.394.686ZM8.31,24.929V16.71l4.843-2.768L24.083,16.86v8.068a7.887,7.887,0,0,1-15.774,0ZM14.3,36.6a.8.8,0,0,0,.315-.631V34.251a8.833,8.833,0,0,0,3.155,0V35.97a.8.8,0,0,0,.315.631l2.193,1.648L16.2,40.584,12.111,38.25Zm14.512,6.467a5.527,5.527,0,0,1-5.521,5.521H9.1a5.527,5.527,0,0,1-5.521-5.521V39.125h6.885L15.8,42.177a.823.823,0,0,0,.789,0l5.339-3.052h6.885Z" transform="translate(0 -0.845)"/>
      <path id="Trazado_896981" data-name="Trazado 896981" d="M55.87,6.732V5.155H54.293V4.366a.789.789,0,0,0-.789-.789h-.789V2H51.138V3.577H49.561V2H47.983V3.577H46.406V2H44.829V3.577H43.251V2H41.674V3.577H40.1V2H38.519V3.577H37.73a.789.789,0,0,0-.789.789v.789H35.364V6.732h1.577V8.31H35.364V9.887h1.577v7.887H35.364v1.577h1.577v.789a.789.789,0,0,0,.789.789h.789V29.6h-.931a2.366,2.366,0,1,0,0,1.577h1.719a.789.789,0,0,0,.789-.789V20.929h1.577V36.7h1.577V20.929h1.577v23.8a2.366,2.366,0,1,0,1.577,0v-23.8h1.577V34.336a.789.789,0,0,0,.789.789H51.28a2.366,2.366,0,1,0,0-1.577H49.561V20.929h1.577v3.943a.789.789,0,0,0,.789.789H55.87V24.083H52.716V20.929H53.5a.789.789,0,0,0,.789-.789v-.789H55.87V17.774H54.293V16.2H55.87V14.619H54.293V13.042H55.87V11.464H54.293V9.887H55.87V8.31H54.293V6.732ZM35.364,31.182a.789.789,0,1,1,.789-.789A.789.789,0,0,1,35.364,31.182ZM53.5,33.548a.789.789,0,1,1-.789.789A.789.789,0,0,1,53.5,33.548Zm-7.887,14.2a.789.789,0,1,1,.789-.789A.789.789,0,0,1,45.617,47.744Zm7.1-28.393h-14.2V5.155h14.2Z" transform="translate(-6.549)"/>
      <path id="Trazado_896982" data-name="Trazado 896982" d="M50.732,12.587v6.455H52.31V12.587a2.361,2.361,0,1,0-3.01-3.01H46v1.577h3.3a2.366,2.366,0,0,0,1.432,1.432Zm.789-3.01a.789.789,0,1,1-.789.789A.789.789,0,0,1,51.521,9.577Z" transform="translate(-9.298 -1.268)"/>
      <path id="Trazado_896983" data-name="Trazado 896983" d="M42,10h1.577v1.577H42Z" transform="translate(-8.452 -1.69)"/>
    </g>
  </g>
</svg>
